SplineFontDB: 3.0
FontName: Khartiya-Regular
FullName: Khartiya
FamilyName: Khartiya
Weight: Regular
Copyright: Copyright 1990 as an unpublished work by Bitstream Inc.  All rights reserved.  Confidential.\n\nCopyright (c) 2009, 2010 Andrey V. Panov
Version: 0.1
ItalicAngle: 0
UnderlinePosition: -109
UnderlineWidth: 61
Ascent: 770
Descent: 230
LayerCount: 2
Layer: 0 0 "+BBcEMAQ0BD0EOAQ5 +BD8EOwQwBD0A"  1
Layer: 1 0 "+BB8ENQRABDUENAQ9BDgEOQAA +BD8EOwQwBD0A"  0
NeedsXUIDChange: 1
UniqueID: 15530648
FSType: 8
OS2Version: 0
OS2_WeightWidthSlopeOnly: 0
OS2_UseTypoMetrics: 1
CreationTime: 1136849748
ModificationTime: 1263813701
PfmFamily: 17
TTFWeight: 400
TTFWidth: 5
LineGap: 200
VLineGap: 0
OS2TypoAscent: 770
OS2TypoAOffset: 0
OS2TypoDescent: -230
OS2TypoDOffset: 0
OS2TypoLinegap: 200
OS2WinAscent: 0
OS2WinAOffset: 1
OS2WinDescent: 0
OS2WinDOffset: 1
HheadAscent: 0
HheadAOffset: 1
HheadDescent: 0
HheadDOffset: 1
OS2Vendor: 'PfEd'
Lookup: 258 0 0 "LGC kerning"  {"LGC kerning subtable" [150,15,0] } ['kern' ('cyrl' <'dflt' > 'grek' <'dflt' > 'latn' <'dflt' > ) ]
MarkAttachClasses: 1
DEI: 91125
LangName: 1049 "" "+BCUEMARABEIEOARP" 
LangName: 1033 "" "" "" "" "" "" "" "" "" "" "" "" "" "Copyright (c) 2009, Andrey V. Panov (<panov @ canopus.iacp.dvo.ru>),+AAoA-with Reserved Font Name Khartiya.+AAoACgAA-This Font Software is licensed under the SIL Open Font License, Version 1.1.+AAoA-This license is copied below, and is also available with a FAQ at:+AAoA-http://scripts.sil.org/OFL+AAoA" "http://scripts.sil.org/OFL" 
Encoding: UnicodeBmp
Compacted: 1
UnicodeInterp: none
NameList: Adobe Glyph List
DisplaySize: -48
AntiAlias: 1
FitToEm: 1
WinInfo: 80 16 14
BeginPrivate: 5
BlueValues 32 [-16 0 481 492 671 689 736 744 ]
OtherBlues 31 [-218 -218 -170 -170 -146 -146]
StdHW 4 [43]
StdVW 4 [83]
ForceBold 5 false
EndPrivate
BeginChars: 65536 306

StartChar: exclam
Encoding: 33 33 1
Width: 338
Flags: HMW
HStem: -9 114<153.5 185> 171 512<151 187 151 193 145 187>
VStem: 114 112
LayerCount: 2
Back
SplineSet
221 553 m 2
 193 171 l 1
 145 171 l 1
 117 553 l 2
 115 575 114 594 114 611 c 0
 114 659 133 683 169 683 c 0
 205 683 224 658 224 611 c 0
 224 600 223 581 221 553 c 2
169 105 m 0
 201 105 226 80 226 48 c 0
 226 17 201 -9 169 -9 c 0
 138 -9 112 16 112 48 c 0
 112 80 138 105 169 105 c 0
EndSplineSet
Fore
SplineSet
112 48 m 0
 112 80 138 105 169 105 c 0
 201 105 226 80 226 48 c 0
 226 17 201 -9 169 -9 c 0
 138 -9 112 16 112 48 c 0
114 611 m 0
 114 659 133 683 169 683 c 0
 205 683 224 658 224 611 c 0
 224 600 223 581 221 553 c 2
 193 171 l 1
 145 171 l 1
 117 553 l 2
 115 575 114 594 114 611 c 0
EndSplineSet
EndChar

StartChar: quotedbl
Encoding: 34 34 2
Width: 331
Flags: HMW
HStem: 422 292<77 93 77 77 238 238 238 253>
VStem: 44 83<662.5 681 662.5 681> 204 83<662.5 680.5>
LayerCount: 2
Back
SplineSet
93 422 m 1
 77 422 l 1
 46 645 l 2
 45 652 44 659 44 665 c 0
 44 697 59 714 85 714 c 0
 111 714 127 697 127 665 c 0
 127 660 126 653 125 645 c 2
 93 422 l 1
253 422 m 1
 238 422 l 1
 206 645 l 2
 205 652 204 658 204 664 c 0
 204 697 220 714 246 714 c 0
 272 714 287 697 287 665 c 0
 287 660 287 653 286 645 c 2
 253 422 l 1
EndSplineSet
Fore
SplineSet
44 665 m 0
 44 697 59 714 85 714 c 0
 111 714 127 697 127 665 c 0
 127 660 126 653 125 645 c 2
 93 422 l 1
 77 422 l 1
 46 645 l 2
 45 652 44 659 44 665 c 0
204 664 m 0
 204 697 220 714 246 714 c 0
 272 714 287 697 287 665 c 0
 287 660 287 653 286 645 c 2
 253 422 l 1
 238 422 l 1
 206 645 l 2
 205 652 204 658 204 664 c 0
EndSplineSet
EndChar

StartChar: numbersign
Encoding: 35 35 3
Width: 745
Flags: HMW
HStem: -23 20 230 47<64 208 64 223 274 409 64 256 476 639> 423 47<113 271 113 287 338 474 113 323 541 680> 692 18
VStem: 64 616<230 470 277 470>
LayerCount: 2
Back
SplineSet
370 710 m 1
 417 692 l 1
 338 470 l 1
 492 470 l 1
 572 709 l 1
 619 692 l 1
 541 470 l 1
 680 470 l 1
 680 423 l 1
 525 423 l 1
 476 277 l 1
 639 277 l 1
 639 230 l 1
 460 230 l 1
 376 -23 l 1
 329 -7 l 1
 409 230 l 1
 256 230 l 1
 173 -23 l 1
 126 -7 l 1
 208 230 l 1
 64 230 l 1
 64 277 l 1
 223 277 l 1
 271 423 l 1
 113 423 l 1
 113 470 l 1
 287 470 l 1
 370 710 l 1
323 423 m 1
 274 277 l 1
 423 277 l 1
 474 423 l 1
 323 423 l 1
EndSplineSet
Fore
SplineSet
64 230 m 1
 64 277 l 1
 223 277 l 1
 271 423 l 1
 113 423 l 1
 113 470 l 1
 287 470 l 1
 370 710 l 1
 417 692 l 1
 338 470 l 1
 492 470 l 1
 572 709 l 1
 619 692 l 1
 541 470 l 1
 680 470 l 1
 680 423 l 1
 525 423 l 1
 476 277 l 1
 639 277 l 1
 639 230 l 1
 460 230 l 1
 376 -23 l 1
 329 -7 l 1
 409 230 l 1
 256 230 l 1
 173 -23 l 1
 126 -7 l 1
 208 230 l 1
 64 230 l 1
274 277 m 1
 423 277 l 1
 474 423 l 1
 323 423 l 1
 274 277 l 1
EndSplineSet
EndChar

StartChar: dollar
Encoding: 36 36 4
Width: 556
Flags: HW
HStem: -102 20 0 46<234 259 234 301> 622 47<259 259> 723 20<259 301 301 301>
VStem: 58 46<25 193 193 193> 76 85<479 534.5> 259 42<-102 0 -102 0 392 622 622 622 672 743> 415 83<144.5 203> 425 45<494 650>
LayerCount: 2
Back
SplineSet
259 743 m 1x77
 301 743 l 1
 301 672 l 1
 304 672 306 672 309 672 c 0
 355 672 409 664 470 650 c 1
 470 494 l 1
 425 494 l 1x1280
 410 587 l 1
 395 608 l 1
 365 619 334 625 301 625 c 1
 301 380 l 1
 437 343 498 292 498 192 c 0
 498 97 425 22 301 0 c 1
 301 -102 l 1
 259 -102 l 1
 259 0 l 1
 174 3 107 12 58 25 c 1
 58 193 l 1
 104 193 l 1xcb
 122 84 l 1
 131 71 l 1
 166 54 209 46 259 46 c 1
 259 307 l 1
 137 335 76 396 76 489 c 0
 76 580 141 649 259 669 c 1
 259 743 l 1x77
259 622 m 1x77
 196 608 161 565 161 507 c 0
 161 451 193 413 259 392 c 1
 259 622 l 1x77
303 294 m 1
 303 50 l 1
 373 61 415 110 415 174 c 0
 415 232 378 272 303 294 c 1
EndSplineSet
Fore
SplineSet
58 25 m 1
 58 193 l 1
 104 193 l 1xcb
 122 84 l 1
 131 71 l 1
 166 54 209 46 259 46 c 1
 259 307 l 1
 137 335 76 396 76 489 c 0
 76 580 141 649 259 669 c 1
 259 743 l 1x77
 301 743 l 1
 301 672 l 1
 304 672 306 672 309 672 c 0
 355 672 409 664 470 650 c 1
 470 494 l 1
 425 494 l 1x1280
 410 587 l 1
 395 608 l 1
 365 619 334 625 301 625 c 1
 301 380 l 1
 437 343 498 292 498 192 c 0
 498 97 425 22 301 0 c 1
 301 -102 l 1
 259 -102 l 1
 259 0 l 1
 174 3 107 12 58 25 c 1
161 507 m 0
 161 451 193 413 259 392 c 1
 259 622 l 1x77
 196 608 161 565 161 507 c 0
303 50 m 1
 373 61 415 110 415 174 c 0
 415 232 378 272 303 294 c 1
 303 50 l 1
EndSplineSet
EndChar

StartChar: percent
Encoding: 37 37 5
Width: 852
Flags: W
HStem: -12 36<629.55 710.903> 0 21G<181 253.757> 264 36<139.55 220.903> 372 35<629.939 708.63> 647 36<139.939 220.515> 651 20G<595.273 669>
VStem: 31 70<352.642 592.845> 181 60<0 60> 259 72<352.863 593.052> 521 70<76.642 317.048> 608 61<610 671> 749 72<76.8632 317.256>
DStem2: 181 0 241 0 0.537769 0.843092<32.2662 795.342>
LayerCount: 2
Back
SplineSet
181 683 m 0
 271 683 331 606 331 474 c 0
 331 341 272 264 181 264 c 0
 90 264 31 340 31 474 c 0
 31 606 91 683 181 683 c 0
608 671 m 1
 669 671 l 1
 241 0 l 1
 181 0 l 1
 608 671 l 1
179 647 m 0xff
 129 647 101 588 101 474 c 0
 101 359 128 300 179 300 c 0
 231 300 259 359 259 474 c 0
 259 589 230 647 179 647 c 0xff
671 407 m 0
 761 407 821 330 821 198 c 0
 821 65 762 -12 671 -12 c 0
 580 -12 521 64 521 198 c 0
 521 330 581 407 671 407 c 0
669 372 m 0
 619 372 591 312 591 198 c 0
 591 83 618 24 669 24 c 0
 721 24 749 83 749 198 c 0
 749 313 720 372 669 372 c 0
EndSplineSet
Fore
SplineSet
31 474 m 0x3bf0
 31 606 91 683 181 683 c 0
 271 683 331 606 331 474 c 0
 331 341 272 264 181 264 c 0
 90 264 31 340 31 474 c 0x3bf0
101 474 m 0
 101 359 128 300 179 300 c 0
 231 300 259 359 259 474 c 0
 259 589 230 647 179 647 c 0
 129 647 101 588 101 474 c 0
181 0 m 1x77f0
 608 671 l 1
 669 671 l 1
 241 0 l 1
 181 0 l 1x77f0
521 198 m 0
 521 330 581 407 671 407 c 0
 761 407 821 330 821 198 c 0
 821 65 762 -12 671 -12 c 0xb3f0
 580 -12 521 64 521 198 c 0
591 198 m 0
 591 83 618 24 669 24 c 0
 721 24 749 83 749 198 c 0
 749 313 720 372 669 372 c 0
 619 372 591 312 591 198 c 0
EndSplineSet
EndChar

StartChar: ampersand
Encoding: 38 38 6
Width: 704
Flags: HW
HStem: -12 60<249 299> 0 41<507 683> 316 40<466 669 466 669> 637 46<249.5 306>
VStem: 53 92<160.5 225> 103 80<513 563> 374 83<495.5 561>
LayerCount: 2
Back
SplineSet
276 390 m 1x76
 343 421 374 463 374 528 c 0
 374 594 336 637 276 637 c 0
 223 637 183 596 183 539 c 0
 183 487 215 444 276 390 c 1x76
311 357 m 1
 483 171 l 1
 513 214 532 252 539 289 c 1
 521 308 l 1
 466 316 l 1
 466 356 l 1
 669 356 l 1
 669 316 l 1
 597 306 l 1
 579 244 552 187 514 136 c 1
 592 46 l 1
 683 41 l 1
 683 0 l 1
 507 0 l 1x76
 507 24 l 1
 462 74 l 1
 396 17 332 -12 266 -12 c 0
 141 -12 53 74 53 185 c 0x88
 53 265 97 324 185 364 c 1
 131 417 103 463 103 517 c 0
 103 609 180 683 285 683 c 0
 391 683 457 616 457 533 c 0
 457 453 412 404 311 357 c 1
223 335 m 1x88
 170 299 145 260 145 206 c 0
 145 115 206 48 292 48 c 0
 343 48 388 67 431 108 c 1
 223 335 l 1x88
EndSplineSet
Fore
SplineSet
53 185 m 0x88
 53 265 97 324 185 364 c 1
 131 417 103 463 103 517 c 0
 103 609 180 683 285 683 c 0
 391 683 457 616 457 533 c 0
 457 453 412 404 311 357 c 1
 483 171 l 1
 513 214 532 252 539 289 c 1
 521 308 l 1
 466 316 l 1
 466 356 l 1
 669 356 l 1
 669 316 l 1
 597 306 l 1
 579 244 552 187 514 136 c 1
 592 46 l 1
 683 41 l 1
 683 0 l 1
 507 0 l 1x76
 507 24 l 1
 462 74 l 1
 396 17 332 -12 266 -12 c 0
 141 -12 53 74 53 185 c 0x88
145 206 m 0
 145 115 206 48 292 48 c 0
 343 48 388 67 431 108 c 1
 223 335 l 1x88
 170 299 145 260 145 206 c 0
183 539 m 0
 183 487 215 444 276 390 c 1x76
 343 421 374 463 374 528 c 0
 374 594 336 637 276 637 c 0
 223 637 183 596 183 539 c 0
EndSplineSet
EndChar

StartChar: quoteright
Encoding: 8217 8217 7
Width: 201
Flags: HMW
HStem: 442 271<73 74 31 114.5>
VStem: 31 139<592.5 672>
LayerCount: 2
Back
SplineSet
74 442 m 1
 31 442 l 1
 84 500 111 549 111 596 c 0
 111 604 111 611 109 619 c 1
 44 619 l 1
 35 632 31 644 31 656 c 0
 31 688 55 713 91 713 c 0
 138 713 170 677 170 621 c 0
 170 564 138 503 74 442 c 1
EndSplineSet
Fore
SplineSet
31 442 m 1
 84 500 111 549 111 596 c 0
 111 604 111 611 109 619 c 1
 44 619 l 1
 35 632 31 644 31 656 c 0
 31 688 55 713 91 713 c 0
 138 713 170 677 170 621 c 0
 170 564 138 503 74 442 c 1
 31 442 l 1
EndSplineSet
EndChar

StartChar: parenleft
Encoding: 40 40 8
Width: 417
Flags: HMW
HStem: -142 42<386 386> 676 42<386 386>
VStem: 106 85<166.5 404 166.5 415>
LayerCount: 2
Back
SplineSet
386 718 m 1
 386 676 l 1
 249 652 191 524 191 284 c 0
 191 49 252 -77 386 -100 c 1
 386 -142 l 1
 212 -122 106 29 106 285 c 0
 106 545 208 696 386 718 c 1
EndSplineSet
Fore
SplineSet
106 285 m 0
 106 545 208 696 386 718 c 1
 386 676 l 1
 249 652 191 524 191 284 c 0
 191 49 252 -77 386 -100 c 1
 386 -142 l 1
 212 -122 106 29 106 285 c 0
EndSplineSet
EndChar

StartChar: parenright
Encoding: 41 41 9
Width: 417
Flags: HMW
HStem: -142 42<31 31> 676 42<31 31>
VStem: 226 85<166.5 404>
LayerCount: 2
Back
SplineSet
31 718 m 1
 209 696 311 545 311 285 c 0
 311 29 205 -122 31 -142 c 1
 31 -100 l 1
 165 -77 226 49 226 284 c 0
 226 524 168 652 31 676 c 1
 31 718 l 1
EndSplineSet
Fore
SplineSet
31 -100 m 1
 165 -77 226 49 226 284 c 0
 226 524 168 652 31 676 c 1
 31 718 l 1
 209 696 311 545 311 285 c 0
 311 29 205 -122 31 -142 c 1
 31 -100 l 1
EndSplineSet
EndChar

StartChar: asterisk
Encoding: 42 42 10
Width: 500
Flags: HMW
VStem: 54 393<571 571>
LayerCount: 2
Back
SplineSet
250 718 m 1
 289 657 l 1
 257 532 l 1
 243 532 l 1
 211 657 l 1
 250 718 l 1
377 589 m 1
 447 571 l 1
 401 515 l 1
 273 507 l 1
 269 520 l 1
 377 589 l 1
266 491 m 1
 365 410 l 1
 369 338 l 1
 302 364 l 1
 255 484 l 1
 266 491 l 1
234 491 m 1
 244 484 l 1
 197 363 l 1
 130 338 l 1
 134 410 l 1
 234 491 l 1
123 589 m 1
 232 519 l 1
 228 507 l 1
 99 515 l 1
 54 571 l 1
 123 589 l 1
EndSplineSet
Fore
SplineSet
54 571 m 1
 123 589 l 1
 232 519 l 1
 228 507 l 1
 99 515 l 1
 54 571 l 1
130 338 m 1
 134 410 l 1
 234 491 l 1
 244 484 l 1
 197 363 l 1
 130 338 l 1
211 657 m 1
 250 718 l 1
 289 657 l 1
 257 532 l 1
 243 532 l 1
 211 657 l 1
255 484 m 1
 266 491 l 1
 365 410 l 1
 369 338 l 1
 302 364 l 1
 255 484 l 1
269 520 m 1
 377 589 l 1
 447 571 l 1
 401 515 l 1
 273 507 l 1
 269 520 l 1
EndSplineSet
EndChar

StartChar: plus
Encoding: 43 43 11
Width: 833
Flags: HMW
HStem: 270 57<124 388 124 388 446 709>
VStem: 388 58<0 270 0 270 327 596>
LayerCount: 2
Back
SplineSet
388 596 m 1
 446 596 l 1
 446 327 l 1
 709 327 l 1
 709 270 l 1
 446 270 l 1
 446 0 l 1
 388 0 l 1
 388 270 l 1
 124 270 l 1
 124 327 l 1
 388 327 l 1
 388 596 l 1
EndSplineSet
Fore
SplineSet
124 270 m 1
 124 327 l 1
 388 327 l 1
 388 596 l 1
 446 596 l 1
 446 327 l 1
 709 327 l 1
 709 270 l 1
 446 270 l 1
 446 0 l 1
 388 0 l 1
 388 270 l 1
 124 270 l 1
EndSplineSet
EndChar

StartChar: comma
Encoding: 44 44 12
Width: 278
Flags: HMW
HStem: -169 275<39 153>
VStem: 69 139<-37 67.5>
LayerCount: 2
Back
SplineSet
39 -169 m 1
 39 -136 l 1
 112 -122 149 -77 149 -4 c 0
 149 -1 149 3 149 7 c 1
 85 7 l 1
 74 19 69 33 69 51 c 0
 69 84 94 106 128 106 c 0
 178 106 208 70 208 6 c 0
 208 -80 140 -158 39 -169 c 1
EndSplineSet
Fore
SplineSet
39 -136 m 1
 112 -122 149 -77 149 -4 c 0
 149 -1 149 3 149 7 c 1
 85 7 l 1
 74 19 69 33 69 51 c 0
 69 84 94 106 128 106 c 0
 178 106 208 70 208 6 c 0
 208 -80 140 -158 39 -169 c 1
 39 -136 l 1
EndSplineSet
EndChar

StartChar: hyphen
Encoding: 45 45 13
Width: 319
Flags: HMW
HStem: 207 67<47 272 47 272>
VStem: 47 225<207 274 207 274>
LayerCount: 2
Back
SplineSet
47 274 m 1
 272 274 l 1
 272 207 l 1
 47 207 l 1
 47 274 l 1
EndSplineSet
Fore
SplineSet
47 207 m 1
 47 274 l 1
 272 274 l 1
 272 207 l 1
 47 207 l 1
EndSplineSet
EndChar

StartChar: period
Encoding: 46 46 14
Width: 278
Flags: HMW
HStem: -9 127<121.5 156.5>
VStem: 75 127<36.5 72 36.5 72>
LayerCount: 2
Back
SplineSet
139 118 m 0
 174 118 202 90 202 54 c 0
 202 19 174 -9 139 -9 c 0
 104 -9 75 18 75 54 c 0
 75 90 104 118 139 118 c 0
EndSplineSet
Fore
SplineSet
75 54 m 0
 75 90 104 118 139 118 c 0
 174 118 202 90 202 54 c 0
 202 19 174 -9 139 -9 c 0
 104 -9 75 18 75 54 c 0
EndSplineSet
EndChar

StartChar: slash
Encoding: 47 47 15
Width: 481
Flags: HMW
HStem: -93 764<-28 460 -28 460>
VStem: -28 488
LayerCount: 2
Back
SplineSet
399 671 m 1
 460 671 l 1
 32 -93 l 1
 -28 -93 l 1
 399 671 l 1
EndSplineSet
Fore
SplineSet
-28 -93 m 1
 399 671 l 1
 460 671 l 1
 32 -93 l 1
 -28 -93 l 1
EndSplineSet
EndChar

StartChar: zero
Encoding: 48 48 16
Width: 556
Flags: HMW
HStem: -12 48<232 324 232 349.5> 636 47<232 324>
VStem: 41 94<236 434.5 236 446.5> 420 95<237 435>
LayerCount: 2
Back
SplineSet
278 683 m 0
 421 683 515 557 515 336 c 0
 515 115 421 -12 278 -12 c 0
 135 -12 41 115 41 336 c 0
 41 557 135 683 278 683 c 0
278 636 m 0
 186 636 135 534 135 335 c 0
 135 137 186 36 278 36 c 0
 370 36 420 138 420 336 c 0
 420 534 370 636 278 636 c 0
EndSplineSet
Fore
SplineSet
41 336 m 0
 41 557 135 683 278 683 c 0
 421 683 515 557 515 336 c 0
 515 115 421 -12 278 -12 c 0
 135 -12 41 115 41 336 c 0
135 335 m 0
 135 137 186 36 278 36 c 0
 370 36 420 138 420 336 c 0
 420 534 370 636 278 636 c 0
 186 636 135 534 135 335 c 0
EndSplineSet
EndChar

StartChar: one
Encoding: 49 49 17
Width: 556
Flags: HMW
HStem: 0 42<124 459> 663 20<311 339 339 339>
VStem: 251 88<66 604 604 604>
LayerCount: 2
Back
SplineSet
311 683 m 1
 339 683 l 1
 339 62 l 1
 351 47 l 1
 459 42 l 1
 459 0 l 1
 124 0 l 1
 124 43 l 1
 239 49 l 1
 251 66 l 1
 251 604 l 1
 94 576 l 1
 94 618 l 1
 311 683 l 1
EndSplineSet
Fore
SplineSet
94 576 m 1
 94 618 l 1
 311 683 l 1
 339 683 l 1
 339 62 l 1
 351 47 l 1
 459 42 l 1
 459 0 l 1
 124 0 l 1
 124 43 l 1
 239 49 l 1
 251 66 l 1
 251 604 l 1
 94 576 l 1
EndSplineSet
EndChar

StartChar: two
Encoding: 50 50 18
Width: 556
Flags: HW
HStem: 0 79<141 442 141 505> 632 51<238 294.5>
VStem: 386 97<431 528.5> 460 45<0 164>
LayerCount: 2
Back
SplineSet
141 79 m 1xe0
 442 79 l 1
 460 164 l 1
 505 164 l 1
 505 0 l 1x90
 42 0 l 1
 42 63 l 1
 261 241 386 350 386 481 c 0
 386 576 336 632 253 632 c 0
 223 632 194 625 164 608 c 1
 164 501 l 1
 150 491 135 486 119 486 c 0
 84 486 63 508 63 542 c 0
 63 612 151 683 275 683 c 0
 404 683 483 607 483 494 c 0
 483 368 362 255 141 79 c 1xe0
EndSplineSet
Fore
SplineSet
42 0 m 1
 42 63 l 1
 261 241 386 350 386 481 c 0
 386 576 336 632 253 632 c 0
 223 632 194 625 164 608 c 1
 164 501 l 1
 150 491 135 486 119 486 c 0
 84 486 63 508 63 542 c 0
 63 612 151 683 275 683 c 0
 404 683 483 607 483 494 c 0
 483 368 362 255 141 79 c 1xe0
 442 79 l 1
 460 164 l 1
 505 164 l 1
 505 0 l 1x90
 42 0 l 1
EndSplineSet
EndChar

StartChar: three
Encoding: 51 51 19
Width: 556
Flags: HW
HStem: -11 47<228 288.5 228 316> 632 51<230.5 286.5>
VStem: 375 91<476.5 541.5> 400 92<149.5 233.5>
LayerCount: 2
Back
SplineSet
317 353 m 1x60
 428 345 492 283 492 192 c 0
 492 80 393 -11 239 -11 c 0
 120 -11 41 48 41 99 c 0
 41 128 65 150 97 150 c 0
 106 150 116 149 127 145 c 1
 158 60 l 1
 185 44 213 36 243 36 c 0
 334 36 400 105 400 194 c 0x90
 400 273 348 319 252 319 c 0
 236 319 218 318 199 315 c 1
 199 374 l 1
 206 374 213 373 220 373 c 0
 321 373 375 421 375 502 c 0
 375 581 325 632 248 632 c 0
 213 632 182 623 153 603 c 1
 153 509 l 1
 141 500 128 496 112 496 c 0
 80 496 58 518 58 550 c 0
 58 616 144 683 269 683 c 0
 389 683 466 616 466 515 c 0
 466 438 415 381 317 353 c 1x60
EndSplineSet
Fore
SplineSet
41 99 m 0
 41 128 65 150 97 150 c 0
 106 150 116 149 127 145 c 1
 158 60 l 1
 185 44 213 36 243 36 c 0
 334 36 400 105 400 194 c 0x90
 400 273 348 319 252 319 c 0
 236 319 218 318 199 315 c 1
 199 374 l 1
 206 374 213 373 220 373 c 0
 321 373 375 421 375 502 c 0
 375 581 325 632 248 632 c 0
 213 632 182 623 153 603 c 1
 153 509 l 1
 141 500 128 496 112 496 c 0
 80 496 58 518 58 550 c 0
 58 616 144 683 269 683 c 0
 389 683 466 616 466 515 c 0
 466 438 415 381 317 353 c 1x60
 428 345 492 283 492 192 c 0
 492 80 393 -11 239 -11 c 0
 120 -11 41 48 41 99 c 0
EndSplineSet
EndChar

StartChar: four
Encoding: 52 52 20
Width: 556
Flags: MW
HStem: -37 20 194 65<102 349 27 27 426 539> 657 20<368 426 426 426>
VStem: 349 77<-37 194 -37 194 259 568 568 568>
DStem2: 27 259 102 259 0.632127 0.774865<47.4095 442.978>
LayerCount: 2
Back
SplineSet
368 677 m 1
 426 677 l 1
 426 259 l 1
 539 259 l 1
 539 194 l 1
 426 194 l 1
 426 -37 l 1
 349 -37 l 1
 349 194 l 1
 27 194 l 1
 27 259 l 1
 368 677 l 1
349 568 m 1
 102 259 l 1
 349 259 l 1
 349 568 l 1
EndSplineSet
Fore
SplineSet
27 194 m 1
 27 259 l 1
 368 677 l 1
 426 677 l 1
 426 259 l 1
 539 259 l 1
 539 194 l 1
 426 194 l 1
 426 -37 l 1
 349 -37 l 1
 349 194 l 1
 27 194 l 1
102 259 m 1
 349 259 l 1
 349 568 l 1
 102 259 l 1
EndSplineSet
EndChar

StartChar: five
Encoding: 53 53 21
Width: 556
Flags: HMW
HStem: -9 46<228 286 228 304> 347 62<254 258.5> 593 78<163 459 163 163>
VStem: 101 62<393 593 393 671> 397 92<152.5 248.5>
LayerCount: 2
Back
SplineSet
101 671 m 1
 459 671 l 1
 459 593 l 1
 163 593 l 1
 163 393 l 1
 202 404 238 409 270 409 c 0
 404 409 489 331 489 217 c 0
 489 88 386 -9 222 -9 c 0
 119 -9 50 37 50 85 c 0
 50 116 74 138 108 138 c 0
 114 138 122 137 132 135 c 1
 172 49 l 1
 194 41 217 37 239 37 c 0
 333 37 397 104 397 197 c 0
 397 300 328 347 189 347 c 0
 152 347 123 345 101 341 c 1
 101 671 l 1
EndSplineSet
Fore
SplineSet
50 85 m 0
 50 116 74 138 108 138 c 0
 114 138 122 137 132 135 c 1
 172 49 l 1
 194 41 217 37 239 37 c 0
 333 37 397 104 397 197 c 0
 397 300 328 347 189 347 c 0
 152 347 123 345 101 341 c 1
 101 671 l 1
 459 671 l 1
 459 593 l 1
 163 593 l 1
 163 393 l 1
 202 404 238 409 270 409 c 0
 404 409 489 331 489 217 c 0
 489 88 386 -9 222 -9 c 0
 119 -9 50 37 50 85 c 0
EndSplineSet
EndChar

StartChar: six
Encoding: 54 54 22
Width: 556
Flags: HMW
HStem: -12 48<244 332.5 244 351.5> 385 60<287.5 332.5> 656 58<360 443 440 443>
VStem: 50 93<199.5 288.5 199.5 405> 434 91<165 269.5>
LayerCount: 2
Back
SplineSet
443 714 m 1
 443 656 l 1
 442 656 441 656 440 656 c 0
 280 656 178 562 147 384 c 1
 199 424 258 445 317 445 c 0
 436 445 525 354 525 227 c 0
 525 92 420 -12 283 -12 c 0
 148 -12 50 97 50 277 c 0
 50 533 198 698 443 714 c 1
145 340 m 1
 143 319 143 298 143 279 c 0
 143 120 197 36 291 36 c 0
 374 36 434 112 434 218 c 0
 434 321 375 385 290 385 c 0
 235 385 186 370 145 340 c 1
EndSplineSet
Fore
SplineSet
50 277 m 0
 50 533 198 698 443 714 c 1
 443 656 l 1
 442 656 441 656 440 656 c 0
 280 656 178 562 147 384 c 1
 199 424 258 445 317 445 c 0
 436 445 525 354 525 227 c 0
 525 92 420 -12 283 -12 c 0
 148 -12 50 97 50 277 c 0
143 279 m 0
 143 120 197 36 291 36 c 0
 374 36 434 112 434 218 c 0
 434 321 375 385 290 385 c 0
 235 385 186 370 145 340 c 1
 143 319 143 298 143 279 c 0
EndSplineSet
EndChar

StartChar: seven
Encoding: 55 55 23
Width: 556
Flags: MW
HStem: -37 22<116 199> 595 76<134 442 134 134>
VStem: 71 47<504 671> 71 460<631 671 631 671 631 671>
DStem2: 116 -37 199 -15 0.457099 0.889416<57.5064 711.125>
LayerCount: 2
Back
SplineSet
71 671 m 1x50
 531 671 l 1
 531 631 l 1x50
 199 -15 l 1
 199 -37 l 1
 116 -37 l 1
 442 595 l 1
 134 595 l 1
 118 504 l 1xe0
 71 504 l 1
 71 671 l 1x50
EndSplineSet
Fore
SplineSet
71 504 m 1
 71 671 l 1x50
 531 671 l 1
 531 631 l 5x50
 199 -15 l 5
 199 -37 l 1
 116 -37 l 5
 442 595 l 5
 134 595 l 1
 118 504 l 1xe0
 71 504 l 1
EndSplineSet
EndChar

StartChar: eight
Encoding: 56 56 24
Width: 556
Flags: HW
HStem: -16 52<230 321 230 344.5> 637 48<245.5 316.5>
VStem: 44 77<139 216.5 139 216.5> 76 83<486 552 486 557> 401 77<484 547> 420 86<129.5 208.5>
LayerCount: 2
Back
SplineSet
321 369 m 1x58
 373 403 401 454 401 507 c 0
 401 587 353 637 280 637 c 0
 211 637 159 585 159 519 c 0
 159 453 212 408 321 369 c 1x58
363 351 m 1
 457 318 506 257 506 179 c 0
 506 73 414 -16 275 -16 c 0
 131 -16 44 64 44 177 c 0xa4
 44 256 90 315 181 350 c 1
 112 379 76 432 76 504 c 0
 76 610 159 685 283 685 c 0
 403 685 478 614 478 517 c 0
 478 451 437 390 363 351 c 1
219 329 m 1xa4
 151 293 121 250 121 183 c 0
 121 95 182 36 278 36 c 0
 364 36 420 90 420 169 c 0
 420 248 353 279 219 329 c 1xa4
EndSplineSet
Fore
SplineSet
44 177 m 0xa4
 44 256 90 315 181 350 c 1
 112 379 76 432 76 504 c 0
 76 610 159 685 283 685 c 0
 403 685 478 614 478 517 c 0
 478 451 437 390 363 351 c 1
 457 318 506 257 506 179 c 0
 506 73 414 -16 275 -16 c 0
 131 -16 44 64 44 177 c 0xa4
121 183 m 0
 121 95 182 36 278 36 c 0
 364 36 420 90 420 169 c 0
 420 248 353 279 219 329 c 1xa4
 151 293 121 250 121 183 c 0
159 519 m 0
 159 453 212 408 321 369 c 1x58
 373 403 401 454 401 507 c 0
 401 587 353 637 280 637 c 0
 211 637 159 585 159 519 c 0
EndSplineSet
EndChar

StartChar: nine
Encoding: 57 57 25
Width: 556
Flags: HMW
HStem: -52 20 230 54<237.5 270> 634 47<237 323.5>
VStem: 43 94<400.5 511 400.5 514> 423 89<404 490>
LayerCount: 2
Back
SplineSet
411 319 m 1
 419 354 423 388 423 420 c 0
 423 560 369 634 278 634 c 0
 196 634 137 566 137 456 c 0
 137 345 190 284 285 284 c 0
 324 284 366 296 411 319 c 1
126 -52 m 1
 103 -6 l 1
 257 66 354 154 398 269 c 1
 342 243 292 230 248 230 c 0
 127 230 43 315 43 445 c 0
 43 583 143 681 287 681 c 0
 427 681 512 586 512 425 c 0
 512 228 373 42 126 -52 c 1
EndSplineSet
Fore
SplineSet
43 445 m 0
 43 583 143 681 287 681 c 0
 427 681 512 586 512 425 c 0
 512 228 373 42 126 -52 c 1
 103 -6 l 1
 257 66 354 154 398 269 c 1
 342 243 292 230 248 230 c 0
 127 230 43 315 43 445 c 0
137 456 m 0
 137 345 190 284 285 284 c 0
 324 284 366 296 411 319 c 1
 419 354 423 388 423 420 c 0
 423 560 369 634 278 634 c 0
 196 634 137 566 137 456 c 0
EndSplineSet
EndChar

StartChar: colon
Encoding: 58 58 26
Width: 319
Flags: HMW
HStem: -9 127<141.5 176.5> 354 127<141.5 176.5>
VStem: 96 127<36.5 72 36.5 72 400.5 436>
LayerCount: 2
Back
SplineSet
159 481 m 0
 194 481 223 454 223 418 c 0
 223 383 194 354 159 354 c 0
 124 354 96 383 96 418 c 0
 96 454 124 481 159 481 c 0
159 118 m 0
 194 118 223 90 223 54 c 0
 223 19 194 -9 159 -9 c 0
 124 -9 96 18 96 54 c 0
 96 90 124 118 159 118 c 0
EndSplineSet
Fore
SplineSet
96 54 m 0
 96 90 124 118 159 118 c 0
 194 118 223 90 223 54 c 0
 223 19 194 -9 159 -9 c 0
 124 -9 96 18 96 54 c 0
96 418 m 0
 96 454 124 481 159 481 c 0
 194 481 223 454 223 418 c 0
 223 383 194 354 159 354 c 0
 124 354 96 383 96 418 c 0
EndSplineSet
EndChar

StartChar: semicolon
Encoding: 59 59 27
Width: 319
Flags: HMW
HStem: -169 275<65 178> 354 127<141.5 176.5>
VStem: 94 139<-37 67.5>
LayerCount: 2
Back
SplineSet
159 481 m 0
 194 481 223 454 223 418 c 0
 223 383 194 354 159 354 c 0
 124 354 96 383 96 418 c 0
 96 454 124 481 159 481 c 0
65 -169 m 1
 65 -136 l 1
 138 -122 175 -77 175 -4 c 0
 175 -1 175 3 175 7 c 1
 110 7 l 1
 99 19 94 33 94 51 c 0
 94 84 119 106 153 106 c 0
 203 106 233 70 233 6 c 0
 233 -80 166 -158 65 -169 c 1
EndSplineSet
Fore
SplineSet
65 -136 m 1
 138 -122 175 -77 175 -4 c 0
 175 -1 175 3 175 7 c 1
 110 7 l 1
 99 19 94 33 94 51 c 0
 94 84 119 106 153 106 c 0
 203 106 233 70 233 6 c 0
 233 -80 166 -158 65 -169 c 1
 65 -136 l 1
96 418 m 0
 96 454 124 481 159 481 c 0
 194 481 223 454 223 418 c 0
 223 383 194 354 159 354 c 0
 124 354 96 383 96 418 c 0
EndSplineSet
EndChar

StartChar: less
Encoding: 60 60 28
Width: 833
Flags: MW
HStem: 37 522<704 704>
VStem: 129 575<37 323 37 323>
DStem2: 129 323 216 298 0.925111 0.379698<70.9922 598.006> 216 298 129 273 0.925111 -0.379698<0 526.634>
LayerCount: 2
Back
SplineSet
704 559 m 1
 704 497 l 1
 216 298 l 1
 704 100 l 1
 704 37 l 1
 129 273 l 1
 129 323 l 1
 704 559 l 1
EndSplineSet
Fore
SplineSet
129 273 m 1
 129 323 l 1
 704 559 l 1
 704 497 l 1
 216 298 l 1
 704 100 l 1
 704 37 l 1
 129 273 l 1
EndSplineSet
EndChar

StartChar: equal
Encoding: 61 61 29
Width: 833
Flags: HMW
HStem: 176 57<124 709 124 709> 363 57<124 709 124 709>
VStem: 124 585<176 233 176 233 363 420 176 420>
LayerCount: 2
Back
SplineSet
124 420 m 1
 709 420 l 1
 709 363 l 1
 124 363 l 1
 124 420 l 1
124 233 m 1
 709 233 l 1
 709 176 l 1
 124 176 l 1
 124 233 l 1
EndSplineSet
Fore
SplineSet
124 176 m 1
 124 233 l 1
 709 233 l 1
 709 176 l 1
 124 176 l 1
124 363 m 1
 124 420 l 1
 709 420 l 1
 709 363 l 1
 124 363 l 1
EndSplineSet
EndChar

StartChar: greater
Encoding: 62 62 30
Width: 833
Flags: MW
HStem: 37 522<129 129>
VStem: 129 575<37 323 100 323 273 559 273 559>
DStem2: 129 559 129 497 0.925111 -0.379698<23.5413 550.555> 129 100 129 37 0.925111 0.379698<0 526.634>
LayerCount: 2
Back
SplineSet
129 559 m 1
 704 323 l 1
 704 273 l 1
 129 37 l 1
 129 100 l 1
 617 298 l 1
 129 497 l 1
 129 559 l 1
EndSplineSet
Fore
SplineSet
129 37 m 1
 129 100 l 1
 617 298 l 1
 129 497 l 1
 129 559 l 1
 704 323 l 1
 704 273 l 1
 129 37 l 1
EndSplineSet
EndChar

StartChar: question
Encoding: 63 63 31
Width: 486
Flags: HW
HStem: -9 114<184.5 216> 637 46<173 179 173 174.5>
VStem: 144 114<32.5 64 32.5 64> 174 53<171 288 171 317 171 317> 319 91<455 540.5>
LayerCount: 2
Back
SplineSet
227 288 m 1x58
 227 171 l 1
 174 171 l 1
 174 317 l 1
 270 353 319 413 319 496 c 0
 319 585 268 637 179 637 c 0
 177 637 176 637 173 637 c 1
 133 538 l 1
 127 537 121 537 115 537 c 0
 76 537 55 557 55 590 c 0
 55 640 113 683 202 683 c 0
 330 683 410 610 410 502 c 0
 410 408 350 341 227 288 c 1x58
200 105 m 0xa0
 232 105 258 80 258 48 c 0
 258 17 232 -9 200 -9 c 0
 169 -9 144 16 144 48 c 0
 144 80 169 105 200 105 c 0xa0
EndSplineSet
Fore
SplineSet
55 590 m 0
 55 640 113 683 202 683 c 0
 330 683 410 610 410 502 c 0
 410 408 350 341 227 288 c 1x58
 227 171 l 1
 174 171 l 1
 174 317 l 1
 270 353 319 413 319 496 c 0
 319 585 268 637 179 637 c 0
 177 637 176 637 173 637 c 1
 133 538 l 1
 127 537 121 537 115 537 c 0
 76 537 55 557 55 590 c 0
144 48 m 0
 144 80 169 105 200 105 c 0xa0
 232 105 258 80 258 48 c 0
 258 17 232 -9 200 -9 c 0
 169 -9 144 16 144 48 c 0
EndSplineSet
EndChar

StartChar: at
Encoding: 64 64 32
Width: 942
Flags: HMW
HStem: -153 49<421 524> 57 61<421.5 427> 452 40<493.5 534.5> 649 43<487.5 626.5>
VStem: 76 71<187 312.5> 280 85<192.5 248.5> 825 46<336 455>
LayerCount: 2
Back
SplineSet
699 488 m 1
 686 455 680 419 672 381 c 2
 633 209 l 2
 627 183 625 165 625 154 c 0
 625 128 642 111 667 111 c 0
 693 111 726 128 755 163 c 0
 799 215 825 293 825 377 c 0
 825 533 711 649 542 649 c 0
 433 649 342 615 271 549 c 0
 188 472 147 376 147 258 c 0
 147 39 290 -104 504 -104 c 0
 593 -104 683 -80 767 -31 c 1
 781 -65 l 1
 675 -124 571 -153 477 -153 c 0
 365 -153 265 -114 188 -40 c 0
 114 31 76 128 76 246 c 0
 76 379 125 490 221 578 c 0
 300 650 413 692 528 692 c 0
 740 692 871 564 871 373 c 0
 871 299 852 233 815 176 c 0
 765 99 689 55 625 55 c 0
 577 55 551 81 551 132 c 0
 551 135 551 138 551 141 c 1
 497 85 450 57 404 57 c 0
 333 57 280 119 280 217 c 0
 280 280 300 339 336 388 c 0
 385 454 458 492 529 492 c 0
 561 492 593 483 627 465 c 1
 645 488 l 1
 699 488 l 1
553 450 m 1
 546 451 538 452 531 452 c 0
 439 452 365 359 365 229 c 0
 365 156 395 118 448 118 c 0
 484 118 518 140 553 184 c 1
 594 394 l 1
 553 450 l 1
EndSplineSet
Fore
SplineSet
76 246 m 0
 76 379 125 490 221 578 c 0
 300 650 413 692 528 692 c 0
 740 692 871 564 871 373 c 0
 871 299 852 233 815 176 c 0
 765 99 689 55 625 55 c 0
 577 55 551 81 551 132 c 0
 551 135 551 138 551 141 c 1
 497 85 450 57 404 57 c 0
 333 57 280 119 280 217 c 0
 280 280 300 339 336 388 c 0
 385 454 458 492 529 492 c 0
 561 492 593 483 627 465 c 1
 645 488 l 1
 699 488 l 1
 686 455 680 419 672 381 c 2
 633 209 l 2
 627 183 625 165 625 154 c 0
 625 128 642 111 667 111 c 0
 693 111 726 128 755 163 c 0
 799 215 825 293 825 377 c 0
 825 533 711 649 542 649 c 0
 433 649 342 615 271 549 c 0
 188 472 147 376 147 258 c 0
 147 39 290 -104 504 -104 c 0
 593 -104 683 -80 767 -31 c 1
 781 -65 l 1
 675 -124 571 -153 477 -153 c 0
 365 -153 265 -114 188 -40 c 0
 114 31 76 128 76 246 c 0
365 229 m 0
 365 156 395 118 448 118 c 0
 484 118 518 140 553 184 c 1
 594 394 l 1
 553 450 l 1
 546 451 538 452 531 452 c 0
 439 452 365 359 365 229 c 0
EndSplineSet
EndChar

StartChar: A
Encoding: 65 65 33
Width: 639
Flags: MW
HStem: 0 41<-8 188 -8 -8> 251 46<201 403 201 420 184 403> 659 20<284 350 350 350>
VStem: -8 658<0 41 0 41>
DStem2: 50 53 113 60 0.350139 0.936698<28.6157 232.385 281.425 575.554> 350 679 300 574 0.357979 -0.933729<80.1426 375.658 424.695 628.812>
LayerCount: 2
Back
SplineSet
284 679 m 1
 350 679 l 1
 590 53 l 1
 650 41 l 1
 650 0 l 1
 423 0 l 1
 423 41 l 1
 485 46 l 1
 492 60 l 1
 420 251 l 1
 184 251 l 1
 113 60 l 1
 123 46 l 1
 188 41 l 1
 188 0 l 1
 -8 0 l 1
 -8 41 l 1
 50 53 l 1
 284 679 l 1
300 574 m 1
 201 297 l 1
 403 297 l 1
 300 574 l 1
EndSplineSet
Fore
SplineSet
-8 0 m 1
 -8 41 l 1
 50 53 l 1
 284 679 l 1
 350 679 l 1
 590 53 l 1
 650 41 l 1
 650 0 l 1
 423 0 l 1
 423 41 l 1
 485 46 l 1
 492 60 l 1
 420 251 l 1
 184 251 l 1
 113 60 l 1
 123 46 l 1
 188 41 l 1
 188 0 l 1
 -8 0 l 1
201 297 m 1
 403 297 l 1
 300 574 l 1
 201 297 l 1
EndSplineSet
EndChar

StartChar: B
Encoding: 66 66 34
Width: 604
Flags: HW
HStem: 0 47<253.5 297> 323 43<282 297.5 229 350.5> 627 44<247.5 288 288 309>
VStem: 107 90<60 317 367 611 611 611> 418 99<471 545.5> 460 98<138.5 234.5>
LayerCount: 2
Back
SplineSet
33 671 m 1xf4
 288 671 l 2
 441 671 517 619 517 509 c 0x78
 517 433 468 382 372 356 c 1
 491 355 558 294 558 196 c 0
 558 70 467 0 297 0 c 2
 33 0 l 1
 33 41 l 1
 90 46 l 1
 107 60 l 1
 107 611 l 1
 90 625 l 1
 33 631 l 1
 33 671 l 1xf4
197 367 m 1xfc
 210 366 223 366 235 366 c 0
 360 366 418 408 418 505 c 0
 418 586 364 627 254 627 c 0
 241 627 222 625 197 624 c 1
 197 367 l 1xfc
197 50 m 1xf4
 221 48 243 47 264 47 c 0
 398 47 460 88 460 189 c 0
 460 280 406 323 295 323 c 0
 269 323 236 321 197 317 c 1
 197 50 l 1xf4
EndSplineSet
Fore
SplineSet
33 0 m 1xda
 33 41 l 1
 90 46 l 1
 107 60 l 1
 107 611 l 1
 90 625 l 1
 33 631 l 1
 33 671 l 1
 288 671 l 2
 441 671 517 619 517 509 c 0xdc
 517 433 468 382 372 356 c 1
 491 355 558 294 558 196 c 0
 558 70 467 0 297 0 c 2
 33 0 l 1xda
197 50 m 1
 221 48 243 47 264 47 c 0
 398 47 460 88 460 189 c 0xca
 460 280 406 323 295 323 c 0
 269 323 236 321 197 317 c 1
 197 50 l 1
197 367 m 1
 210 366 223 366 235 366 c 0
 360 366 418 408 418 505 c 0
 418 586 364 627 254 627 c 0xdc
 241 627 222 625 197 624 c 1xec
 197 367 l 1
EndSplineSet
EndChar

StartChar: C
Encoding: 67 67 35
Width: 632
Flags: HMW
HStem: -12 53<353 419.5> 630 53<317.5 411.5>
VStem: 43 103<270.5 432.5 248 440> 532 56<181 181 495 495>
LayerCount: 2
Back
SplineSet
588 23 m 1
 522 0 453 -12 386 -12 c 0
 320 -12 262 2 216 28 c 0
 109 89 43 205 43 336 c 0
 43 544 182 683 390 683 c 0
 449 683 515 672 588 649 c 1
 588 495 l 1
 532 495 l 1
 517 586 l 1
 504 604 l 1
 467 621 431 630 392 630 c 0
 243 630 146 522 146 343 c 0
 146 153 245 41 407 41 c 0
 435 41 464 45 494 54 c 1
 510 70 l 1
 532 181 l 1
 588 181 l 1
 588 23 l 1
EndSplineSet
Fore
SplineSet
43 336 m 0
 43 544 182 683 390 683 c 0
 449 683 515 672 588 649 c 1
 588 495 l 1
 532 495 l 1
 517 586 l 1
 504 604 l 1
 467 621 431 630 392 630 c 0
 243 630 146 522 146 343 c 0
 146 153 245 41 407 41 c 0
 435 41 464 45 494 54 c 1
 510 70 l 1
 532 181 l 1
 588 181 l 1
 588 23 l 1
 522 0 453 -12 386 -12 c 0
 320 -12 262 2 216 28 c 0
 109 89 43 205 43 336 c 0
EndSplineSet
EndChar

StartChar: D
Encoding: 68 68 36
Width: 693
Flags: HMW
HStem: 0 46<90 90 197 276 276 280> 625 46<90 90 197 276 197 197>
VStem: 107 90<60 611 611 611> 548 101<276.5 433.5>
LayerCount: 2
Back
SplineSet
280 671 m 2
 517 671 649 546 649 336 c 0
 649 217 606 124 524 62 c 0
 456 11 380 0 280 0 c 2
 33 0 l 1
 33 41 l 1
 90 46 l 1
 107 60 l 1
 107 611 l 1
 90 625 l 1
 33 631 l 1
 33 671 l 1
 280 671 l 2
197 625 m 1
 197 46 l 1
 276 46 l 2
 459 46 548 142 548 336 c 0
 548 531 459 625 276 625 c 2
 197 625 l 1
EndSplineSet
Fore
SplineSet
33 0 m 1
 33 41 l 1
 90 46 l 1
 107 60 l 1
 107 611 l 1
 90 625 l 1
 33 631 l 1
 33 671 l 1
 280 671 l 2
 517 671 649 546 649 336 c 0
 649 217 606 124 524 62 c 0
 456 11 380 0 280 0 c 2
 33 0 l 1
197 46 m 1
 276 46 l 2
 459 46 548 142 548 336 c 0
 548 531 459 625 276 625 c 2
 197 625 l 1
 197 46 l 1
EndSplineSet
EndChar

StartChar: E
Encoding: 69 69 37
Width: 576
Flags: HW
HStem: 0 46<90 90 197 465> 326 46<197 361 197 361> 625 46<90 90 197 197 197 428>
VStem: 107 90<60 326 372 611 611 611> 385 47<239 459 239 459> 456 56<525 671> 496 52<0 163>
LayerCount: 2
Back
SplineSet
33 0 m 1xfa
 33 41 l 1
 90 46 l 1
 107 60 l 1
 107 611 l 1
 90 625 l 1
 33 631 l 1
 33 671 l 1
 512 671 l 1
 512 525 l 1
 456 525 l 1xb4
 442 610 l 1
 428 625 l 1
 197 625 l 1
 197 372 l 1
 361 372 l 1
 375 386 l 1
 385 459 l 1
 432 459 l 1
 432 239 l 1
 385 239 l 1
 375 311 l 1
 361 326 l 1
 197 326 l 1
 197 46 l 1
 465 46 l 1
 479 62 l 1
 496 163 l 1
 548 163 l 1
 548 0 l 1
 33 0 l 1xfa
EndSplineSet
Fore
SplineSet
33 0 m 1xfa
 33 41 l 1
 90 46 l 1
 107 60 l 1
 107 611 l 1
 90 625 l 1
 33 631 l 1
 33 671 l 1
 512 671 l 1
 512 525 l 1
 456 525 l 1xb4
 442 610 l 1
 428 625 l 1
 197 625 l 1
 197 372 l 1
 361 372 l 1
 375 386 l 1
 385 459 l 1
 432 459 l 1
 432 239 l 1
 385 239 l 1
 375 311 l 1
 361 326 l 1
 197 326 l 1
 197 46 l 1
 465 46 l 1
 479 62 l 1
 496 163 l 1
 548 163 l 1
 548 0 l 1
 33 0 l 1xfa
EndSplineSet
EndChar

StartChar: F
Encoding: 70 70 38
Width: 537
Flags: HMW
HStem: 0 41<33 33 33 285> 316 46<197 361 197 361> 625 46<90 90 197 197 197 422>
VStem: 107 90<60 316 362 611 611 611> 385 47<228 449 228 449> 450 55<515 671>
LayerCount: 2
Back
SplineSet
33 0 m 1
 33 41 l 1
 90 46 l 1
 107 60 l 1
 107 611 l 1
 90 625 l 1
 25 631 l 1
 25 671 l 1
 505 671 l 1
 505 515 l 1
 450 515 l 1
 435 610 l 1
 422 625 l 1
 197 625 l 1
 197 362 l 1
 361 362 l 1
 375 376 l 1
 385 449 l 1
 432 449 l 1
 432 228 l 1
 385 228 l 1
 375 301 l 1
 361 316 l 1
 197 316 l 1
 197 60 l 1
 214 46 l 1
 285 41 l 1
 285 0 l 1
 33 0 l 1
EndSplineSet
Fore
SplineSet
25 631 m 1
 25 671 l 1
 505 671 l 1
 505 515 l 1
 450 515 l 1
 435 610 l 1
 422 625 l 1
 197 625 l 1
 197 362 l 1
 361 362 l 1
 375 376 l 1
 385 449 l 1
 432 449 l 1
 432 228 l 1
 385 228 l 1
 375 301 l 1
 361 316 l 1
 197 316 l 1
 197 60 l 1
 214 46 l 1
 285 41 l 1
 285 0 l 1
 33 0 l 1
 33 41 l 1
 90 46 l 1
 107 60 l 1
 107 611 l 1
 90 625 l 1
 25 631 l 1
EndSplineSet
EndChar

StartChar: G
Encoding: 71 71 39
Width: 694
Flags: HW
HStem: -12 53<354.5 417.5> 281 41<417 667 417 667> 630 53<318.5 415>
VStem: 43 103<270.5 433 248.5 441.5> 505 90<54 262 23 262> 538 56<495 654>
LayerCount: 2
Back
SplineSet
417 322 m 1xf8
 667 322 l 1
 667 281 l 1
 612 276 l 1
 595 262 l 1
 595 23 l 1xf8
 516 0 447 -12 388 -12 c 0
 321 -12 262 2 216 28 c 0
 108 89 43 205 43 336 c 0
 43 547 181 683 402 683 c 0
 463 683 528 673 594 654 c 1
 594 495 l 1
 538 495 l 1xb4
 523 586 l 1
 509 604 l 1
 472 621 435 630 395 630 c 0
 242 630 146 523 146 343 c 0
 146 154 246 41 403 41 c 0
 432 41 466 45 505 54 c 1
 505 262 l 1
 488 276 l 1
 417 281 l 1
 417 322 l 1xf8
EndSplineSet
Fore
SplineSet
43 336 m 0
 43 547 181 683 402 683 c 0
 463 683 528 673 594 654 c 1
 594 495 l 1
 538 495 l 1xb4
 523 586 l 1
 509 604 l 1
 472 621 435 630 395 630 c 0
 242 630 146 523 146 343 c 0
 146 154 246 41 403 41 c 0
 432 41 466 45 505 54 c 1
 505 262 l 1
 488 276 l 1
 417 281 l 1
 417 322 l 1xf8
 667 322 l 1
 667 281 l 1
 612 276 l 1
 595 262 l 1
 595 23 l 1xf8
 516 0 447 -12 388 -12 c 0
 321 -12 262 2 216 28 c 0
 108 89 43 205 43 336 c 0
EndSplineSet
EndChar

StartChar: H
Encoding: 72 72 40
Width: 738
Flags: HMW
HStem: 0 41<33 276 33 33> 329 46<197 541 197 541> 631 40<33 276 33 276>
VStem: 107 90<60 329 375 611> 541 90<60 329 329 329 375 611 60 611>
LayerCount: 2
Back
SplineSet
33 671 m 1
 276 671 l 1
 276 631 l 1
 214 625 l 1
 197 611 l 1
 197 375 l 1
 541 375 l 1
 541 611 l 1
 524 625 l 1
 462 631 l 1
 462 671 l 1
 705 671 l 1
 705 631 l 1
 648 625 l 1
 631 611 l 1
 631 60 l 1
 648 46 l 1
 705 41 l 1
 705 0 l 1
 462 0 l 1
 462 41 l 1
 524 46 l 1
 541 60 l 1
 541 329 l 1
 197 329 l 1
 197 60 l 1
 214 46 l 1
 276 41 l 1
 276 0 l 1
 33 0 l 1
 33 41 l 1
 90 46 l 1
 107 60 l 1
 107 611 l 1
 90 625 l 1
 33 631 l 1
 33 671 l 1
EndSplineSet
Fore
SplineSet
33 0 m 1
 33 41 l 1
 90 46 l 1
 107 60 l 1
 107 611 l 1
 90 625 l 1
 33 631 l 1
 33 671 l 1
 276 671 l 1
 276 631 l 1
 214 625 l 1
 197 611 l 1
 197 375 l 1
 541 375 l 1
 541 611 l 1
 524 625 l 1
 462 631 l 1
 462 671 l 1
 705 671 l 1
 705 631 l 1
 648 625 l 1
 631 611 l 1
 631 60 l 1
 648 46 l 1
 705 41 l 1
 705 0 l 1
 462 0 l 1
 462 41 l 1
 524 46 l 1
 541 60 l 1
 541 329 l 1
 197 329 l 1
 197 60 l 1
 214 46 l 1
 276 41 l 1
 276 0 l 1
 33 0 l 1
EndSplineSet
EndChar

StartChar: I
Encoding: 73 73 41
Width: 324
Flags: HMW
HStem: 0 41<35 35 35 288> 631 40<35 288 35 288>
VStem: 116 91<60 611 60 611>
LayerCount: 2
Back
SplineSet
35 0 m 1
 35 41 l 1
 99 46 l 1
 116 60 l 1
 116 611 l 1
 99 625 l 1
 35 631 l 1
 35 671 l 1
 288 671 l 1
 288 631 l 1
 224 625 l 1
 207 611 l 1
 207 60 l 1
 224 46 l 1
 288 41 l 1
 288 0 l 1
 35 0 l 1
EndSplineSet
Fore
SplineSet
35 0 m 1
 35 41 l 1
 99 46 l 1
 116 60 l 1
 116 611 l 1
 99 625 l 1
 35 631 l 1
 35 671 l 1
 288 671 l 1
 288 631 l 1
 224 625 l 1
 207 611 l 1
 207 60 l 1
 224 46 l 1
 288 41 l 1
 288 0 l 1
 35 0 l 1
EndSplineSet
EndChar

StartChar: J
Encoding: 74 74 42
Width: 444
Flags: HMW
HStem: -12 48<136 188.5 136 219.5> 631 40<187 440 187 440>
VStem: 12 56<12 179 179 179> 271 90<252 256 256 611>
LayerCount: 2
Back
SplineSet
271 611 m 1
 254 625 l 1
 187 631 l 1
 187 671 l 1
 440 671 l 1
 440 631 l 1
 378 625 l 1
 361 611 l 1
 361 256 l 2
 361 75 296 -12 143 -12 c 0
 101 -12 58 -4 12 12 c 1
 12 179 l 1
 68 179 l 1
 92 53 l 1
 106 40 l 1
 119 37 131 36 141 36 c 0
 236 36 271 107 271 252 c 2
 271 611 l 1
EndSplineSet
Fore
SplineSet
12 12 m 1
 12 179 l 1
 68 179 l 1
 92 53 l 1
 106 40 l 1
 119 37 131 36 141 36 c 0
 236 36 271 107 271 252 c 2
 271 611 l 1
 254 625 l 1
 187 631 l 1
 187 671 l 1
 440 671 l 1
 440 631 l 1
 378 625 l 1
 361 611 l 1
 361 256 l 2
 361 75 296 -12 143 -12 c 0
 101 -12 58 -4 12 12 c 1
EndSplineSet
EndChar

StartChar: K
Encoding: 75 75 43
Width: 611
Flags: MW
HStem: 0 41<33 33 33 276> 299 41<197 235 197 271 197 235> 631 40<33 276 33 276>
VStem: 107 90<60 299 340 611>
DStem2: 235 340 327 372 0.633704 0.773576<83.0552 350.321> 327 372 271 299 0.571433 -0.820649<27.9071 357.805>
LayerCount: 2
Back
SplineSet
33 0 m 1
 33 41 l 1
 90 46 l 1
 107 60 l 1
 107 611 l 1
 90 625 l 1
 33 631 l 1
 33 671 l 1
 276 671 l 1
 276 631 l 1
 214 625 l 1
 197 611 l 1
 197 340 l 1
 235 340 l 1
 457 611 l 1
 451 625 l 1
 395 631 l 1
 395 671 l 1
 603 671 l 1
 603 631 l 1
 537 622 l 1
 327 372 l 1
 554 46 l 1
 627 41 l 1
 627 0 l 1
 462 0 l 1
 462 30 l 1
 271 299 l 1
 197 299 l 1
 197 60 l 1
 214 46 l 1
 276 41 l 1
 276 0 l 1
 33 0 l 1
EndSplineSet
Fore
SplineSet
33 0 m 1
 33 41 l 1
 90 46 l 1
 107 60 l 1
 107 611 l 1
 90 625 l 1
 33 631 l 1
 33 671 l 1
 276 671 l 1
 276 631 l 1
 214 625 l 1
 197 611 l 1
 197 340 l 1
 235 340 l 1
 457 611 l 1
 451 625 l 1
 395 631 l 1
 395 671 l 1
 603 671 l 1
 603 631 l 1
 537 622 l 1
 327 372 l 1
 554 46 l 1
 627 41 l 1
 627 0 l 1
 462 0 l 1
 462 30 l 1
 271 299 l 1
 197 299 l 1
 197 60 l 1
 214 46 l 1
 276 41 l 1
 276 0 l 1
 33 0 l 1
EndSplineSet
EndChar

StartChar: L
Encoding: 76 76 44
Width: 520
Flags: HMW
HStem: 0 46<90 90 197 423> 631 40<27 271 27 271>
VStem: 107 90<60 611 46 611> 454 52<0 182>
LayerCount: 2
Back
SplineSet
27 0 m 1
 27 41 l 1
 90 46 l 1
 107 60 l 1
 107 611 l 1
 90 625 l 1
 27 631 l 1
 27 671 l 1
 271 671 l 1
 271 631 l 1
 214 625 l 1
 197 611 l 1
 197 46 l 1
 423 46 l 1
 437 62 l 1
 454 182 l 1
 506 182 l 1
 506 0 l 1
 27 0 l 1
EndSplineSet
Fore
SplineSet
27 0 m 1
 27 41 l 1
 90 46 l 1
 107 60 l 1
 107 611 l 1
 90 625 l 1
 27 631 l 1
 27 671 l 1
 271 671 l 1
 271 631 l 1
 214 625 l 1
 197 611 l 1
 197 46 l 1
 423 46 l 1
 437 62 l 1
 454 182 l 1
 506 182 l 1
 506 0 l 1
 27 0 l 1
EndSplineSet
EndChar

StartChar: M
Encoding: 77 77 45
Width: 866
Flags: MW
HStem: 0 41<31 31 31 242> 631 40<30 242>
VStem: 109 54<68 611 611 611> 671 88<60 611 60 624 60 624>
DStem2: 242 644 163 614 0.34811 -0.937454<0.622933 536.046> 430 142 434 0 0.355061 0.934843<0 533.013>
LayerCount: 2
Back
SplineSet
79 631 m 1
 79 671 l 1
 312 671 l 1
 312 631 l 1
 254 625 l 1
 243 611 l 1
 431 107 l 1
 612 611 l 1
 602 625 l 1
 540 631 l 1
 540 671 l 1
 739 671 l 1
 739 631 l 1
 677 619 l 1
 447 -5 l 1
 378 -5 l 1
 143 619 l 1
 79 631 l 1
31 0 m 1
 31 41 l 1
 91 49 l 1
 109 68 l 1
 109 611 l 1
 96 625 l 1
 30 631 l 1
 30 671 l 1
 242 671 l 1
 242 644 l 1
 430 142 l 1
 620 640 l 1
 620 671 l 1
 834 671 l 1
 834 631 l 1
 771 625 l 1
 759 611 l 1
 759 60 l 1
 771 46 l 1
 834 41 l 1
 834 0 l 1
 595 0 l 1
 595 41 l 1
 661 46 l 1
 671 60 l 1
 671 624 l 1
 434 0 l 1
 391 0 l 1
 163 614 l 1
 163 68 l 1
 181 49 l 1
 242 41 l 1
 242 0 l 1
 31 0 l 1
EndSplineSet
Fore
SplineSet
30 631 m 1
 30 671 l 1
 242 671 l 1
 242 644 l 1
 430 142 l 1
 620 640 l 1
 620 671 l 1
 834 671 l 1
 834 631 l 1
 771 625 l 1
 759 611 l 1
 759 60 l 1
 771 46 l 1
 834 41 l 1
 834 0 l 1
 595 0 l 1
 595 41 l 1
 661 46 l 1
 671 60 l 1
 671 624 l 1
 434 0 l 1
 391 0 l 1
 163 614 l 1
 163 68 l 1
 181 49 l 1
 242 41 l 1
 242 0 l 1
 31 0 l 1
 31 41 l 1
 91 49 l 1
 109 68 l 1
 109 611 l 1
 96 625 l 1
 30 631 l 1
EndSplineSet
EndChar

StartChar: N
Encoding: 78 78 46
Width: 713
Flags: MW
HStem: 0 41<29 29 29 240> 631 40<26 214>
VStem: 108 54<68 568 68 611 68 611> 555 54<134 604 0 604>
DStem2: 214 646 162 568 0.55706 -0.830472<35.8097 615.159>
LayerCount: 2
Back
SplineSet
29 0 m 1
 29 41 l 1
 90 49 l 1
 108 68 l 1
 108 611 l 1
 90 625 l 1
 26 631 l 1
 26 671 l 1
 214 671 l 1
 214 646 l 1
 555 134 l 1
 555 604 l 1
 537 622 l 1
 477 631 l 1
 477 671 l 1
 687 671 l 1
 687 631 l 1
 627 622 l 1
 609 604 l 1
 609 0 l 1
 543 0 l 1
 162 568 l 1
 162 68 l 1
 180 49 l 1
 240 41 l 1
 240 0 l 1
 29 0 l 1
EndSplineSet
Fore
SplineSet
26 631 m 1
 26 671 l 1
 214 671 l 1
 214 646 l 1
 555 134 l 1
 555 604 l 1
 537 622 l 1
 477 631 l 1
 477 671 l 1
 687 671 l 1
 687 631 l 1
 627 622 l 1
 609 604 l 1
 609 0 l 1
 543 0 l 1
 162 568 l 1
 162 68 l 1
 180 49 l 1
 240 41 l 1
 240 0 l 1
 29 0 l 1
 29 41 l 1
 90 49 l 1
 108 68 l 1
 108 611 l 1
 90 625 l 1
 26 631 l 1
EndSplineSet
EndChar

StartChar: O
Encoding: 79 79 47
Width: 731
Flags: HMW
HStem: -16 53<323.5 424> 634 54<323 409 323 430.5>
VStem: 43 104<281.5 390.5> 584 105<299 390.5 299 429>
LayerCount: 2
Back
SplineSet
366 688 m 0
 452 688 526 658 586 600 c 0
 653 535 689 445 689 336 c 0
 689 262 672 196 638 138 c 0
 582 42 482 -16 366 -16 c 0
 281 -16 204 14 146 70 c 0
 78 136 43 227 43 336 c 0
 43 445 78 535 145 600 c 0
 205 658 280 688 366 688 c 0
366 634 m 0
 236 634 147 524 147 336 c 0
 147 150 236 37 366 37 c 0
 495 37 584 150 584 336 c 0
 584 522 495 634 366 634 c 0
EndSplineSet
Fore
SplineSet
43 336 m 0
 43 445 78 535 145 600 c 0
 205 658 280 688 366 688 c 0
 452 688 526 658 586 600 c 0
 653 535 689 445 689 336 c 0
 689 262 672 196 638 138 c 0
 582 42 482 -16 366 -16 c 0
 281 -16 204 14 146 70 c 0
 78 136 43 227 43 336 c 0
147 336 m 0
 147 150 236 37 366 37 c 0
 495 37 584 150 584 336 c 0
 584 522 495 634 366 634 c 0
 236 634 147 524 147 336 c 0
EndSplineSet
EndChar

StartChar: P
Encoding: 80 80 48
Width: 558
Flags: HMW
HStem: 0 41<33 33 33 285> 252 48<262.5 320 255.5 352.5> 625 46<90 90 241 253 253 313>
VStem: 107 90<60 257 305 611 611 611> 438 93<414 522.5>
LayerCount: 2
Back
SplineSet
33 0 m 1
 33 41 l 1
 90 46 l 1
 107 60 l 1
 107 611 l 1
 90 625 l 1
 25 631 l 1
 25 671 l 1
 253 671 l 2
 445 671 531 619 531 467 c 0
 531 339 433 252 272 252 c 0
 253 252 228 254 197 257 c 1
 197 60 l 1
 214 46 l 1
 285 41 l 1
 285 0 l 1
 33 0 l 1
197 305 m 1
 226 302 248 300 263 300 c 0
 377 300 438 359 438 469 c 0
 438 576 377 625 249 625 c 0
 233 625 215 625 197 623 c 1
 197 305 l 1
EndSplineSet
Fore
SplineSet
25 631 m 1
 25 671 l 1
 253 671 l 2
 445 671 531 619 531 467 c 4
 531 339 433 252 272 252 c 0
 253 252 228 254 197 257 c 1
 197 60 l 1
 214 46 l 1
 285 41 l 1
 285 0 l 1
 33 0 l 1
 33 41 l 1
 90 46 l 1
 107 60 l 1
 107 611 l 1
 90 625 l 1
 25 631 l 1
197 305 m 1
 226 302 248 300 263 300 c 0
 377 300 438 359 438 469 c 0
 438 576 377 625 249 625 c 0
 233 625 215 625 197 623 c 1
 197 305 l 1
EndSplineSet
EndChar

StartChar: Q
Encoding: 81 81 49
Width: 731
Flags: HMW
HStem: -176 46<510 529.5> -11 50 635 54<323 409 323 432>
VStem: 39 106<244.5 391.5> 587 106<244.5 391.5 243.5 430>
LayerCount: 2
Back
SplineSet
414 -11 m 1
 417 -90 464 -130 556 -130 c 0
 583 -130 614 -127 650 -119 c 1
 650 -160 l 1
 597 -171 550 -176 509 -176 c 0
 382 -176 319 -123 319 -11 c 1
 147 15 39 149 39 337 c 0
 39 446 75 537 144 602 c 0
 204 659 280 689 366 689 c 0
 452 689 529 659 589 602 c 0
 657 537 693 446 693 337 c 0
 693 150 586 17 414 -11 c 1
366 39 m 0
 498 39 587 152 587 337 c 0
 587 523 498 635 366 635 c 0
 234 635 145 525 145 337 c 0
 145 152 235 39 366 39 c 0
EndSplineSet
Fore
SplineSet
39 337 m 0
 39 446 75 537 144 602 c 0
 204 659 280 689 366 689 c 0
 452 689 529 659 589 602 c 0
 657 537 693 446 693 337 c 0
 693 150 586 17 414 -11 c 1
 417 -90 464 -130 556 -130 c 0
 583 -130 614 -127 650 -119 c 1
 650 -160 l 1
 597 -171 550 -176 509 -176 c 0
 382 -176 319 -123 319 -11 c 1
 147 15 39 149 39 337 c 0
145 337 m 0
 145 152 235 39 366 39 c 0
 498 39 587 152 587 337 c 0
 587 523 498 635 366 635 c 0
 234 635 145 525 145 337 c 0
EndSplineSet
EndChar

StartChar: R
Encoding: 82 82 50
Width: 646
Flags: HMW
HStem: 0 39 300 45<249 292.5> 625 46<90 90 197 245 197 197>
VStem: 107 90<60 298 60 346 346 611 611 611> 429 100<448 535>
LayerCount: 2
Back
SplineSet
33 671 m 1
 288 671 l 2
 450 671 529 614 529 491 c 0
 529 405 475 349 367 325 c 1
 416 312 450 291 470 258 c 0
 498 212 499 157 517 110 c 0
 539 51 571 39 647 39 c 0
 650 39 653 39 656 39 c 1
 656 1 l 1
 626 -5 601 -8 578 -8 c 0
 533 -8 500 1 477 21 c 0
 429 63 425 128 404 192 c 0
 377 274 338 300 247 300 c 0
 232 300 215 299 197 298 c 1
 197 60 l 1
 214 46 l 1
 271 41 l 1
 271 0 l 1
 33 0 l 1
 33 41 l 1
 90 46 l 1
 107 60 l 1
 107 611 l 1
 90 625 l 1
 33 631 l 1
 33 671 l 1
197 625 m 1
 197 346 l 1
 228 345 246 345 252 345 c 0
 372 345 429 384 429 483 c 0
 429 587 369 625 245 625 c 2
 197 625 l 1
EndSplineSet
Fore
SplineSet
33 0 m 1
 33 41 l 1
 90 46 l 1
 107 60 l 1
 107 611 l 1
 90 625 l 1
 33 631 l 1
 33 671 l 1
 288 671 l 2
 450 671 529 614 529 491 c 0
 529 405 475 349 367 325 c 1
 416 312 450 291 470 258 c 0
 498 212 499 157 517 110 c 0
 539 51 571 39 647 39 c 0
 650 39 653 39 656 39 c 1
 656 1 l 1
 626 -5 601 -8 578 -8 c 0
 533 -8 500 1 477 21 c 0
 429 63 425 128 404 192 c 0
 377 274 338 300 247 300 c 0
 232 300 215 299 197 298 c 1
 197 60 l 1
 214 46 l 1
 271 41 l 1
 271 0 l 1
 33 0 l 1
197 346 m 1
 228 345 246 345 252 345 c 0
 372 345 429 384 429 483 c 0
 429 587 369 625 245 625 c 2
 197 625 l 1
 197 346 l 1
EndSplineSet
EndChar

StartChar: S
Encoding: 83 83 51
Width: 556
Flags: HW
HStem: -12 53<233.5 304.5 233.5 320> 633 50<257.5 317.5>
VStem: 60 59<20 196 196 196> 71 93<478.5 547.5> 407 92<130 202.5> 420 52<500 655>
LayerCount: 2
Back
SplineSet
60 20 m 1xa8
 60 196 l 1
 119 196 l 1
 131 81 l 1
 144 64 l 1
 173 49 211 41 256 41 c 0
 353 41 407 91 407 161 c 0xa8
 407 244 349 262 240 309 c 0
 129 357 71 394 71 491 c 0
 71 604 160 683 302 683 c 0
 357 683 413 674 472 655 c 1
 472 500 l 1
 420 500 l 1
 405 595 l 1
 390 612 l 1
 365 626 335 633 300 633 c 0
 215 633 164 585 164 512 c 0x54
 164 445 212 420 304 381 c 0
 355 360 409 344 455 299 c 0
 484 270 499 233 499 189 c 0
 499 71 400 -12 240 -12 c 0
 168 -12 106 0 60 20 c 1xa8
EndSplineSet
Fore
SplineSet
60 20 m 1xa8
 60 196 l 1
 119 196 l 1
 131 81 l 1
 144 64 l 1
 173 49 211 41 256 41 c 0
 353 41 407 91 407 161 c 0xa8
 407 244 349 262 240 309 c 0
 129 357 71 394 71 491 c 0
 71 604 160 683 302 683 c 0
 357 683 413 674 472 655 c 1
 472 500 l 1
 420 500 l 1
 405 595 l 1
 390 612 l 1
 365 626 335 633 300 633 c 0
 215 633 164 585 164 512 c 0x54
 164 445 212 420 304 381 c 0
 355 360 409 344 455 299 c 0
 484 270 499 233 499 189 c 0
 499 71 400 -12 240 -12 c 0
 168 -12 106 0 60 20 c 1xa8
EndSplineSet
EndChar

StartChar: T
Encoding: 84 84 52
Width: 597
Flags: HMW
HStem: 0 41<168 429 168 168> 625 46<99 253 99 99 344 498 344 344>
VStem: 16 55<517 671> 253 91<60 625 60 625> 526 55<517 671>
LayerCount: 2
Back
SplineSet
16 671 m 1
 581 671 l 1
 581 517 l 1
 526 517 l 1
 512 610 l 1
 498 625 l 1
 344 625 l 1
 344 60 l 1
 362 46 l 1
 429 41 l 1
 429 0 l 1
 168 0 l 1
 168 41 l 1
 235 46 l 1
 253 60 l 1
 253 625 l 1
 99 625 l 1
 85 610 l 1
 71 517 l 1
 16 517 l 1
 16 671 l 1
EndSplineSet
Fore
SplineSet
16 517 m 1
 16 671 l 1
 581 671 l 1
 581 517 l 1
 526 517 l 1
 512 610 l 1
 498 625 l 1
 344 625 l 1
 344 60 l 1
 362 46 l 1
 429 41 l 1
 429 0 l 1
 168 0 l 1
 168 41 l 1
 235 46 l 1
 253 60 l 1
 253 625 l 1
 99 625 l 1
 85 610 l 1
 71 517 l 1
 16 517 l 1
EndSplineSet
EndChar

StartChar: U
Encoding: 85 85 53
Width: 694
Flags: HMW
HStem: -12 62<305 397.5> 631 40<25 270 25 270>
VStem: 99 91<240 249 249 611> 547 54<249 604>
LayerCount: 2
Back
SplineSet
25 671 m 1
 270 671 l 1
 270 631 l 1
 208 625 l 1
 190 611 l 1
 190 249 l 2
 190 113 241 50 369 50 c 0
 495 50 547 113 547 249 c 2
 547 604 l 1
 528 622 l 1
 468 631 l 1
 468 671 l 1
 679 671 l 1
 679 631 l 1
 619 622 l 1
 601 604 l 1
 601 240 l 2
 601 167 596 111 557 64 c 0
 519 18 445 -12 350 -12 c 0
 255 -12 181 18 143 64 c 0
 104 111 99 166 99 240 c 2
 99 611 l 1
 82 625 l 1
 25 631 l 1
 25 671 l 1
EndSplineSet
Fore
SplineSet
25 631 m 1
 25 671 l 1
 270 671 l 1
 270 631 l 1
 208 625 l 1
 190 611 l 1
 190 249 l 2
 190 113 241 50 369 50 c 0
 495 50 547 113 547 249 c 2
 547 604 l 1
 528 622 l 1
 468 631 l 1
 468 671 l 1
 679 671 l 1
 679 631 l 1
 619 622 l 1
 601 604 l 1
 601 240 l 2
 601 167 596 111 557 64 c 0
 519 18 445 -12 350 -12 c 0
 255 -12 181 18 143 64 c 0
 104 111 99 166 99 240 c 2
 99 611 l 1
 82 625 l 1
 25 631 l 1
EndSplineSet
EndChar

StartChar: V
Encoding: 86 86 54
Width: 618
Flags: MW
HStem: -5 20 631 40<-23 210 -23 210>
VStem: -23 660<631 671 631 671>
DStem2: 141 611 41 619 0.352438 -0.935835<0 537.919> 329 107 345 -5 0.345845 0.938292<0 535.497>
LayerCount: 2
Back
SplineSet
-23 671 m 1
 210 671 l 1
 210 631 l 1
 152 625 l 1
 141 611 l 1
 329 107 l 1
 510 611 l 1
 500 625 l 1
 438 631 l 1
 438 671 l 1
 637 671 l 1
 637 631 l 1
 575 619 l 1
 345 -5 l 1
 276 -5 l 1
 41 619 l 1
 -23 631 l 1
 -23 671 l 1
EndSplineSet
Fore
SplineSet
-23 631 m 1
 -23 671 l 1
 210 671 l 1
 210 631 l 1
 152 625 l 1
 141 611 l 1
 329 107 l 1
 510 611 l 1
 500 625 l 1
 438 631 l 1
 438 671 l 1
 637 671 l 1
 637 631 l 1
 575 619 l 1
 345 -5 l 1
 276 -5 l 1
 41 619 l 1
 -23 631 l 1
EndSplineSet
EndChar

StartChar: W
Encoding: 87 87 55
Width: 928
Flags: MW
HStem: 0 20 631 40<0 224 0 224>
VStem: 0 927<631 671 631 671>
DStem2: 153 609 63 617 0.26272 -0.964872<0 479.662> 282 147 298 0 0.290396 0.956907<0 435.615> 513 671 464 547 0.29519 -0.955438<104.01 559.571> 677 136 701 0 0.249546 0.968363<0 484.357>
LayerCount: 2
Back
SplineSet
231 0 m 1
 63 617 l 1
 0 631 l 1
 0 671 l 1
 224 671 l 1
 224 631 l 1
 161 623 l 1
 153 609 l 1
 282 147 l 1
 443 671 l 1
 513 671 l 1
 677 136 l 1
 798 605 l 1
 787 619 l 1
 720 631 l 1
 720 671 l 1
 927 671 l 1
 927 631 l 1
 860 617 l 1
 701 0 l 1
 633 0 l 1
 464 547 l 1
 298 0 l 1
 231 0 l 1
EndSplineSet
Fore
SplineSet
0 631 m 1
 0 671 l 1
 224 671 l 1
 224 631 l 1
 161 623 l 1
 153 609 l 1
 282 147 l 1
 443 671 l 1
 513 671 l 1
 677 136 l 1
 798 605 l 1
 787 619 l 1
 720 631 l 1
 720 671 l 1
 927 671 l 1
 927 631 l 1
 860 617 l 1
 701 0 l 1
 633 0 l 1
 464 547 l 1
 298 0 l 1
 231 0 l 1
 63 617 l 1
 0 631 l 1
EndSplineSet
EndChar

StartChar: X
Encoding: 88 88 56
Width: 600
Flags: MW
HStem: 0 41<-9 204 -9 -9> 631 40<11 252 11 252>
VStem: -9 618<0 41 0 41>
DStem2: 57 54 131 65 0.583034 0.812448<52.0814 326.189 437.217 684.122> 184 613 77 618 0.537557 -0.843227<0 244.125 329.649 596.857>
LayerCount: 2
Back
SplineSet
11 671 m 1
 252 671 l 1
 252 631 l 1
 192 625 l 1
 184 613 l 1
 315 407 l 1
 457 609 l 1
 448 622 l 1
 390 631 l 1
 390 671 l 1
 594 671 l 1
 594 631 l 1
 530 621 l 1
 347 360 l 1
 541 53 l 1
 609 41 l 1
 609 0 l 1
 356 0 l 1
 356 41 l 1
 423 48 l 1
 430 62 l 1
 289 289 l 1
 131 65 l 1
 137 47 l 1
 204 41 l 1
 204 0 l 1
 -9 0 l 1
 -9 41 l 1
 57 54 l 1
 258 335 l 1
 77 618 l 1
 11 631 l 1
 11 671 l 1
EndSplineSet
Fore
SplineSet
-9 0 m 1
 -9 41 l 1
 57 54 l 1
 258 335 l 1
 77 618 l 1
 11 631 l 1
 11 671 l 1
 252 671 l 1
 252 631 l 1
 192 625 l 1
 184 613 l 1
 315 407 l 1
 457 609 l 1
 448 622 l 1
 390 631 l 1
 390 671 l 1
 594 671 l 1
 594 631 l 1
 530 621 l 1
 347 360 l 1
 541 53 l 1
 609 41 l 1
 609 0 l 1
 356 0 l 1
 356 41 l 1
 423 48 l 1
 430 62 l 1
 289 289 l 1
 131 65 l 1
 137 47 l 1
 204 41 l 1
 204 0 l 1
 -9 0 l 1
EndSplineSet
EndChar

StartChar: Y
Encoding: 89 89 57
Width: 586
Flags: MW
HStem: 0 41<163 422 163 163> 631 40<-13 219 -13 219>
VStem: 247 91<60 272 272 272>
DStem2: 152 614 48 621 0.495335 -0.868702<0 314.679> 305 339 338 285 0.52977 0.848141<0 315.455>
LayerCount: 2
Back
SplineSet
-13 671 m 1
 219 671 l 1
 219 631 l 1
 162 625 l 1
 152 614 l 1
 305 339 l 1
 473 606 l 1
 464 620 l 1
 403 631 l 1
 403 671 l 1
 607 671 l 1
 607 631 l 1
 546 618 l 1
 338 285 l 1
 338 60 l 1
 354 46 l 1
 422 41 l 1
 422 0 l 1
 163 0 l 1
 163 41 l 1
 231 46 l 1
 247 60 l 1
 247 272 l 1
 48 621 l 1
 -13 631 l 1
 -13 671 l 1
EndSplineSet
Fore
SplineSet
-13 631 m 1
 -13 671 l 1
 219 671 l 1
 219 631 l 1
 162 625 l 1
 152 614 l 1
 305 339 l 1
 473 606 l 1
 464 620 l 1
 403 631 l 1
 403 671 l 1
 607 671 l 1
 607 631 l 1
 546 618 l 1
 338 285 l 1
 338 60 l 1
 354 46 l 1
 422 41 l 1
 422 0 l 1
 163 0 l 1
 163 41 l 1
 231 46 l 1
 247 60 l 1
 247 272 l 1
 48 621 l 1
 -13 631 l 1
EndSplineSet
EndChar

StartChar: Z
Encoding: 90 90 58
Width: 586
Flags: MW
HStem: 0 49<154 456 154 539> 623 48<157 424 157 157>
VStem: 45 494<0 41 41 41> 67 55<516 671> 485 54<0 181>
DStem2: 45 41 154 49 0.545697 0.837983<66.1848 694.525>
LayerCount: 2
Back
SplineSet
67 671 m 1xd8
 534 671 l 1
 534 629 l 1
 154 49 l 1
 456 49 l 1
 467 62 l 1
 485 181 l 1xd8
 539 181 l 1
 539 0 l 1
 45 0 l 1
 45 41 l 1xa0
 424 623 l 1
 157 623 l 1
 138 610 l 1
 122 516 l 1
 67 516 l 1
 67 671 l 1xd8
EndSplineSet
Fore
SplineSet
45 0 m 1
 45 41 l 5xa0
 424 623 l 5
 157 623 l 1
 138 610 l 1
 122 516 l 1
 67 516 l 1
 67 671 l 1xd8
 534 671 l 1
 534 629 l 5
 154 49 l 5
 456 49 l 1
 467 62 l 1
 485 181 l 1xd8
 539 181 l 1
 539 0 l 1
 45 0 l 1
EndSplineSet
EndChar

StartChar: bracketleft
Encoding: 91 91 59
Width: 421
Flags: HMW
HStem: -132 42<218 376 218 376> 665 43<218 376 218 218>
VStem: 139 79<-90 665 -90 708 -90 708>
LayerCount: 2
Back
SplineSet
139 708 m 1
 376 708 l 1
 376 665 l 1
 218 665 l 1
 218 -90 l 1
 376 -90 l 1
 376 -132 l 1
 139 -132 l 1
 139 708 l 1
EndSplineSet
Fore
SplineSet
139 -132 m 1
 139 708 l 1
 376 708 l 1
 376 665 l 1
 218 665 l 1
 218 -90 l 1
 376 -90 l 1
 376 -132 l 1
 139 -132 l 1
EndSplineSet
EndChar

StartChar: backslash
Encoding: 92 92 60
Width: 481
Flags: HMW
HStem: -93 764<13 502 13 441>
VStem: 13 489
LayerCount: 2
Back
SplineSet
13 671 m 1
 74 671 l 1
 502 -93 l 1
 441 -93 l 1
 13 671 l 1
EndSplineSet
Fore
SplineSet
13 671 m 1
 74 671 l 1
 502 -93 l 1
 441 -93 l 1
 13 671 l 1
EndSplineSet
EndChar

StartChar: bracketright
Encoding: 93 93 61
Width: 421
Flags: HMW
HStem: -133 43<46 204 46 282 46 204> 665 43<46 204 46 282>
VStem: 204 78<-90 665 665 665>
LayerCount: 2
Back
SplineSet
46 708 m 1
 282 708 l 1
 282 -133 l 1
 46 -133 l 1
 46 -90 l 1
 204 -90 l 1
 204 665 l 1
 46 665 l 1
 46 708 l 1
EndSplineSet
Fore
SplineSet
46 -90 m 1
 204 -90 l 1
 204 665 l 1
 46 665 l 1
 46 708 l 1
 282 708 l 1
 282 -133 l 1
 46 -133 l 1
 46 -90 l 1
EndSplineSet
EndChar

StartChar: asciicircum
Encoding: 94 94 62
Width: 1000
Flags: HMW
HStem: 438 276<201 543 201 543 456 797 456 752>
VStem: 201 596<438 438>
LayerCount: 2
Back
SplineSet
456 714 m 1
 543 714 l 1
 797 438 l 1
 752 438 l 1
 499 651 l 1
 245 438 l 1
 201 438 l 1
 456 714 l 1
EndSplineSet
Fore
SplineSet
201 438 m 1
 456 714 l 1
 543 714 l 1
 797 438 l 1
 752 438 l 1
 499 651 l 1
 245 438 l 1
 201 438 l 1
EndSplineSet
EndChar

StartChar: underscore
Encoding: 95 95 63
Width: 500
Flags: HMW
HStem: -236 58<0 500 0 500>
VStem: 0 500<-236 -178 -236 -178>
LayerCount: 2
Back
SplineSet
0 -178 m 1
 500 -178 l 1
 500 -236 l 1
 0 -236 l 1
 0 -178 l 1
EndSplineSet
Fore
SplineSet
0 -178 m 1
 500 -178 l 1
 500 -236 l 1
 0 -236 l 1
 0 -178 l 1
EndSplineSet
EndChar

StartChar: quoteleft
Encoding: 8216 8216 64
Width: 201
Flags: HMW
HStem: 442 271<89.5 174>
VStem: 35 138<506 506.5 484 563>
LayerCount: 2
Back
SplineSet
131 713 m 1
 174 713 l 1
 121 654 94 605 94 559 c 0
 94 551 94 544 96 536 c 1
 160 536 l 1
 169 523 173 512 173 501 c 0
 173 467 149 442 113 442 c 0
 66 442 35 478 35 534 c 0
 35 592 67 652 131 713 c 1
EndSplineSet
Fore
SplineSet
35 534 m 0
 35 592 67 652 131 713 c 1
 174 713 l 1
 121 654 94 605 94 559 c 0
 94 551 94 544 96 536 c 1
 160 536 l 1
 169 523 173 512 173 501 c 0
 173 467 149 442 113 442 c 0
 66 442 35 478 35 534 c 0
EndSplineSet
EndChar

StartChar: a
Encoding: 97 97 65
Width: 507
Flags: W
HStem: -7 54<152.3 258.61> 0 36<435 488> 268 35<280.584 334> 447 44<168.473 309.774>
VStem: 42 88<69.4922 187.306> 66 100<347.551 431.239> 334 83<80.5452 268 298.55 422.01>
LayerCount: 2
Back
SplineSet
334 58 m 1x7c
 271 15 218 -7 170 -7 c 0xac
 91 -7 42 46 42 121 c 0
 42 225 134 255 334 303 c 1
 334 335 l 2
 334 414 314 447 242 447 c 0
 217 447 193 442 166 431 c 1
 166 347 l 1
 97 347 l 2
 74 347 66 354 66 378 c 0
 66 439 142 491 268 491 c 0
 373 491 417 448 417 347 c 2
 417 57 l 1
 435 41 l 1
 488 36 l 1
 488 0 l 1
 347 0 l 1
 334 58 l 1x7c
334 92 m 1xac
 334 268 l 1
 193 229 130 202 130 129 c 0
 130 80 160 47 210 47 c 0
 243 47 284 63 334 92 c 1xac
EndSplineSet
Fore
SplineSet
42 121 m 0xba
 42 225 134 255 334 303 c 1
 334 335 l 2
 334 414 314 447 242 447 c 0
 217 447 193 442 166 431 c 1
 166 347 l 1
 97 347 l 2
 74 347 66 354 66 378 c 0
 66 439 142 491 268 491 c 0
 373 491 417 448 417 347 c 2
 417 57 l 1
 435 41 l 1
 488 36 l 1
 488 0 l 1
 347 0 l 1x76
 334 58 l 1
 271 15 218 -7 170 -7 c 0
 91 -7 42 46 42 121 c 0xba
130 129 m 0xba
 130 80 160 47 210 47 c 0
 243 47 284 63 334 92 c 1
 334 268 l 1
 193 229 130 202 130 129 c 0xba
EndSplineSet
EndChar

StartChar: b
Encoding: 98 98 66
Width: 539
Flags: HMW
HStem: 0 45<86 289> 438 53<284 307> 669 31<8 86 8 8> 716 20<131 169 169 169>
VStem: 86 83<46 46 46 422 456 669 669 669> 414 90<177 306.5>
LayerCount: 2
Back
SplineSet
131 736 m 1
 169 736 l 1
 169 456 l 1
 217 479 262 491 306 491 c 0
 424 491 504 399 504 263 c 0
 504 91 405 0 214 0 c 2
 86 0 l 1
 86 669 l 1
 8 669 l 1
 8 700 l 1
 131 736 l 1
169 46 m 1
 200 45 219 45 224 45 c 0
 354 45 414 106 414 244 c 0
 414 369 357 438 257 438 c 0
 232 438 202 432 169 422 c 1
 169 46 l 1
EndSplineSet
Fore
SplineSet
8 669 m 1
 8 700 l 1
 131 736 l 1
 169 736 l 1
 169 456 l 1
 217 479 262 491 306 491 c 0
 424 491 504 399 504 263 c 0
 504 91 405 0 214 0 c 2
 86 0 l 1
 86 669 l 1
 8 669 l 1
169 46 m 1
 200 45 219 45 224 45 c 0
 354 45 414 106 414 244 c 0
 414 369 357 438 257 438 c 0
 232 438 202 432 169 422 c 1
 169 46 l 1
EndSplineSet
EndChar

StartChar: c
Encoding: 99 99 67
Width: 446
Flags: HMW
HStem: -7 59<246 289> 451 40<232 283.5>
VStem: 37 91<186.5 311 186.5 315.5>
LayerCount: 2
Back
SplineSet
425 42 m 1
 370 10 316 -7 262 -7 c 0
 126 -7 37 93 37 241 c 0
 37 390 134 491 274 491 c 0
 370 491 424 451 424 393 c 0
 424 361 402 340 368 340 c 0
 353 340 338 345 323 355 c 1
 323 437 l 1
 308 446 292 451 275 451 c 0
 189 451 128 374 128 248 c 0
 128 125 194 52 298 52 c 0
 342 52 383 66 425 94 c 1
 425 42 l 1
EndSplineSet
Fore
SplineSet
37 241 m 0
 37 390 134 491 274 491 c 0
 370 491 424 451 424 393 c 0
 424 361 402 340 368 340 c 0
 353 340 338 345 323 355 c 1
 323 437 l 1
 308 446 292 451 275 451 c 0
 189 451 128 374 128 248 c 0
 128 125 194 52 298 52 c 0
 342 52 383 66 425 94 c 1
 425 42 l 1
 370 10 316 -7 262 -7 c 0
 126 -7 37 93 37 241 c 0
EndSplineSet
EndChar

StartChar: d
Encoding: 100 100 68
Width: 565
Flags: HW
HStem: -9 63<229 256.5> 0 36<383 531> 448 44<244.5 307> 669 31<306 383 306 306> 716 20<428 466 466 466>
VStem: 36 88<183.5 304.5 183.5 305> 383 83<0 736 52 736 89 432 432 432 481 669 669 669>
LayerCount: 2
Back
SplineSet
383 669 m 1xb6
 306 669 l 1
 306 700 l 1
 428 736 l 1
 466 736 l 1
 466 57 l 1
 483 41 l 1
 531 36 l 1
 531 0 l 1
 383 0 l 1x5a
 383 52 l 1
 332 11 284 -9 229 -9 c 0
 120 -9 36 85 36 225 c 0
 36 385 142 492 294 492 c 0
 322 492 352 488 383 481 c 1
 383 669 l 1xb6
383 89 m 1xb6
 383 432 l 1
 349 442 319 448 295 448 c 0
 194 448 124 367 124 242 c 0
 124 125 184 54 274 54 c 0
 310 54 346 66 383 89 c 1xb6
EndSplineSet
Fore
SplineSet
36 225 m 0
 36 385 142 492 294 492 c 0
 322 492 352 488 383 481 c 1
 383 669 l 1xb6
 306 669 l 1
 306 700 l 1
 428 736 l 1
 466 736 l 1
 466 57 l 1
 483 41 l 1
 531 36 l 1
 531 0 l 1
 383 0 l 1x5a
 383 52 l 1
 332 11 284 -9 229 -9 c 0
 120 -9 36 85 36 225 c 0
124 242 m 0
 124 125 184 54 274 54 c 0
 310 54 346 66 383 89 c 1xb6
 383 432 l 1
 349 442 319 448 295 448 c 0
 194 448 124 367 124 242 c 0
EndSplineSet
EndChar

StartChar: e
Encoding: 101 101 69
Width: 491
Flags: HMW
HStem: -9 57<240.5 291.5> 263 42<128 359 128 447 123 359> 446 45<223 288.5>
VStem: 37 86<188 253.5 253.5 263 188 312.5> 359 89<305 321 318.5 355.5>
LayerCount: 2
Back
SplineSet
448 106 m 1
 448 51 l 1
 388 11 323 -9 260 -9 c 0
 128 -9 37 90 37 237 c 0
 37 388 134 491 268 491 c 0
 377 491 448 417 448 294 c 0
 448 284 448 274 447 263 c 1
 123 263 l 1
 123 259 123 255 123 252 c 0
 123 124 190 48 291 48 c 0
 341 48 391 68 448 106 c 1
359 305 m 1
 359 310 359 316 359 321 c 0
 359 402 322 446 255 446 c 0
 191 446 134 390 128 305 c 1
 359 305 l 1
EndSplineSet
Fore
SplineSet
37 237 m 0
 37 388 134 491 268 491 c 0
 377 491 448 417 448 294 c 0
 448 284 448 274 447 263 c 1
 123 263 l 1
 123 259 123 255 123 252 c 0
 123 124 190 48 291 48 c 0
 341 48 391 68 448 106 c 1
 448 51 l 1
 388 11 323 -9 260 -9 c 0
 128 -9 37 90 37 237 c 0
128 305 m 1
 359 305 l 1
 359 310 359 316 359 321 c 0
 359 402 322 446 255 446 c 0
 191 446 134 390 128 305 c 1
EndSplineSet
EndChar

StartChar: f
Encoding: 102 102 70
Width: 321
Flags: HMW
HStem: 0 36<29 29 29 262> 421 47<36 100 184 323> 697 47<249 249>
VStem: 100 83<57 421 57 421 57 479 57 562>
LayerCount: 2
Back
SplineSet
29 0 m 1
 29 36 l 1
 82 41 l 1
 100 57 l 1
 100 421 l 1
 36 421 l 1
 36 453 l 1
 100 468 l 1
 100 472 100 476 100 479 c 0
 100 645 185 744 303 744 c 0
 349 744 381 719 381 687 c 0
 381 663 366 644 340 637 c 1
 249 697 l 1
 206 677 184 625 184 541 c 2
 184 468 l 1
 323 468 l 1
 323 421 l 1
 183 421 l 1
 183 57 l 1
 200 41 l 1
 262 36 l 1
 262 0 l 1
 29 0 l 1
EndSplineSet
Fore
SplineSet
29 0 m 1
 29 36 l 1
 82 41 l 1
 100 57 l 1
 100 421 l 1
 36 421 l 1
 36 453 l 1
 100 468 l 1
 100 472 100 476 100 479 c 0
 100 645 185 744 303 744 c 0
 349 744 381 719 381 687 c 0
 381 663 366 644 340 637 c 1
 249 697 l 1
 206 677 184 625 184 541 c 2
 184 468 l 1
 323 468 l 1
 323 421 l 1
 183 421 l 1
 183 57 l 1
 200 41 l 1
 262 36 l 1
 262 0 l 1
 29 0 l 1
EndSplineSet
EndChar

StartChar: g
Encoding: 103 103 71
Width: 523
Flags: HW
HStem: -218 46<215 259> 30 68<206 213> 167 39<222 239 222 225> 416 47<402 512 402 402> 452 39<217 275>
VStem: 40 80<-97 -57> 62 86<291.5 367.5 291.5 374.5> 344 86<291.5 340.5 278.5 367> 405 74<-58.5 -39>
LayerCount: 2
Back
SplineSet
369 463 m 1x11
 512 463 l 1
 512 416 l 1
 402 416 l 1
 421 387 430 358 430 323 c 0x11
 430 234 355 167 239 167 c 0
 234 167 228 167 222 167 c 1
 215 153 211 138 211 122 c 0
 211 117 212 109 213 98 c 1
 309 83 l 2
 427 65 479 34 479 -40 c 0
 479 -77 458 -120 419 -152 c 0
 366 -195 297 -218 221 -218 c 0
 106 -218 40 -169 40 -89 c 0xe480
 40 -25 80 23 148 35 c 1
 142 49 138 64 138 80 c 0
 138 106 154 137 186 175 c 1
 109 192 62 251 62 326 c 0
 62 423 138 491 256 491 c 0x2b
 294 491 331 482 369 463 c 1x11
246 452 m 0x2b
 188 452 148 406 148 329 c 0
 148 254 188 206 246 206 c 0
 304 206 344 254 344 329 c 0
 344 405 304 452 246 452 c 0x2b
206 30 m 1xe480
 151 13 120 -24 120 -68 c 0
 120 -126 174 -172 256 -172 c 0
 345 -172 405 -122 405 -66 c 0
 405 -12 373 -1 303 12 c 2
 206 30 l 1xe480
EndSplineSet
Fore
SplineSet
40 -89 m 0xe480
 40 -25 80 23 148 35 c 1
 142 49 138 64 138 80 c 0
 138 106 154 137 186 175 c 1
 109 192 62 251 62 326 c 0
 62 423 138 491 256 491 c 0x2b
 294 491 331 482 369 463 c 1x11
 512 463 l 1
 512 416 l 1
 402 416 l 1
 421 387 430 358 430 323 c 0x11
 430 234 355 167 239 167 c 0
 234 167 228 167 222 167 c 1
 215 153 211 138 211 122 c 0
 211 117 212 109 213 98 c 1
 309 83 l 2
 427 65 479 34 479 -40 c 0
 479 -77 458 -120 419 -152 c 0
 366 -195 297 -218 221 -218 c 0
 106 -218 40 -169 40 -89 c 0xe480
120 -68 m 0
 120 -126 174 -172 256 -172 c 0
 345 -172 405 -122 405 -66 c 0
 405 -12 373 -1 303 12 c 2
 206 30 l 1xe480
 151 13 120 -24 120 -68 c 0
148 329 m 0
 148 254 188 206 246 206 c 0
 304 206 344 254 344 329 c 0
 344 405 304 452 246 452 c 0x2b
 188 452 148 406 148 329 c 0
EndSplineSet
EndChar

StartChar: h
Encoding: 104 104 72
Width: 564
Flags: HMW
HStem: 0 36<25 244 25 25> 425 66<319.5 328> 669 31<19 96 19 19> 716 20<141 179 179 179>
VStem: 96 83<57 392 431 669 669 669> 392 83<57 322 322 339 57 358.5>
LayerCount: 2
Back
SplineSet
141 736 m 1
 179 736 l 1
 179 431 l 1
 246 468 298 491 341 491 c 0
 428 491 475 439 475 339 c 2
 475 57 l 1
 493 41 l 1
 546 36 l 1
 546 0 l 1
 328 0 l 1
 328 36 l 1
 375 41 l 1
 392 57 l 1
 392 322 l 2
 392 395 365 425 291 425 c 0
 259 425 222 414 179 392 c 1
 179 57 l 1
 197 41 l 1
 244 36 l 1
 244 0 l 1
 25 0 l 1
 25 36 l 1
 79 41 l 1
 96 57 l 1
 96 669 l 1
 19 669 l 1
 19 700 l 1
 141 736 l 1
EndSplineSet
Fore
SplineSet
19 669 m 1
 19 700 l 1
 141 736 l 1
 179 736 l 1
 179 431 l 1
 246 468 298 491 341 491 c 0
 428 491 475 439 475 339 c 2
 475 57 l 1
 493 41 l 1
 546 36 l 1
 546 0 l 1
 328 0 l 1
 328 36 l 1
 375 41 l 1
 392 57 l 1
 392 322 l 2
 392 395 365 425 291 425 c 0
 259 425 222 414 179 392 c 1
 179 57 l 1
 197 41 l 1
 244 36 l 1
 244 0 l 1
 25 0 l 1
 25 36 l 1
 79 41 l 1
 96 57 l 1
 96 669 l 1
 19 669 l 1
EndSplineSet
EndChar

StartChar: i
Encoding: 105 105 73
Width: 280
Flags: HW
HStem: 0 36<35 260 35 35> 419 31<35 105 35 35> 466 20<150 188 188 188> 593 115<138 170>
VStem: 96 116<634 666 634 666.5> 105 83<57 419 419 419>
LayerCount: 2
Back
SplineSet
154 708 m 0x18
 186 708 212 682 212 650 c 0
 212 618 186 593 154 593 c 0
 122 593 96 618 96 650 c 0
 96 683 122 708 154 708 c 0x18
150 486 m 1xe4
 188 486 l 1
 188 57 l 1
 206 41 l 1
 260 36 l 1
 260 0 l 1
 35 0 l 1
 35 36 l 1
 88 41 l 1
 105 57 l 1
 105 419 l 1
 35 419 l 1
 35 450 l 1
 150 486 l 1xe4
EndSplineSet
Fore
SplineSet
96 650 m 0
 96 683 122 708 154 708 c 0x18
 186 708 212 682 212 650 c 0
 212 618 186 593 154 593 c 0
 122 593 96 618 96 650 c 0
EndSplineSet
Refer: 144 305 S 1 0 0 1 0 0 3
EndChar

StartChar: j
Encoding: 106 106 74
Width: 266
Flags: HW
HStem: -218 47<-31 56> 419 31<38 109 38 38> 466 20<154 192 192 192> 593 115<130 162>
VStem: 88 116<634 666 634 666.5> 109 83<32.5 84 84 419 419 419>
LayerCount: 2
Back
SplineSet
109 419 m 1xe4
 38 419 l 1
 38 450 l 1
 154 486 l 1
 192 486 l 1
 192 84 l 2
 192 -19 190 -93 135 -153 c 0
 96 -195 45 -218 -9 -218 c 0
 -53 -218 -78 -196 -78 -164 c 0
 -78 -142 -66 -123 -41 -112 c 1
 56 -171 l 1
 93 -159 109 -108 109 -16 c 2
 109 419 l 1xe4
88 650 m 0x18
 88 683 114 708 146 708 c 0
 178 708 204 682 204 650 c 0
 204 618 178 593 146 593 c 0
 114 593 88 618 88 650 c 0x18
EndSplineSet
Fore
SplineSet
88 650 m 0x18
 88 683 114 708 146 708 c 0
 178 708 204 682 204 650 c 0
 204 618 178 593 146 593 c 0
 114 593 88 618 88 650 c 0x18
EndSplineSet
Refer: 228 567 S 1 0 0 1 0 0 3
EndChar

StartChar: k
Encoding: 107 107 75
Width: 517
Flags: MW
HStem: 0 36<25 25 25 244> 444 37<299 489 299 489> 669 31<19 96 19 19> 716 20<141 179 179 179>
VStem: 96 83<57 227 255 669 669 669>
DStem2: 198 255 288 291 0.666795 0.745241<86.8402 229.456> 288 291 237 227 0.578747 -0.815507<22.6764 259.016>
LayerCount: 2
Back
SplineSet
25 0 m 1
 25 36 l 1
 79 41 l 1
 96 57 l 1
 96 669 l 1
 19 669 l 1
 19 700 l 1
 141 736 l 1
 179 736 l 1
 179 255 l 1
 198 255 l 1
 351 426 l 1
 344 440 l 1
 299 444 l 1
 299 481 l 1
 489 481 l 1
 489 444 l 1
 425 436 l 1
 288 291 l 1
 464 43 l 1
 528 38 l 1
 528 0 l 1
 372 0 l 1
 372 33 l 1
 237 227 l 1
 179 227 l 1
 179 57 l 1
 197 41 l 1
 244 36 l 1
 244 0 l 1
 25 0 l 1
EndSplineSet
Fore
SplineSet
19 669 m 1
 19 700 l 1
 141 736 l 1
 179 736 l 1
 179 255 l 1
 198 255 l 1
 351 426 l 1
 344 440 l 1
 299 444 l 1
 299 481 l 1
 489 481 l 1
 489 444 l 1
 425 436 l 1
 288 291 l 1
 464 43 l 1
 528 38 l 1
 528 0 l 1
 372 0 l 1
 372 33 l 1
 237 227 l 1
 179 227 l 1
 179 57 l 1
 197 41 l 1
 244 36 l 1
 244 0 l 1
 25 0 l 1
 25 36 l 1
 79 41 l 1
 96 57 l 1
 96 669 l 1
 19 669 l 1
EndSplineSet
EndChar

StartChar: l
Encoding: 108 108 76
Width: 282
Flags: HMW
HStem: 0 36<28 28 28 262> 669 31<27 104 27 27> 716 20<149 187 187 187>
VStem: 104 83<57 669 669 669>
LayerCount: 2
Back
SplineSet
28 0 m 1
 28 36 l 1
 87 41 l 1
 104 57 l 1
 104 669 l 1
 27 669 l 1
 27 700 l 1
 149 736 l 1
 187 736 l 1
 187 57 l 1
 205 41 l 1
 262 36 l 1
 262 0 l 1
 28 0 l 1
EndSplineSet
Fore
SplineSet
27 669 m 1
 27 700 l 1
 149 736 l 1
 187 736 l 1
 187 57 l 1
 205 41 l 1
 262 36 l 1
 262 0 l 1
 28 0 l 1
 28 36 l 1
 87 41 l 1
 104 57 l 1
 104 669 l 1
 27 669 l 1
EndSplineSet
EndChar

StartChar: m
Encoding: 109 109 77
Width: 843
Flags: HW
HStem: 0 36<30 249 30 30> 419 31<30 101 30 30> 425 66<323 328 606 613>
VStem: 101 83<57 392 57 419 57 419> 386 83<57 322 322 357> 672 83<57 322 322 339 57 357>
LayerCount: 2
Back
SplineSet
454 424 m 1xbc
 529 468 586 491 626 491 c 0
 705 491 755 438 755 339 c 2
 755 57 l 1
 772 41 l 1
 825 36 l 1
 825 0 l 1
 607 0 l 1
 607 36 l 1
 654 41 l 1
 672 57 l 1
 672 322 l 2
 672 392 644 425 582 425 c 0
 550 425 512 413 469 392 c 1
 469 57 l 1
 487 41 l 1
 534 36 l 1
 534 0 l 1
 321 0 l 1
 321 36 l 1
 369 41 l 1
 386 57 l 1
 386 322 l 2
 386 392 358 425 298 425 c 0xbc
 265 425 228 414 184 392 c 1
 184 57 l 1
 201 41 l 1
 249 36 l 1
 249 0 l 1
 30 0 l 1
 30 36 l 1
 84 41 l 1
 101 57 l 1
 101 419 l 1
 30 419 l 1
 30 450 l 1xd0
 146 486 l 1
 184 486 l 1
 184 431 l 1
 250 470 302 491 344 491 c 0
 393 491 431 468 454 424 c 1xbc
EndSplineSet
Fore
SplineSet
30 0 m 1
 30 36 l 1
 84 41 l 1
 101 57 l 1
 101 419 l 1
 30 419 l 1
 30 450 l 1xd0
 146 486 l 1
 184 486 l 1
 184 431 l 1
 250 470 302 491 344 491 c 0
 393 491 431 468 454 424 c 1xbc
 529 468 586 491 626 491 c 0
 705 491 755 438 755 339 c 2
 755 57 l 1
 772 41 l 1
 825 36 l 1
 825 0 l 1
 607 0 l 1
 607 36 l 1
 654 41 l 1
 672 57 l 1
 672 322 l 2
 672 392 644 425 582 425 c 0
 550 425 512 413 469 392 c 1
 469 57 l 1
 487 41 l 1
 534 36 l 1
 534 0 l 1
 321 0 l 1
 321 36 l 1
 369 41 l 1
 386 57 l 1
 386 322 l 2
 386 392 358 425 298 425 c 0xbc
 265 425 228 414 184 392 c 1
 184 57 l 1
 201 41 l 1
 249 36 l 1
 249 0 l 1
 30 0 l 1
EndSplineSet
EndChar

StartChar: n
Encoding: 110 110 78
Width: 568
Flags: W
HStem: 0 36<30 84 201 249 332 380 497 551> 419 31<30 52.5556> 425 66<260.185 369.787>
VStem: 101 83<57 402.369> 397 83<57 397.693>
LayerCount: 2
Back
SplineSet
30 0 m 1xb8
 30 36 l 1
 84 41 l 1
 101 57 l 1
 101 419 l 1
 30 419 l 1
 30 450 l 1xd0
 146 486 l 1
 184 486 l 1
 184 431 l 1
 251 468 302 491 345 491 c 0
 432 491 480 439 480 339 c 2
 480 57 l 1
 497 41 l 1
 551 36 l 1
 551 0 l 1
 332 0 l 1
 332 36 l 1
 380 41 l 1
 397 57 l 1
 397 322 l 2
 397 395 370 425 296 425 c 0
 264 425 227 414 184 392 c 1
 184 57 l 1
 201 41 l 1
 249 36 l 1
 249 0 l 1
 30 0 l 1xb8
EndSplineSet
Fore
SplineSet
30 0 m 1xb8
 30 36 l 1
 84 41 l 1
 101 57 l 1
 101 419 l 1
 30 419 l 1
 30 450 l 1xd8
 146 486 l 1
 184 486 l 1
 184 431 l 1
 251 468 302 491 345 491 c 0
 432 491 480 439 480 339 c 2
 480 57 l 1
 497 41 l 1
 551 36 l 1
 551 0 l 1
 332 0 l 1
 332 36 l 1
 380 41 l 1
 397 57 l 1
 397 322 l 2
 397 395 370 425 296 425 c 0
 264 425 227 414 184 392 c 1
 184 57 l 1
 201 41 l 1
 249 36 l 1
 249 0 l 1
 30 0 l 1xb8
EndSplineSet
EndChar

StartChar: o
Encoding: 111 111 79
Width: 539
Flags: HMW
HStem: -9 43<229 309.5 229 336> 448 43<228.5 309.5>
VStem: 37 94<176.5 306 176.5 315.5> 408 94<176 305.5>
LayerCount: 2
Back
SplineSet
269 491 m 0
 404 491 502 389 502 241 c 0
 502 93 403 -9 269 -9 c 0
 135 -9 37 93 37 241 c 0
 37 390 134 491 269 491 c 0
269 448 m 0
 188 448 131 371 131 241 c 0
 131 112 189 34 269 34 c 0
 350 34 408 111 408 241 c 0
 408 370 350 448 269 448 c 0
EndSplineSet
Fore
SplineSet
37 241 m 0
 37 390 134 491 269 491 c 0
 404 491 502 389 502 241 c 4
 502 93 403 -9 269 -9 c 0
 135 -9 37 93 37 241 c 0
131 241 m 0
 131 112 189 34 269 34 c 0
 350 34 408 111 408 241 c 0
 408 370 350 448 269 448 c 0
 188 448 131 371 131 241 c 0
EndSplineSet
EndChar

StartChar: p
Encoding: 112 112 80
Width: 551
Flags: W
HStem: -218 36<23 77 194 258> -3 45<178.637 340.996> 419 31<23 45.5556> 428 63<238.236 355.828>
VStem: 94 83<-161 6 51.6321 405.307> 428 88<143.228 348.167>
LayerCount: 2
Back
SplineSet
23 -218 m 1xdc
 23 -182 l 1
 77 -177 l 1
 94 -161 l 1
 94 419 l 1
 23 419 l 1
 23 450 l 1xa8
 139 486 l 1
 177 486 l 1
 177 431 l 1
 230 471 277 491 324 491 c 0
 434 491 516 397 516 257 c 0
 516 99 418 -3 270 -3 c 0
 245 -3 214 0 177 6 c 1
 177 -161 l 1
 194 -177 l 1
 258 -182 l 1
 258 -218 l 1
 23 -218 l 1xdc
177 58 m 1xdc
 210 47 238 42 262 42 c 0
 360 42 428 121 428 244 c 0
 428 359 369 428 282 428 c 0
 248 428 215 416 177 394 c 1
 177 58 l 1xdc
EndSplineSet
Fore
SplineSet
23 -182 m 1xdc
 77 -177 l 1
 94 -161 l 1
 94 419 l 1
 23 419 l 1
 23 450 l 1xec
 139 486 l 1
 177 486 l 1
 177 431 l 1
 230 471 277 491 324 491 c 0
 434 491 516 397 516 257 c 0
 516 99 418 -3 270 -3 c 0
 245 -3 214 0 177 6 c 1
 177 -161 l 1
 194 -177 l 1
 258 -182 l 1
 258 -218 l 1
 23 -218 l 1
 23 -182 l 1xdc
177 58 m 1
 210 47 238 42 262 42 c 0
 360 42 428 121 428 244 c 0
 428 359 369 428 282 428 c 0xdc
 248 428 215 416 177 394 c 1
 177 58 l 1
EndSplineSet
EndChar

StartChar: q
Encoding: 113 113 81
Width: 531
Flags: HMW
HStem: -218 36<292 526 292 292> -3 53<232 255> 449 43<244.5 306.5>
VStem: 37 90<181 308 181 310> 372 83<-161 33 33 33 65 402 -161 438 -161 438>
LayerCount: 2
Back
SplineSet
459 475 m 1
 457 436 455 412 455 402 c 2
 455 -161 l 1
 473 -178 l 1
 526 -182 l 1
 526 -218 l 1
 292 -218 l 1
 292 -182 l 1
 355 -178 l 1
 372 -161 l 1
 372 33 l 1
 321 9 276 -3 234 -3 c 0
 117 -3 37 88 37 230 c 0
 37 390 144 492 316 492 c 0
 358 492 406 486 459 475 c 1
372 438 m 1
 342 445 317 449 296 449 c 0
 193 449 127 373 127 243 c 0
 127 119 185 50 279 50 c 0
 302 50 332 55 372 65 c 1
 372 438 l 1
EndSplineSet
Fore
SplineSet
37 230 m 0
 37 390 144 492 316 492 c 0
 358 492 406 486 459 475 c 1
 457 436 455 412 455 402 c 2
 455 -161 l 1
 473 -178 l 1
 526 -182 l 1
 526 -218 l 1
 292 -218 l 1
 292 -182 l 1
 355 -178 l 1
 372 -161 l 1
 372 33 l 1
 321 9 276 -3 234 -3 c 0
 117 -3 37 88 37 230 c 0
127 243 m 0
 127 119 185 50 279 50 c 0
 302 50 332 55 372 65 c 1
 372 438 l 1
 342 445 317 449 296 449 c 0
 193 449 127 373 127 243 c 0
EndSplineSet
EndChar

StartChar: r
Encoding: 114 114 82
Width: 382
Flags: HW
HStem: 0 36<30 30 30 271> 416 34 419 70
VStem: 101 83<57 343 392 419 419 419>
LayerCount: 2
Back
SplineSet
30 0 m 1xd0
 30 36 l 1
 83 41 l 1
 101 57 l 1
 101 419 l 1
 30 419 l 1xb0
 30 450 l 1xd0
 146 486 l 1
 184 486 l 1
 184 392 l 1
 219 428 255 460 291 489 c 1xb0
 299 491 308 491 316 491 c 0
 336 491 355 487 376 478 c 1
 376 392 l 1
 344 392 l 1
 331 408 314 416 293 416 c 0
 260 416 225 391 184 343 c 1
 184 57 l 1
 201 41 l 1
 271 36 l 1
 271 0 l 1
 30 0 l 1xd0
EndSplineSet
Fore
SplineSet
30 0 m 1xd0
 30 36 l 1
 83 41 l 1
 101 57 l 1
 101 419 l 1
 30 419 l 1xb0
 30 450 l 1xd0
 146 486 l 1
 184 486 l 1
 184 392 l 1
 219 428 255 460 291 489 c 1xb0
 299 491 308 491 316 491 c 0
 336 491 355 487 376 478 c 1
 376 392 l 1
 344 392 l 1
 331 408 314 416 293 416 c 0
 260 416 225 391 184 343 c 1
 184 57 l 1
 201 41 l 1
 271 36 l 1
 271 0 l 1
 30 0 l 1xd0
EndSplineSet
EndChar

StartChar: s
Encoding: 115 115 83
Width: 400
Flags: W
HStem: -9 42<108.906 251.809> 356 113<295 344> 448 43<150.785 285.681>
VStem: 42 48<92.4167 142> 50 80<324.598 428.018> 281 78<61.6794 167.7> 295 49<356 418.125>
LayerCount: 2
Back
SplineSet
344 469 m 1x54
 344 356 l 1
 295 356 l 1
 287 427 l 1
 261 441 237 448 213 448 c 0
 160 448 130 421 130 376 c 0x54
 130 333 159 312 215 285 c 0
 250 268 288 254 321 227 c 0
 345 208 359 178 359 141 c 0
 359 48 290 -9 172 -9 c 0
 121 -9 77 -1 42 12 c 1
 42 142 l 1
 90 142 l 1
 102 57 l 1
 130 41 158 33 187 33 c 0
 245 33 281 67 281 114 c 0xa8
 281 166 245 184 179 214 c 0
 94 252 50 284 50 351 c 0
 50 439 113 491 227 491 c 0
 271 491 310 484 344 469 c 1x54
EndSplineSet
Fore
SplineSet
42 12 m 1xb4
 42 142 l 1
 90 142 l 1xb4
 102 57 l 1
 130 41 158 33 187 33 c 0
 245 33 281 67 281 114 c 0
 281 166 245 184 179 214 c 0
 94 252 50 284 50 351 c 0
 50 439 113 491 227 491 c 0xac
 271 491 310 484 344 469 c 1
 344 356 l 1
 295 356 l 1xca
 287 427 l 1
 261 441 237 448 213 448 c 0
 160 448 130 421 130 376 c 0xaa
 130 333 159 312 215 285 c 0
 250 268 288 254 321 227 c 0
 345 208 359 178 359 141 c 0
 359 48 290 -9 172 -9 c 0
 121 -9 77 -1 42 12 c 1xb4
EndSplineSet
EndChar

StartChar: t
Encoding: 116 116 84
Width: 334
Flags: HMW
HStem: -3 51<150.5 265.5> 421 47<171 323 171 323> 554 20<134 171 171 171>
VStem: 88 83<119 157 157 421>
LayerCount: 2
Back
SplineSet
88 421 m 1
 25 421 l 1
 25 452 l 1
 91 481 l 1
 134 574 l 1
 171 574 l 1
 171 468 l 1
 323 468 l 1
 323 421 l 1
 171 421 l 1
 171 157 l 2
 171 81 184 48 254 48 c 0
 277 48 300 51 323 56 c 1
 323 19 l 1
 276 4 231 -3 192 -3 c 0
 109 -3 88 27 88 98 c 2
 88 421 l 1
EndSplineSet
Fore
SplineSet
25 421 m 1
 25 452 l 1
 91 481 l 1
 134 574 l 1
 171 574 l 1
 171 468 l 1
 323 468 l 1
 323 421 l 1
 171 421 l 1
 171 157 l 2
 171 81 184 48 254 48 c 0
 277 48 300 51 323 56 c 1
 323 19 l 1
 276 4 231 -3 192 -3 c 0
 109 -3 88 27 88 98 c 2
 88 421 l 1
 25 421 l 1
EndSplineSet
EndChar

StartChar: u
Encoding: 117 117 85
Width: 569
Flags: HW
HStem: -10 64<243.5 255.5> 0 36<393 541> 423 31<26 97 26 26> 471 20<142 180 180 180 438 476 476 476>
VStem: 97 83<143 160 160 423 423 423> 393 83<0 491 56 491 84 423 423 423>
LayerCount: 2
Back
SplineSet
142 491 m 1xbc
 180 491 l 1
 180 160 l 2
 180 88 210 54 277 54 c 0xbc
 314 54 352 64 393 84 c 1
 393 423 l 1
 322 423 l 1
 322 454 l 1
 438 491 l 1
 476 491 l 1
 476 57 l 1
 494 41 l 1
 541 36 l 1
 541 0 l 1
 393 0 l 1x74
 393 56 l 1
 333 13 280 -10 231 -10 c 0
 145 -10 97 43 97 143 c 2
 97 423 l 1
 26 423 l 1
 26 454 l 1
 142 491 l 1xbc
EndSplineSet
Fore
SplineSet
26 423 m 1
 26 454 l 1
 142 491 l 1xbc
 180 491 l 1
 180 160 l 2
 180 88 210 54 277 54 c 0xbc
 314 54 352 64 393 84 c 1
 393 423 l 1
 322 423 l 1
 322 454 l 1
 438 491 l 1
 476 491 l 1
 476 57 l 1
 494 41 l 1
 541 36 l 1
 541 0 l 1
 393 0 l 1x74
 393 56 l 1
 333 13 280 -10 231 -10 c 0
 145 -10 97 43 97 143 c 2
 97 423 l 1
 26 423 l 1
EndSplineSet
EndChar

StartChar: v
Encoding: 118 118 86
Width: 494
Flags: MW
HStem: 0 20 444 37<-5 212 -5 212>
VStem: -5 512<444 481 444 481>
DStem2: 147 424 56 438 0.34501 -0.938599<0 347.288> 264 97 273 0 0.372491 0.928036<0 351.147>
LayerCount: 2
Back
SplineSet
-5 481 m 1
 212 481 l 1
 212 444 l 1
 159 440 l 1
 147 424 l 1
 264 97 l 1
 392 424 l 1
 384 440 l 1
 330 444 l 1
 330 481 l 1
 507 481 l 1
 507 444 l 1
 448 436 l 1
 273 0 l 1
 217 0 l 1
 56 438 l 1
 -5 444 l 1
 -5 481 l 1
EndSplineSet
Fore
SplineSet
-5 444 m 1
 -5 481 l 1
 212 481 l 1
 212 444 l 1
 159 440 l 1
 147 424 l 1
 264 97 l 1
 392 424 l 1
 384 440 l 1
 330 444 l 1
 330 481 l 1
 507 481 l 1
 507 444 l 1
 448 436 l 1
 273 0 l 1
 217 0 l 1
 56 438 l 1
 -5 444 l 1
EndSplineSet
EndChar

StartChar: w
Encoding: 119 119 87
Width: 771
Flags: MW
HStem: 0 20 444 37<-2 215 -2 215>
VStem: -2 773<444 481 444 481>
DStem2: 150 424 59 438 0.290553 -0.956859<0 337.419> 241 99 254 0 0.331011 0.943627<0 313.205> 436 481 389 379 0.29514 -0.955454<83.5847 399.81> 554 99 572 0 0.311647 0.950198<0 340.602>
LayerCount: 2
Back
SplineSet
-2 481 m 1
 215 481 l 1
 215 444 l 1
 162 440 l 1
 150 424 l 1
 241 99 l 1
 375 481 l 1
 436 481 l 1
 554 99 l 1
 656 424 l 1
 648 440 l 1
 594 444 l 1
 594 481 l 1
 771 481 l 1
 771 444 l 1
 715 436 l 1
 572 0 l 1
 510 0 l 1
 389 379 l 1
 254 0 l 1
 192 0 l 1
 59 438 l 1
 -2 444 l 1
 -2 481 l 1
EndSplineSet
Fore
SplineSet
-2 444 m 1
 -2 481 l 1
 215 481 l 1
 215 444 l 1
 162 440 l 1
 150 424 l 1
 241 99 l 1
 375 481 l 1
 436 481 l 1
 554 99 l 1
 656 424 l 1
 648 440 l 1
 594 444 l 1
 594 481 l 1
 771 481 l 1
 771 444 l 1
 715 436 l 1
 572 0 l 1
 510 0 l 1
 389 379 l 1
 254 0 l 1
 192 0 l 1
 59 438 l 1
 -2 444 l 1
EndSplineSet
EndChar

StartChar: x
Encoding: 120 120 88
Width: 503
Flags: MW
HStem: 0 37<12 201 12 12> 444 37<18 233 18 233>
VStem: 12 488<0 37 0 37>
DStem2: 69 45 139 56 0.604019 0.79697<51.048 228.219 319.828 476.806> 182 428 79 433 0.558692 -0.829376<0 155.578 221.231 396.766>
LayerCount: 2
Back
SplineSet
18 481 m 1
 233 481 l 1
 233 444 l 1
 187 438 l 1
 182 428 l 1
 266 297 l 1
 357 425 l 1
 349 438 l 1
 301 444 l 1
 301 481 l 1
 481 481 l 1
 481 444 l 1
 425 434 l 1
 293 259 l 1
 440 45 l 1
 500 37 l 1
 500 0 l 1
 287 0 l 1
 287 37 l 1
 329 44 l 1
 334 52 l 1
 241 201 l 1
 139 56 l 1
 144 44 l 1
 201 37 l 1
 201 0 l 1
 12 0 l 1
 12 37 l 1
 69 45 l 1
 213 238 l 1
 79 433 l 1
 18 444 l 1
 18 481 l 1
EndSplineSet
Fore
SplineSet
12 0 m 1
 12 37 l 1
 69 45 l 1
 213 238 l 1
 79 433 l 1
 18 444 l 1
 18 481 l 1
 233 481 l 1
 233 444 l 1
 187 438 l 1
 182 428 l 1
 266 297 l 1
 357 425 l 1
 349 438 l 1
 301 444 l 1
 301 481 l 1
 481 481 l 1
 481 444 l 1
 425 434 l 1
 293 259 l 1
 440 45 l 1
 500 37 l 1
 500 0 l 1
 287 0 l 1
 287 37 l 1
 329 44 l 1
 334 52 l 1
 241 201 l 1
 139 56 l 1
 144 44 l 1
 201 37 l 1
 201 0 l 1
 12 0 l 1
EndSplineSet
EndChar

StartChar: y
Encoding: 121 121 89
Width: 495
Flags: MW
HStem: -218 72<73 147> 444 37<-1 216 -1 216>
VStem: -1 513<444 481 444 481>
DStem2: 151 424 60 438 0.360994 -0.932568<0 333.348> 228 4 254 -50 0.380558 0.924757<-167.165 0 117.163 452.332>
LayerCount: 2
Back
SplineSet
-1 481 m 1
 216 481 l 1
 216 444 l 1
 163 440 l 1
 151 424 l 1
 271 113 l 1
 396 424 l 1
 388 440 l 1
 334 444 l 1
 334 481 l 1
 512 481 l 1
 512 444 l 1
 454 436 l 1
 254 -50 l 2
 207 -163 159 -218 94 -218 c 0
 52 -218 25 -195 25 -162 c 0
 25 -142 34 -124 51 -108 c 1
 147 -146 l 1
 174 -117 203 -67 228 4 c 1
 60 438 l 1
 -1 444 l 1
 -1 481 l 1
EndSplineSet
Fore
SplineSet
-1 444 m 1
 -1 481 l 1
 216 481 l 1
 216 444 l 1
 163 440 l 1
 151 424 l 1
 271 113 l 1
 396 424 l 1
 388 440 l 1
 334 444 l 1
 334 481 l 1
 512 481 l 1
 512 444 l 1
 454 436 l 1
 254 -50 l 2
 207 -163 159 -218 94 -218 c 0
 52 -218 25 -195 25 -162 c 0
 25 -142 34 -124 51 -108 c 1
 147 -146 l 1
 174 -117 203 -67 228 4 c 1
 60 438 l 1
 -1 444 l 1
EndSplineSet
EndChar

StartChar: z
Encoding: 122 122 90
Width: 468
Flags: MW
HStem: 0 46<139 354 139 431> 435 46<127 312 127 127>
VStem: 45 386<0 50 50 50> 55 47<342 481> 380 51<0 147>
DStem2: 45 50 139 46 0.572214 0.820104<50.5077 468.521>
LayerCount: 2
Back
SplineSet
45 0 m 1xa0
 45 50 l 1xa0
 312 435 l 1
 127 435 l 1
 113 419 l 1
 102 342 l 1
 55 342 l 1
 55 481 l 1
 416 481 l 1
 416 443 l 1
 139 46 l 1
 354 46 l 1
 369 62 l 1
 380 147 l 1xd8
 431 147 l 1
 431 0 l 1
 45 0 l 1xa0
EndSplineSet
Fore
SplineSet
45 0 m 1xa0
 45 50 l 1xa0
 312 435 l 1
 127 435 l 1
 113 419 l 1
 102 342 l 1
 55 342 l 1
 55 481 l 1
 416 481 l 1
 416 443 l 1
 139 46 l 1
 354 46 l 1
 369 62 l 1
 380 147 l 1xd8
 431 147 l 1
 431 0 l 1
 45 0 l 1xa0
EndSplineSet
EndChar

StartChar: braceleft
Encoding: 123 123 91
Width: 486
Flags: HMW
HStem: -134 39<322 418 393 418> 269 42<87 134> 666 37<405 418>
VStem: 211 80<49 121 440 465 465 542 542 546>
LayerCount: 2
Back
SplineSet
418 703 m 1
 418 666 l 1
 318 663 291 634 291 546 c 2
 291 465 l 2
 291 360 260 311 160 290 c 1
 254 269 291 221 291 121 c 2
 291 38 l 2
 291 -62 305 -93 418 -95 c 1
 418 -134 l 1
 409 -134 401 -134 393 -134 c 0
 251 -134 211 -90 211 49 c 2
 211 134 l 2
 211 233 180 269 88 269 c 0
 81 269 73 268 65 268 c 1
 65 312 l 1
 74 311 83 311 91 311 c 0
 181 311 211 347 211 440 c 2
 211 542 l 2
 211 656 268 703 405 703 c 0
 409 703 414 703 418 703 c 1
EndSplineSet
Fore
SplineSet
65 268 m 1
 65 312 l 1
 74 311 83 311 91 311 c 0
 181 311 211 347 211 440 c 2
 211 542 l 2
 211 656 268 703 405 703 c 0
 409 703 414 703 418 703 c 1
 418 666 l 1
 318 663 291 634 291 546 c 2
 291 465 l 2
 291 360 260 311 160 290 c 1
 254 269 291 221 291 121 c 2
 291 38 l 2
 291 -62 305 -93 418 -95 c 1
 418 -134 l 1
 409 -134 401 -134 393 -134 c 0
 251 -134 211 -90 211 49 c 2
 211 134 l 2
 211 233 180 269 88 269 c 0
 81 269 73 268 65 268 c 1
EndSplineSet
EndChar

StartChar: bar
Encoding: 124 124 92
Width: 500
Flags: HMW
HStem: -236 20 744 20<219 281 281 281>
VStem: 219 62<-236 764 -236 764>
LayerCount: 2
Back
SplineSet
219 764 m 1
 281 764 l 1
 281 -236 l 1
 219 -236 l 1
 219 764 l 1
EndSplineSet
Fore
SplineSet
219 -236 m 1
 219 764 l 1
 281 764 l 1
 281 -236 l 1
 219 -236 l 1
EndSplineSet
EndChar

StartChar: braceright
Encoding: 125 125 93
Width: 486
Flags: HMW
HStem: -134 39<64 88 64 68> 269 42<348 395 346 397.5> 666 37<64 77>
VStem: 191 80<38 49 49 121 121 134 465 542>
LayerCount: 2
Back
SplineSet
64 703 m 1
 68 703 73 703 77 703 c 0
 214 703 271 656 271 542 c 2
 271 440 l 2
 271 347 301 311 391 311 c 0
 399 311 408 311 417 312 c 1
 417 268 l 1
 409 268 401 269 394 269 c 0
 302 269 271 233 271 134 c 2
 271 49 l 2
 271 -89 231 -134 88 -134 c 0
 80 -134 72 -134 64 -134 c 1
 64 -95 l 1
 177 -93 191 -62 191 38 c 2
 191 121 l 2
 191 221 228 269 322 290 c 1
 222 311 191 360 191 465 c 2
 191 546 l 2
 191 634 164 663 64 666 c 1
 64 703 l 1
EndSplineSet
Fore
SplineSet
64 -95 m 1
 177 -93 191 -62 191 38 c 2
 191 121 l 2
 191 221 228 269 322 290 c 1
 222 311 191 360 191 465 c 2
 191 546 l 2
 191 634 164 663 64 666 c 1
 64 703 l 1
 68 703 73 703 77 703 c 0
 214 703 271 656 271 542 c 2
 271 440 l 2
 271 347 301 311 391 311 c 0
 399 311 408 311 417 312 c 1
 417 268 l 1
 409 268 401 269 394 269 c 0
 302 269 271 233 271 134 c 2
 271 49 l 2
 271 -89 231 -134 88 -134 c 0
 80 -134 72 -134 64 -134 c 1
 64 -95 l 1
EndSplineSet
EndChar

StartChar: asciitilde
Encoding: 126 126 94
Width: 833
Flags: HMW
HStem: 236 58<543.5 588> 303 58<247 302 247 306>
VStem: 87 660<225 370 290 370>
LayerCount: 2
Back
SplineSet
747 370 m 1
 747 306 l 1
 681 259 618 236 558 236 c 0
 529 236 498 242 465 253 c 0
 396 276 337 303 275 303 c 0
 216 303 158 275 87 225 c 1
 87 290 l 1
 155 337 218 361 276 361 c 0
 328 361 373 345 418 329 c 0
 466 312 509 294 559 294 c 0
 619 294 677 321 747 370 c 1
EndSplineSet
Fore
SplineSet
87 225 m 1
 87 290 l 1
 155 337 218 361 276 361 c 0
 328 361 373 345 418 329 c 0
 466 312 509 294 559 294 c 0
 619 294 677 321 747 370 c 1
 747 306 l 1
 681 259 618 236 558 236 c 0
 529 236 498 242 465 253 c 0
 396 276 337 303 275 303 c 0
 216 303 158 275 87 225 c 1
EndSplineSet
EndChar

StartChar: exclamdown
Encoding: 161 161 95
Width: 338
Flags: HMW
HStem: -9 512<151 187> 569 114<153 184.5>
VStem: 112 114<610 641.5>
LayerCount: 2
Back
SplineSet
169 683 m 0
 200 683 226 658 226 626 c 0
 226 594 200 569 169 569 c 0
 137 569 112 594 112 626 c 0
 112 657 137 683 169 683 c 0
145 503 m 1
 193 503 l 1
 221 121 l 2
 223 93 224 73 224 63 c 0
 224 16 205 -9 169 -9 c 0
 133 -9 114 15 114 63 c 0
 114 80 115 99 117 121 c 2
 145 503 l 1
EndSplineSet
Fore
SplineSet
112 626 m 0
 112 657 137 683 169 683 c 0
 200 683 226 658 226 626 c 0
 226 594 200 569 169 569 c 0
 137 569 112 594 112 626 c 0
114 63 m 0
 114 80 115 99 117 121 c 2
 145 503 l 1
 193 503 l 1
 221 121 l 2
 223 93 224 73 224 63 c 0
 224 16 205 -9 169 -9 c 0
 133 -9 114 15 114 63 c 0
EndSplineSet
EndChar

StartChar: cent
Encoding: 162 162 96
Width: 556
Flags: HMW
HStem: -98 20 1 45<319 331 319 321> 457 46<319 326 319 320> 581 20<273 319 319 319>
VStem: 64 86<195.5 303 195.5 314> 273 46<-98 1 -98 3 -98 3 48 454 454 454 503 601> 419 45<22 174>
LayerCount: 2
Back
SplineSet
273 601 m 1
 319 601 l 1
 319 503 l 1
 324 503 328 503 333 503 c 0
 376 503 419 495 464 480 c 1
 464 333 l 1
 419 333 l 1
 403 437 l 1
 380 451 355 457 326 457 c 0
 324 457 321 457 319 457 c 1
 319 46 l 1
 350 46 378 52 403 65 c 1
 419 174 l 1
 464 174 l 1
 464 22 l 1
 425 7 381 1 331 1 c 0
 327 1 323 1 319 1 c 1
 319 -98 l 1
 273 -98 l 1
 273 3 l 1
 144 20 64 115 64 246 c 0
 64 382 143 479 273 500 c 1
 273 601 l 1
273 454 m 1
 195 432 150 359 150 247 c 0
 150 144 198 69 273 48 c 1
 273 454 l 1
EndSplineSet
Fore
SplineSet
64 246 m 0
 64 382 143 479 273 500 c 1
 273 601 l 1
 319 601 l 1
 319 503 l 1
 324 503 328 503 333 503 c 0
 376 503 419 495 464 480 c 1
 464 333 l 1
 419 333 l 1
 403 437 l 1
 380 451 355 457 326 457 c 0
 324 457 321 457 319 457 c 1
 319 46 l 1
 350 46 378 52 403 65 c 1
 419 174 l 1
 464 174 l 1
 464 22 l 1
 425 7 381 1 331 1 c 0
 327 1 323 1 319 1 c 1
 319 -98 l 1
 273 -98 l 1
 273 3 l 1
 144 20 64 115 64 246 c 0
150 247 m 0
 150 144 198 69 273 48 c 1
 273 454 l 1
 195 432 150 359 150 247 c 0
EndSplineSet
EndChar

StartChar: sterling
Encoding: 163 163 97
Width: 556
Flags: HMW
HStem: 0 76<201 506 201 506> 305 47<76 147 76 148 76 147 231 419> 634 49<317.5 373.5>
VStem: 145 85<403.5 452>
LayerCount: 2
Back
SplineSet
417 531 m 1
 417 625 l 1
 399 631 382 634 365 634 c 0
 263 634 230 563 230 403 c 0
 230 387 230 370 231 352 c 1
 419 352 l 1
 419 305 l 1
 231 305 l 1
 231 301 231 296 231 292 c 0
 231 189 197 115 131 74 c 1
 133 71 l 1
 171 75 193 76 201 76 c 2
 506 76 l 1
 506 0 l 1
 37 0 l 1
 37 57 l 1
 130 83 148 142 148 270 c 0
 148 281 148 293 148 305 c 1
 76 305 l 1
 76 352 l 1
 147 352 l 1
 146 373 145 394 145 413 c 0
 145 491 155 550 184 594 c 0
 219 647 284 683 351 683 c 0
 447 683 508 637 508 581 c 0
 508 551 484 527 449 527 c 0
 440 527 430 528 417 531 c 1
EndSplineSet
Fore
SplineSet
37 0 m 1
 37 57 l 1
 130 83 148 142 148 270 c 0
 148 281 148 293 148 305 c 1
 76 305 l 1
 76 352 l 1
 147 352 l 1
 146 373 145 394 145 413 c 0
 145 491 155 550 184 594 c 0
 219 647 284 683 351 683 c 0
 447 683 508 637 508 581 c 0
 508 551 484 527 449 527 c 0
 440 527 430 528 417 531 c 1
 417 625 l 1
 399 631 382 634 365 634 c 0
 263 634 230 563 230 403 c 0
 230 387 230 370 231 352 c 1
 419 352 l 1
 419 305 l 1
 231 305 l 1
 231 301 231 296 231 292 c 0
 231 189 197 115 131 74 c 1
 133 71 l 1
 171 75 193 76 201 76 c 2
 506 76 l 1
 506 0 l 1
 37 0 l 1
EndSplineSet
EndChar

StartChar: fraction
Encoding: 8260 8260 98
Width: 167
Flags: HMW
HStem: 0 671<-161 327 -161 327>
VStem: -161 488
LayerCount: 2
Back
SplineSet
266 671 m 1
 327 671 l 1
 -100 0 l 1
 -161 0 l 1
 266 671 l 1
EndSplineSet
Fore
SplineSet
-161 0 m 1
 266 671 l 1
 327 671 l 1
 -100 0 l 1
 -161 0 l 1
EndSplineSet
EndChar

StartChar: yen
Encoding: 165 165 99
Width: 556
Flags: HMW
HStem: 0 41<143 401 143 143> 238 42<14 230 14 231 14 230 312 538 312 312> 384 42<14 150 14 177 14 150 394 538> 631 40<-6 206 -6 206>
VStem: -6 237 312 247
LayerCount: 2
Back
SplineSet
-6 671 m 1
 206 671 l 1
 206 631 l 1
 154 625 l 1
 145 614 l 1
 285 340 l 1
 438 606 l 1
 429 620 l 1
 374 631 l 1
 374 671 l 1
 559 671 l 1
 559 631 l 1
 504 618 l 1
 394 426 l 1
 538 426 l 1
 538 384 l 1
 367 384 l 1
 308 280 l 1
 538 280 l 1
 538 238 l 1
 312 238 l 1
 312 60 l 1
 329 46 l 1
 401 41 l 1
 401 0 l 1
 143 0 l 1
 143 41 l 1
 212 46 l 1
 231 60 l 1
 231 238 l 1
 14 238 l 1
 14 280 l 1
 230 280 l 1
 177 384 l 1
 14 384 l 1
 14 426 l 1
 150 426 l 1
 51 621 l 1
 -6 631 l 1
 -6 671 l 1
EndSplineSet
Fore
SplineSet
-6 631 m 1
 -6 671 l 1
 206 671 l 1
 206 631 l 1
 154 625 l 1
 145 614 l 1
 285 340 l 1
 438 606 l 1
 429 620 l 1
 374 631 l 1
 374 671 l 1
 559 671 l 1
 559 631 l 1
 504 618 l 1
 394 426 l 1
 538 426 l 1
 538 384 l 1
 367 384 l 1
 308 280 l 1
 538 280 l 1
 538 238 l 1
 312 238 l 1
 312 60 l 1
 329 46 l 1
 401 41 l 1
 401 0 l 1
 143 0 l 1
 143 41 l 1
 212 46 l 1
 231 60 l 1
 231 238 l 1
 14 238 l 1
 14 280 l 1
 230 280 l 1
 177 384 l 1
 14 384 l 1
 14 426 l 1
 150 426 l 1
 51 621 l 1
 -6 631 l 1
EndSplineSet
EndChar

StartChar: florin
Encoding: 402 402 100
Width: 556
Flags: HMW
HStem: -169 60<52 144> 319 49<104 219 104 219 300 462> 633 50<377 447>
VStem: 6 213<-129 319> 300 207<368 638.5>
LayerCount: 2
Back
SplineSet
462 561 m 1
 377 633 l 1
 311 609 300 552 300 448 c 2
 300 368 l 1
 462 368 l 1
 462 319 l 1
 300 319 l 1
 301 284 301 250 301 219 c 0
 301 103 294 16 255 -52 c 0
 214 -125 141 -169 72 -169 c 0
 32 -169 6 -146 6 -112 c 0
 6 -88 18 -67 42 -52 c 1
 144 -109 l 1
 205 -73 219 -9 219 100 c 2
 219 319 l 1
 104 319 l 1
 104 368 l 1
 219 368 l 1
 219 443 l 2
 219 521 232 572 282 622 c 0
 320 660 374 683 421 683 c 0
 473 683 507 656 507 621 c 0
 507 595 492 577 462 561 c 1
EndSplineSet
Fore
SplineSet
6 -112 m 0
 6 -88 18 -67 42 -52 c 1
 144 -109 l 1
 205 -73 219 -9 219 100 c 2
 219 319 l 1
 104 319 l 1
 104 368 l 1
 219 368 l 1
 219 443 l 2
 219 521 232 572 282 622 c 0
 320 660 374 683 421 683 c 0
 473 683 507 656 507 621 c 0
 507 595 492 577 462 561 c 1
 377 633 l 1
 311 609 300 552 300 448 c 2
 300 368 l 1
 462 368 l 1
 462 319 l 1
 300 319 l 1
 301 284 301 250 301 219 c 0
 301 103 294 16 255 -52 c 0
 214 -125 141 -169 72 -169 c 0
 32 -169 6 -146 6 -112 c 0
EndSplineSet
EndChar

StartChar: section
Encoding: 167 167 101
Width: 500
Flags: HW
HStem: -140 44<229.5 276 229.5 291.5> 676 42<225.5 269.5>
VStem: 63 73<275.5 323> 87 49<20 20> 361 45<566 695> 363 74<272 314>
LayerCount: 2
Back
SplineSet
406 695 m 1xe8
 406 566 l 1
 361 566 l 1xe8
 351 646 l 1
 315 666 284 676 255 676 c 0
 196 676 154 639 154 591 c 0
 154 533 211 516 301 472 c 0
 392 427 437 376 437 306 c 0
 437 238 392 175 315 144 c 1
 386 112 419 70 419 11 c 0
 419 -75 347 -140 236 -140 c 0
 190 -140 141 -130 89 -109 c 1
 87 20 l 1xd4
 136 20 l 1
 149 -70 l 1
 182 -88 214 -96 245 -96 c 0
 307 -96 348 -60 348 -13 c 0
 348 53 282 76 178 125 c 0
 102 161 63 219 63 287 c 0
 63 359 102 409 181 443 c 1
 112 477 80 516 80 574 c 0
 80 665 148 718 272 718 c 0
 316 718 361 710 406 695 c 1xe8
223 424 m 1xd4
 165 398 136 359 136 309 c 0
 136 242 182 205 279 162 c 1
 335 199 363 238 363 284 c 0
 363 344 317 389 223 424 c 1xd4
EndSplineSet
Fore
SplineSet
63 287 m 0
 63 359 102 409 181 443 c 1
 112 477 80 516 80 574 c 0
 80 665 148 718 272 718 c 0
 316 718 361 710 406 695 c 1xe8
 406 566 l 1
 361 566 l 1xe8
 351 646 l 1
 315 666 284 676 255 676 c 0
 196 676 154 639 154 591 c 0
 154 533 211 516 301 472 c 0
 392 427 437 376 437 306 c 0
 437 238 392 175 315 144 c 1
 386 112 419 70 419 11 c 0
 419 -75 347 -140 236 -140 c 0
 190 -140 141 -130 89 -109 c 1
 87 20 l 1xd4
 136 20 l 1
 149 -70 l 1
 182 -88 214 -96 245 -96 c 0
 307 -96 348 -60 348 -13 c 0
 348 53 282 76 178 125 c 0
 102 161 63 219 63 287 c 0
136 309 m 0
 136 242 182 205 279 162 c 1
 335 199 363 238 363 284 c 0
 363 344 317 389 223 424 c 1xd4
 165 398 136 359 136 309 c 0
EndSplineSet
EndChar

StartChar: currency
Encoding: 164 164 102
Width: 606
Flags: HMW
HStem: 229 50<279 327> 586 50<279.5 326.5 279.5 346.5>
VStem: 100 51<409 455> 457 50<409 455 409 475>
LayerCount: 2
Back
SplineSet
77 693 m 1
 178 592 l 1
 216 621 256 636 303 636 c 0
 350 636 392 621 430 592 c 1
 530 693 l 1
 565 657 l 1
 465 557 l 1
 493 520 507 478 507 432 c 0
 507 386 493 344 465 307 c 1
 565 207 l 1
 530 171 l 1
 430 272 l 1
 393 243 351 229 303 229 c 0
 255 229 215 243 178 272 c 1
 77 171 l 1
 42 207 l 1
 143 307 l 1
 115 344 100 386 100 432 c 0
 100 478 115 520 143 557 c 1
 42 657 l 1
 77 693 l 1
304 586 m 0
 219 586 151 517 151 433 c 0
 151 348 219 279 304 279 c 0
 389 279 457 349 457 433 c 0
 457 517 389 586 304 586 c 0
EndSplineSet
Fore
SplineSet
42 207 m 1
 143 307 l 1
 115 344 100 386 100 432 c 0
 100 478 115 520 143 557 c 1
 42 657 l 1
 77 693 l 1
 178 592 l 1
 216 621 256 636 303 636 c 0
 350 636 392 621 430 592 c 1
 530 693 l 1
 565 657 l 1
 465 557 l 1
 493 520 507 478 507 432 c 0
 507 386 493 344 465 307 c 1
 565 207 l 1
 530 171 l 1
 430 272 l 1
 393 243 351 229 303 229 c 0
 255 229 215 243 178 272 c 1
 77 171 l 1
 42 207 l 1
151 433 m 0
 151 348 219 279 304 279 c 0
 389 279 457 349 457 433 c 0
 457 517 389 586 304 586 c 0
 219 586 151 517 151 433 c 0
EndSplineSet
EndChar

StartChar: quotesingle
Encoding: 39 39 103
Width: 170
Flags: HMW
HStem: 422 292<77 93 77 77>
VStem: 44 83<662.5 680.5>
LayerCount: 2
Back
SplineSet
93 422 m 1
 77 422 l 1
 45 645 l 2
 44 652 44 658 44 664 c 0
 44 697 59 714 85 714 c 0
 111 714 127 697 127 665 c 0
 127 660 126 653 125 645 c 2
 93 422 l 1
EndSplineSet
Fore
SplineSet
44 664 m 0
 44 697 59 714 85 714 c 0
 111 714 127 697 127 665 c 0
 127 660 126 653 125 645 c 2
 93 422 l 1
 77 422 l 1
 45 645 l 2
 44 652 44 658 44 664 c 0
EndSplineSet
EndChar

StartChar: quotedblleft
Encoding: 8220 8220 104
Width: 403
Flags: HMW
HStem: 442 271<89.5 174 332 333>
VStem: 35 138<506 506.5 484 563> 236 139<506 506.5 484 563>
LayerCount: 2
Back
SplineSet
131 713 m 1
 174 713 l 1
 121 654 94 605 94 559 c 0
 94 551 94 544 96 536 c 1
 160 536 l 1
 169 523 173 512 173 501 c 0
 173 467 149 442 113 442 c 0
 66 442 35 478 35 534 c 0
 35 592 67 652 131 713 c 1
332 713 m 1
 375 713 l 1
 322 654 295 605 295 559 c 0
 295 551 295 544 297 536 c 1
 362 536 l 1
 371 523 375 512 375 501 c 0
 375 467 351 442 315 442 c 0
 268 442 236 478 236 534 c 0
 236 592 268 652 332 713 c 1
EndSplineSet
Fore
SplineSet
236 534 m 0
 236 592 268 652 332 713 c 1
 375 713 l 1
 322 654 295 605 295 559 c 0
 295 551 295 544 297 536 c 1
 362 536 l 1
 371 523 375 512 375 501 c 0
 375 467 351 442 315 442 c 0
 268 442 236 478 236 534 c 0
EndSplineSet
Refer: 64 8216 S 1 0 0 1 0 0 2
EndChar

StartChar: guillemotleft
Encoding: 171 171 105
Width: 442
Flags: HMW
HStem: 67 346<203 203 203 400>
VStem: 39 164<67 280 67 280> 237 163<67 280 67 280>
LayerCount: 2
Back
SplineSet
203 413 m 1
 203 347 l 1
 86 240 l 1
 203 132 l 1
 203 67 l 1
 39 200 l 1
 39 280 l 1
 203 413 l 1
400 413 m 1
 400 347 l 1
 283 240 l 1
 400 132 l 1
 400 67 l 1
 237 200 l 1
 237 280 l 1
 400 413 l 1
EndSplineSet
Fore
SplineSet
237 200 m 1
 237 280 l 1
 400 413 l 1
 400 347 l 1
 283 240 l 1
 400 132 l 1
 400 67 l 1
 237 200 l 1
EndSplineSet
Refer: 106 8249 S 1 0 0 1 0 0 2
EndChar

StartChar: guilsinglleft
Encoding: 8249 8249 106
Width: 245
Flags: HMW
HStem: 67 346<203 203>
VStem: 39 164<67 280 67 280>
LayerCount: 2
Back
SplineSet
203 413 m 1
 203 347 l 1
 86 240 l 1
 203 132 l 1
 203 67 l 1
 39 200 l 1
 39 280 l 1
 203 413 l 1
EndSplineSet
Fore
SplineSet
39 200 m 1
 39 280 l 1
 203 413 l 1
 203 347 l 1
 86 240 l 1
 203 132 l 1
 203 67 l 1
 39 200 l 1
EndSplineSet
EndChar

StartChar: guilsinglright
Encoding: 8250 8250 107
Width: 245
Flags: HMW
HStem: 67 346<46 46>
VStem: 46 163<67 280 132 280 200 413 200 413>
LayerCount: 2
Back
SplineSet
46 413 m 1
 209 280 l 1
 209 200 l 1
 46 67 l 1
 46 132 l 1
 163 240 l 1
 46 347 l 1
 46 413 l 1
EndSplineSet
Fore
SplineSet
46 67 m 1
 46 132 l 1
 163 240 l 1
 46 347 l 1
 46 413 l 1
 209 280 l 1
 209 200 l 1
 46 67 l 1
EndSplineSet
EndChar

StartChar: fi
Encoding: 64257 64257 108
Width: 574
Flags: HW
HStem: 0 36<29 251 29 29> 421 47<36 100 184 390> 593 103<436.5 465.5> 693 51<242 315.5>
VStem: 100 83<57 421 57 421 57 484 57 564> 398 83<57 421 421 421>
LayerCount: 2
Back
SplineSet
319 637 m 1xdc
 242 693 l 1
 203 671 184 621 184 541 c 2
 184 468 l 1
 390 468 l 1
 448 495 l 1
 481 495 l 1
 481 57 l 1
 497 41 l 1
 544 36 l 1
 544 0 l 1
 326 0 l 1
 326 36 l 1
 380 41 l 1
 398 57 l 1
 398 421 l 1
 183 421 l 1
 183 57 l 1
 200 41 l 1
 251 36 l 1
 251 0 l 1
 29 0 l 1
 29 36 l 1
 82 41 l 1
 100 57 l 1
 100 421 l 1
 36 421 l 1
 36 452 l 1
 100 468 l 1
 100 473 100 478 100 484 c 0
 100 644 189 744 295 744 c 0
 336 744 362 722 362 691 c 0
 362 666 348 649 319 637 c 1xdc
399 645 m 0x20
 399 674 421 696 451 696 c 0
 480 696 503 673 503 645 c 0
 503 616 480 593 451 593 c 0
 422 593 399 616 399 645 c 0x20
EndSplineSet
Fore
SplineSet
29 0 m 1
 29 36 l 1
 82 41 l 1
 100 57 l 1
 100 421 l 1
 36 421 l 1
 36 452 l 1
 100 468 l 1
 100 473 100 478 100 484 c 0
 100 644 189 744 295 744 c 0
 336 744 362 722 362 691 c 0
 362 666 348 649 319 637 c 1xdc
 242 693 l 1
 203 671 184 621 184 541 c 2
 184 468 l 1
 390 468 l 1
 448 495 l 1
 481 495 l 1
 481 57 l 1
 497 41 l 1
 544 36 l 1
 544 0 l 1
 326 0 l 1
 326 36 l 1
 380 41 l 1
 398 57 l 1
 398 421 l 1
 183 421 l 1
 183 57 l 1
 200 41 l 1
 251 36 l 1
 251 0 l 1
 29 0 l 1
399 645 m 0x20
 399 674 421 696 451 696 c 0
 480 696 503 673 503 645 c 0
 503 616 480 593 451 593 c 0
 422 593 399 616 399 645 c 0x20
EndSplineSet
EndChar

StartChar: fl
Encoding: 64258 64258 109
Width: 579
Flags: HMW
HStem: 0 36<29 251 29 29> 421 47<36 100 184 323> 697 47<249 249>
VStem: 100 83<57 421 57 421 57 484 57 564> 403 83<57 667 667 667>
LayerCount: 2
Back
SplineSet
464 743 m 1
 486 743 l 1
 486 57 l 1
 503 41 l 1
 560 36 l 1
 560 0 l 1
 333 0 l 1
 333 36 l 1
 386 41 l 1
 403 57 l 1
 403 667 l 1
 358 667 l 1
 323 641 l 1
 249 697 l 1
 206 677 184 625 184 541 c 2
 184 468 l 1
 323 468 l 1
 323 421 l 1
 183 421 l 1
 183 57 l 1
 200 41 l 1
 251 36 l 1
 251 0 l 1
 29 0 l 1
 29 36 l 1
 82 41 l 1
 100 57 l 1
 100 421 l 1
 36 421 l 1
 36 452 l 1
 100 468 l 1
 100 473 100 478 100 484 c 0
 100 644 189 744 295 744 c 0
 334 744 358 725 362 695 c 1
 464 743 l 1
EndSplineSet
Fore
SplineSet
29 0 m 1
 29 36 l 1
 82 41 l 1
 100 57 l 1
 100 421 l 1
 36 421 l 1
 36 452 l 1
 100 468 l 1
 100 473 100 478 100 484 c 0
 100 644 189 744 295 744 c 0
 334 744 358 725 362 695 c 1
 464 743 l 1
 486 743 l 1
 486 57 l 1
 503 41 l 1
 560 36 l 1
 560 0 l 1
 333 0 l 1
 333 36 l 1
 386 41 l 1
 403 57 l 1
 403 667 l 1
 358 667 l 1
 323 641 l 1
 249 697 l 1
 206 677 184 625 184 541 c 2
 184 468 l 1
 323 468 l 1
 323 421 l 1
 183 421 l 1
 183 57 l 1
 200 41 l 1
 251 36 l 1
 251 0 l 1
 29 0 l 1
EndSplineSet
EndChar

StartChar: endash
Encoding: 8211 8211 110
Width: 500
Flags: HMW
HStem: 210 61<0 500 0 500>
VStem: 0 500<210 271 210 271>
LayerCount: 2
Back
SplineSet
0 271 m 1
 500 271 l 1
 500 210 l 1
 0 210 l 1
 0 271 l 1
EndSplineSet
Fore
SplineSet
0 210 m 1
 0 271 l 1
 500 271 l 1
 500 210 l 1
 0 210 l 1
EndSplineSet
EndChar

StartChar: dagger
Encoding: 8224 8224 111
Width: 500
Flags: HMW
HStem: -129 20 460 42<243 257 243 257> 698 20<249 249>
LayerCount: 2
Back
SplineSet
249 718 m 1
 294 642 l 1
 257 502 l 1
 243 502 l 1
 205 642 l 1
 249 718 l 1
88 528 m 1
 232 488 l 1
 232 472 l 1
 88 437 l 1
 17 483 l 1
 88 528 l 1
410 528 m 1
 483 483 l 1
 410 437 l 1
 269 472 l 1
 269 488 l 1
 410 528 l 1
243 460 m 1
 257 460 l 1
 299 294 l 1
 257 -129 l 1
 243 -129 l 1
 202 294 l 1
 243 460 l 1
EndSplineSet
Fore
SplineSet
17 483 m 1
 88 528 l 1
 232 488 l 1
 232 472 l 1
 88 437 l 1
 17 483 l 1
202 294 m 1
 243 460 l 1
 257 460 l 1
 299 294 l 1
 257 -129 l 1
 243 -129 l 1
 202 294 l 1
205 642 m 1
 249 718 l 1
 294 642 l 1
 257 502 l 1
 243 502 l 1
 205 642 l 1
269 472 m 1
 269 488 l 1
 410 528 l 1
 483 483 l 1
 410 437 l 1
 269 472 l 1
EndSplineSet
EndChar

StartChar: daggerdbl
Encoding: 8225 8225 112
Width: 500
Flags: HMW
HStem: -132 20 84 43<243 257 243 257> 460 42<243 257 243 257> 698 20<249 249>
LayerCount: 2
Back
SplineSet
249 718 m 1
 294 642 l 1
 257 502 l 1
 243 502 l 1
 205 642 l 1
 249 718 l 1
88 528 m 1
 232 488 l 1
 232 472 l 1
 88 437 l 1
 17 483 l 1
 88 528 l 1
410 528 m 1
 483 483 l 1
 410 437 l 1
 269 472 l 1
 269 488 l 1
 410 528 l 1
243 460 m 1
 257 460 l 1
 305 294 l 1
 257 127 l 1
 243 127 l 1
 192 294 l 1
 243 460 l 1
88 151 m 1
 232 111 l 1
 232 95 l 1
 88 60 l 1
 17 106 l 1
 88 151 l 1
410 151 m 1
 483 106 l 1
 410 60 l 1
 269 95 l 1
 269 111 l 1
 410 151 l 1
243 84 m 1
 257 84 l 1
 294 -56 l 1
 249 -132 l 1
 205 -56 l 1
 243 84 l 1
EndSplineSet
Fore
SplineSet
17 106 m 1
 88 151 l 1
 232 111 l 1
 232 95 l 1
 88 60 l 1
 17 106 l 1
17 483 m 1
 88 528 l 1
 232 488 l 1
 232 472 l 1
 88 437 l 1
 17 483 l 1
192 294 m 1
 243 460 l 1
 257 460 l 1
 305 294 l 1
 257 127 l 1
 243 127 l 1
 192 294 l 1
205 -56 m 1
 243 84 l 1
 257 84 l 1
 294 -56 l 1
 249 -132 l 1
 205 -56 l 1
205 642 m 1
 249 718 l 1
 294 642 l 1
 257 502 l 1
 243 502 l 1
 205 642 l 1
269 95 m 1
 269 111 l 1
 410 151 l 1
 483 106 l 1
 410 60 l 1
 269 95 l 1
269 472 m 1
 269 488 l 1
 410 528 l 1
 483 483 l 1
 410 437 l 1
 269 472 l 1
EndSplineSet
EndChar

StartChar: periodcentered
Encoding: 183 183 113
Width: 278
Flags: HMW
HStem: 272 127<121.5 156.5>
VStem: 75 127<317.5 353>
LayerCount: 2
Back
SplineSet
139 399 m 0
 174 399 202 371 202 335 c 0
 202 300 174 272 139 272 c 0
 104 272 75 300 75 335 c 0
 75 371 104 399 139 399 c 0
EndSplineSet
Fore
Refer: 14 46 N 1 0 0 1 0 281 2
EndChar

StartChar: paragraph
Encoding: 182 182 114
Width: 484
Flags: HMW
HStem: -79 20 635 36<262 458>
VStem: 26 245<409 544> 347 49<-79 625 -79 630 -79 630>
LayerCount: 2
Back
SplineSet
458 671 m 1
 458 635 l 1
 396 625 l 1
 396 -79 l 1
 347 -79 l 1
 347 630 l 1
 271 630 l 1
 271 281 l 1
 265 281 259 281 253 281 c 0
 100 281 26 344 26 474 c 0
 26 614 101 671 262 671 c 2
 458 671 l 1
EndSplineSet
Fore
SplineSet
26 474 m 0
 26 614 101 671 262 671 c 2
 458 671 l 1
 458 635 l 1
 396 625 l 1
 396 -79 l 1
 347 -79 l 1
 347 630 l 1
 271 630 l 1
 271 281 l 1
 265 281 259 281 253 281 c 0
 100 281 26 344 26 474 c 0
EndSplineSet
EndChar

StartChar: bullet
Encoding: 8226 8226 115
Width: 590
Flags: HMW
HStem: 227 289<255 334>
VStem: 150 289<332.5 412 332.5 412>
LayerCount: 2
Back
SplineSet
150 372 m 0
 150 452 215 516 295 516 c 0
 374 516 439 452 439 372 c 0
 439 293 374 227 294 227 c 0
 214 227 150 292 150 372 c 0
EndSplineSet
Fore
SplineSet
150 372 m 0
 150 452 215 516 295 516 c 0
 374 516 439 452 439 372 c 0
 439 293 374 227 294 227 c 0
 214 227 150 292 150 372 c 0
EndSplineSet
EndChar

StartChar: quotesinglbase
Encoding: 8218 8218 116
Width: 201
Flags: HMW
HStem: -164 271<31 115.5 31 115.5>
VStem: 32 138<-13.5 65>
LayerCount: 2
Back
SplineSet
74 -164 m 1
 31 -164 l 1
 83 -105 111 -57 111 -11 c 0
 111 -3 111 4 109 12 c 1
 45 12 l 1
 36 25 32 37 32 49 c 0
 32 81 56 107 92 107 c 0
 139 107 170 71 170 15 c 0
 170 -42 138 -103 74 -164 c 1
EndSplineSet
Fore
SplineSet
31 -164 m 1
 83 -105 111 -57 111 -11 c 0
 111 -3 111 4 109 12 c 1
 45 12 l 1
 36 25 32 37 32 49 c 0
 32 81 56 107 92 107 c 0
 139 107 170 71 170 15 c 0
 170 -42 138 -103 74 -164 c 1
 31 -164 l 1
EndSplineSet
EndChar

StartChar: quotedblbase
Encoding: 8222 8222 117
Width: 403
Flags: HMW
HStem: -164 271<31 115.5 31 115.5 74 233 275 276>
VStem: 32 138<-13.5 65> 233 138<-13.5 65>
LayerCount: 2
Back
SplineSet
74 -164 m 1
 31 -164 l 1
 83 -105 111 -57 111 -11 c 0
 111 -3 111 4 109 12 c 1
 45 12 l 1
 36 25 32 37 32 49 c 0
 32 81 56 107 92 107 c 0
 139 107 170 71 170 15 c 0
 170 -42 138 -103 74 -164 c 1
276 -164 m 1
 233 -164 l 1
 285 -105 313 -57 313 -11 c 0
 313 -3 313 4 311 12 c 1
 246 12 l 1
 237 25 233 37 233 49 c 0
 233 81 257 107 293 107 c 0
 340 107 371 71 371 15 c 0
 371 -42 340 -103 276 -164 c 1
EndSplineSet
Fore
SplineSet
233 49 m 0
 233 81 257 107 293 107 c 0
 340 107 371 71 371 15 c 0
 371 -42 340 -103 276 -164 c 1
 233 -164 l 1
 285 -105 313 -57 313 -11 c 0
 313 -3 313 4 311 12 c 1
 246 12 l 1
 237 25 233 37 233 49 c 0
EndSplineSet
Refer: 116 8218 N 1 0 0 1 0 0 2
EndChar

StartChar: quotedblright
Encoding: 8221 8221 118
Width: 403
Flags: HMW
HStem: 442 271<73 74 31 114.5 73 232 274 275>
VStem: 31 139<592.5 672> 233 138<592.5 672>
LayerCount: 2
Back
SplineSet
74 442 m 1
 31 442 l 1
 84 500 111 549 111 596 c 0
 111 604 111 611 109 619 c 1
 44 619 l 1
 35 632 31 644 31 656 c 0
 31 688 55 713 91 713 c 0
 138 713 170 677 170 621 c 0
 170 564 138 503 74 442 c 1
275 442 m 1
 232 442 l 1
 285 500 312 549 312 596 c 0
 312 604 312 611 310 619 c 1
 246 619 l 1
 237 632 233 644 233 656 c 0
 233 688 256 713 292 713 c 0
 339 713 371 677 371 621 c 0
 371 564 339 503 275 442 c 1
EndSplineSet
Fore
SplineSet
232 442 m 1
 285 500 312 549 312 596 c 0
 312 604 312 611 310 619 c 1
 246 619 l 1
 237 632 233 644 233 656 c 0
 233 688 256 713 292 713 c 0
 339 713 371 677 371 621 c 0
 371 564 339 503 275 442 c 1
 232 442 l 1
EndSplineSet
Refer: 7 8217 S 1 0 0 1 0 0 2
EndChar

StartChar: guillemotright
Encoding: 187 187 119
Width: 442
Flags: HMW
HStem: 67 346<46 46 46 243>
VStem: 46 163<67 280 132 280 200 413 200 413> 243 164<67 280 132 280 200 413 200 413>
LayerCount: 2
Back
SplineSet
46 413 m 1
 209 280 l 1
 209 200 l 1
 46 67 l 1
 46 132 l 1
 163 240 l 1
 46 347 l 1
 46 413 l 1
243 413 m 1
 407 280 l 1
 407 200 l 1
 243 67 l 1
 243 132 l 1
 360 240 l 1
 243 347 l 1
 243 413 l 1
EndSplineSet
Fore
SplineSet
243 67 m 1
 243 132 l 1
 360 240 l 1
 243 347 l 1
 243 413 l 1
 407 280 l 1
 407 200 l 1
 243 67 l 1
EndSplineSet
Refer: 107 8250 S 1 0 0 1 0 0 2
EndChar

StartChar: ellipsis
Encoding: 8230 8230 120
Width: 1000
Flags: HMW
HStem: -9 127<149.5 184.5 482.5 517.5 816.5 851.5>
VStem: 103 127<36.5 72 36.5 72> 436 127<36.5 72 36.5 72> 770 127<36.5 72 36.5 72>
LayerCount: 2
Back
SplineSet
167 118 m 0
 202 118 230 90 230 54 c 0
 230 19 202 -9 167 -9 c 0
 132 -9 103 18 103 54 c 0
 103 90 132 118 167 118 c 0
500 118 m 0
 535 118 563 90 563 54 c 0
 563 19 535 -9 500 -9 c 0
 465 -9 436 18 436 54 c 0
 436 90 465 118 500 118 c 0
834 118 m 0
 869 118 897 90 897 54 c 0
 897 19 869 -9 834 -9 c 0
 799 -9 770 18 770 54 c 0
 770 90 799 118 834 118 c 0
EndSplineSet
Fore
Refer: 14 46 S 1 0 0 1 695 0 2
Refer: 14 46 S 1 0 0 1 361 0 2
Refer: 14 46 S 1 0 0 1 28 0 2
EndChar

StartChar: perthousand
Encoding: 8240 8240 121
Width: 1225
Flags: HW
HStem: -12 36<643.5 695 643.5 716.5 1015.5 1067> 264 36<153.5 205 153.5 226.5> 372 35<644 694.5 1016 1066.5> 647 36<154 204.5>
VStem: 31 70<416.5 531 416.5 540> 259 72<416.5 531.5> 521 70<140.5 255 140.5 264> 749 72<140.5 255.5> 893 70<140.5 255 140.5 264> 1121 72<140.5 255.5>
LayerCount: 2
Back
SplineSet
181 683 m 0
 271 683 331 606 331 474 c 0
 331 341 272 264 181 264 c 0
 90 264 31 340 31 474 c 0
 31 606 91 683 181 683 c 0
608 671 m 1
 669 671 l 1
 241 0 l 1
 181 0 l 1
 608 671 l 1
179 647 m 0xffc0
 129 647 101 588 101 474 c 0
 101 359 128 300 179 300 c 0
 231 300 259 359 259 474 c 0
 259 589 230 647 179 647 c 0xffc0
671 407 m 0
 761 407 821 330 821 198 c 0
 821 65 762 -12 671 -12 c 0
 580 -12 521 64 521 198 c 0
 521 330 581 407 671 407 c 0
1043 407 m 0
 1133 407 1193 330 1193 198 c 0
 1193 65 1134 -12 1043 -12 c 0
 952 -12 893 64 893 198 c 0
 893 330 953 407 1043 407 c 0
669 372 m 0
 619 372 591 312 591 198 c 0
 591 83 618 24 669 24 c 0
 721 24 749 83 749 198 c 0
 749 313 720 372 669 372 c 0
1041 372 m 0
 991 372 963 312 963 198 c 0
 963 83 990 24 1041 24 c 0
 1093 24 1121 83 1121 198 c 0
 1121 313 1092 372 1041 372 c 0
EndSplineSet
Fore
SplineSet
893 198 m 4
 893 330 953 407 1043 407 c 4
 1133 407 1193 330 1193 198 c 4
 1193 65 1134 -12 1043 -12 c 4
 952 -12 893 64 893 198 c 4
963 198 m 4
 963 83 990 24 1041 24 c 4
 1093 24 1121 83 1121 198 c 4
 1121 313 1092 372 1041 372 c 4
 991 372 963 312 963 198 c 4
EndSplineSet
Refer: 5 37 N 1 0 0 1 0 0 2
EndChar

StartChar: questiondown
Encoding: 191 191 122
Width: 486
Flags: HW
HStem: -9 46<290 297 290 312.5> 569 114<253 284.5>
VStem: 60 91<133.5 219> 212 114<610 641.5> 243 52<386 503 357 503>
LayerCount: 2
Back
SplineSet
269 683 m 0x50
 300 683 326 658 326 626 c 0
 326 594 300 569 269 569 c 0
 237 569 212 594 212 626 c 0
 212 657 237 683 269 683 c 0x50
243 503 m 1xa8
 295 503 l 1
 295 357 l 1
 199 321 151 261 151 178 c 0
 151 89 201 37 290 37 c 0
 292 37 293 37 297 37 c 1
 336 136 l 1
 342 137 348 137 354 137 c 0
 393 137 415 117 415 84 c 0
 415 34 357 -9 268 -9 c 0
 140 -9 60 64 60 172 c 0
 60 266 120 333 243 386 c 1
 243 503 l 1xa8
EndSplineSet
Fore
SplineSet
60 172 m 0
 60 266 120 333 243 386 c 1
 243 503 l 1xa8
 295 503 l 1
 295 357 l 1
 199 321 151 261 151 178 c 0
 151 89 201 37 290 37 c 0
 292 37 293 37 297 37 c 1
 336 136 l 1
 342 137 348 137 354 137 c 0
 393 137 415 117 415 84 c 0
 415 34 357 -9 268 -9 c 0
 140 -9 60 64 60 172 c 0
212 626 m 0
 212 657 237 683 269 683 c 0x50
 300 683 326 658 326 626 c 0
 326 594 300 569 269 569 c 0
 237 569 212 594 212 626 c 0
EndSplineSet
EndChar

StartChar: grave
Encoding: 96 96 123
Width: 500
Flags: HMW
HStem: 546 190<104 300 104 250>
VStem: 104 196<546 736>
LayerCount: 2
Back
SplineSet
104 736 m 1
 203 736 l 1
 300 546 l 1
 250 546 l 1
 104 736 l 1
EndSplineSet
Fore
SplineSet
104 736 m 1
 203 736 l 1
 300 546 l 1
 250 546 l 1
 104 736 l 1
EndSplineSet
EndChar

StartChar: acute
Encoding: 180 180 124
Width: 500
Flags: HMW
HStem: 546 190<212 408 212 408>
VStem: 212 196<546 736>
LayerCount: 2
Back
SplineSet
309 736 m 1
 408 736 l 1
 262 546 l 1
 212 546 l 1
 309 736 l 1
EndSplineSet
Fore
SplineSet
212 546 m 1
 309 736 l 1
 408 736 l 1
 262 546 l 1
 212 546 l 1
EndSplineSet
EndChar

StartChar: circumflex
Encoding: 710 710 125
Width: 500
Flags: HMW
HStem: 546 190<108 282 108 282 218 392 218 338>
VStem: 108 284<546 546>
LayerCount: 2
Back
SplineSet
218 736 m 1
 282 736 l 1
 392 546 l 1
 338 546 l 1
 250 687 l 1
 163 546 l 1
 108 546 l 1
 218 736 l 1
EndSplineSet
Fore
SplineSet
108 546 m 1
 218 736 l 1
 282 736 l 1
 392 546 l 1
 338 546 l 1
 250 687 l 1
 163 546 l 1
 108 546 l 1
EndSplineSet
EndChar

StartChar: tilde
Encoding: 732 732 126
Width: 500
Flags: HW
HStem: 587 54<304 334.5 304 342.5> 639 54<164.5 190>
VStem: 97 305<573 708 581.5 708>
LayerCount: 2
Back
SplineSet
361 708 m 1x80
 402 708 l 1
 402 703 403 698 403 693 c 0x60
 403 628 366 587 319 587 c 0x80
 258 587 205 639 175 639 c 0
 154 639 139 619 139 585 c 0
 139 581 140 577 140 573 c 1
 97 573 l 1
 97 577 97 580 97 583 c 0
 97 656 128 693 182 693 c 0x60
 237 693 288 641 320 641 c 0
 349 641 361 660 361 703 c 0
 361 705 361 706 361 708 c 1x80
EndSplineSet
Fore
SplineSet
97 573 m 5
 97 577 97 580 97 583 c 4
 97 656 128 693 182 693 c 4x60
 237 693 288 641 320 641 c 4
 349 641 361 660 361 703 c 4
 361 705 361 706 361 708 c 5x80
 402 708 l 5
 402 703 403 698 403 693 c 4x60
 403 628 366 587 319 587 c 4x80
 258 587 205 639 175 639 c 4
 154 639 139 619 139 585 c 4
 139 581 140 577 140 573 c 5
 97 573 l 5
EndSplineSet
EndChar

StartChar: macron
Encoding: 175 175 127
Width: 500
Flags: HMW
HStem: 608 60<102 403 102 403>
VStem: 102 301<608 668 608 668>
LayerCount: 2
Back
SplineSet
102 668 m 1
 403 668 l 1
 403 608 l 1
 102 608 l 1
 102 668 l 1
EndSplineSet
Fore
SplineSet
102 608 m 1
 102 668 l 1
 403 668 l 1
 403 608 l 1
 102 608 l 1
EndSplineSet
EndChar

StartChar: breve
Encoding: 728 728 128
Width: 500
Flags: HMW
HStem: 567 63<214.5 287 214.5 301>
VStem: 109 39<698 702.5 702.5 709 707 709> 352 40<701 709 707.5 709>
LayerCount: 2
Back
SplineSet
109 709 m 1
 148 709 l 1
 148 706 148 704 148 701 c 0
 148 647 178 630 251 630 c 0
 323 630 352 647 352 701 c 0
 352 704 352 706 352 709 c 1
 392 709 l 1
 392 705 392 702 392 698 c 0
 392 602 351 567 251 567 c 0
 149 567 109 601 109 698 c 0
 109 702 109 705 109 709 c 1
EndSplineSet
Fore
SplineSet
109 698 m 0
 109 702 109 705 109 709 c 1
 148 709 l 1
 148 706 148 704 148 701 c 0
 148 647 178 630 251 630 c 0
 323 630 352 647 352 701 c 0
 352 704 352 706 352 709 c 1
 392 709 l 1
 392 705 392 702 392 698 c 0
 392 602 351 567 251 567 c 0
 149 567 109 601 109 698 c 0
EndSplineSet
EndChar

StartChar: dotaccent
Encoding: 729 729 129
Width: 500
Flags: HMW
HStem: 590 106<235 265>
VStem: 197 107<627.5 657>
LayerCount: 2
Back
SplineSet
250 696 m 0
 280 696 304 673 304 642 c 0
 304 612 280 590 250 590 c 0
 220 590 197 613 197 642 c 0
 197 672 220 696 250 696 c 0
EndSplineSet
Fore
SplineSet
197 642 m 0
 197 672 220 696 250 696 c 0
 280 696 304 673 304 642 c 0
 304 612 280 590 250 590 c 0
 220 590 197 613 197 642 c 0
EndSplineSet
EndChar

StartChar: dieresis
Encoding: 168 168 130
Width: 500
Flags: HMW
HStem: 590 101<143 171 329 357>
VStem: 106 101<626 654.5> 292 101<626 654.5>
LayerCount: 2
Back
SplineSet
157 691 m 0
 185 691 207 669 207 640 c 0
 207 612 185 590 157 590 c 0
 129 590 106 612 106 640 c 0
 106 669 129 691 157 691 c 0
343 691 m 0
 371 691 393 669 393 640 c 0
 393 612 371 590 343 590 c 0
 315 590 292 612 292 640 c 0
 292 669 315 691 343 691 c 0
EndSplineSet
Fore
SplineSet
106 640 m 0
 106 669 129 691 157 691 c 0
 185 691 207 669 207 640 c 0
 207 612 185 590 157 590 c 0
 129 590 106 612 106 640 c 0
292 640 m 0
 292 669 315 691 343 691 c 0
 371 691 393 669 393 640 c 0
 393 612 371 590 343 590 c 0
 315 590 292 612 292 640 c 0
EndSplineSet
EndChar

StartChar: ring
Encoding: 730 730 131
Width: 500
Flags: HMW
HStem: 546 45<230 270.5 230 283> 736 45<230 270.5>
VStem: 133 45<643 683.5 643 697> 323 45<643 683.5>
LayerCount: 2
Back
SplineSet
250 781 m 0
 316 781 368 730 368 664 c 0
 368 598 316 546 250 546 c 0
 184 546 133 598 133 664 c 0
 133 730 184 781 250 781 c 0
250 736 m 0
 210 736 178 704 178 663 c 0
 178 623 210 591 250 591 c 0
 291 591 323 623 323 663 c 0
 323 704 291 736 250 736 c 0
EndSplineSet
Fore
SplineSet
133 664 m 0
 133 730 184 781 250 781 c 0
 316 781 368 730 368 664 c 0
 368 598 316 546 250 546 c 0
 184 546 133 598 133 664 c 0
178 663 m 0
 178 623 210 591 250 591 c 0
 291 591 323 623 323 663 c 0
 323 704 291 736 250 736 c 0
 210 736 178 704 178 663 c 0
EndSplineSet
EndChar

StartChar: cedilla
Encoding: 184 184 132
Width: 500
Flags: HMW
HStem: -223 38<239 260.5 228.5 286> -105 45<252.5 315.5> -20 20<235 272 272 272>
VStem: 235 37<-61 0 -61 0 -61 0> 306 61<-155 -130.5>
LayerCount: 2
Back
SplineSet
235 0 m 1
 272 0 l 1
 272 -61 l 1
 281 -60 288 -60 292 -60 c 0
 339 -60 367 -87 367 -132 c 0
 367 -187 323 -223 249 -223 c 0
 229 -223 206 -220 180 -213 c 1
 180 -177 l 1
 199 -182 218 -185 239 -185 c 0
 282 -185 306 -168 306 -142 c 0
 306 -119 288 -105 256 -105 c 0
 249 -105 242 -106 235 -107 c 1
 235 0 l 1
EndSplineSet
Fore
SplineSet
180 -177 m 1
 199 -182 218 -185 239 -185 c 0
 282 -185 306 -168 306 -142 c 0
 306 -119 288 -105 256 -105 c 0
 249 -105 242 -106 235 -107 c 1
 235 0 l 1
 272 0 l 1
 272 -61 l 1
 281 -60 288 -60 292 -60 c 0
 339 -60 367 -87 367 -132 c 0
 367 -187 323 -223 249 -223 c 0
 229 -223 206 -220 180 -213 c 1
 180 -177 l 1
EndSplineSet
EndChar

StartChar: hungarumlaut
Encoding: 733 733 133
Width: 500
Flags: HW
HStem: 546 190<133 315 133 315 237 237 237 284>
VStem: 133 182 237 236<546 736>
LayerCount: 2
Back
SplineSet
227 736 m 1xc0
 315 736 l 1
 174 546 l 1
 133 546 l 1
 227 736 l 1xc0
375 736 m 1xa0
 473 736 l 1
 284 546 l 1
 237 546 l 1
 375 736 l 1xa0
EndSplineSet
Fore
SplineSet
133 546 m 1
 227 736 l 1xc0
 315 736 l 1
 174 546 l 1
 133 546 l 1
237 546 m 1
 375 736 l 1xa0
 473 736 l 1
 284 546 l 1
 237 546 l 1
EndSplineSet
EndChar

StartChar: ogonek
Encoding: 731 731 134
Width: 500
Flags: HMW
HStem: -216 53<278.5 287> -20 20<250 294 294 294>
VStem: 182 58<-124.5 -108>
LayerCount: 2
Back
SplineSet
250 0 m 1
 294 0 l 1
 259 -30 240 -69 240 -106 c 0
 240 -143 260 -163 297 -163 c 0
 305 -163 317 -161 330 -159 c 1
 330 -209 l 1
 313 -214 295 -216 279 -216 c 0
 215 -216 182 -186 182 -131 c 0
 182 -85 206 -34 250 0 c 1
EndSplineSet
Fore
SplineSet
182 -131 m 0
 182 -85 206 -34 250 0 c 1
 294 0 l 1
 259 -30 240 -69 240 -106 c 0
 240 -143 260 -163 297 -163 c 0
 305 -163 317 -161 330 -159 c 1
 330 -209 l 1
 313 -214 295 -216 279 -216 c 0
 215 -216 182 -186 182 -131 c 0
EndSplineSet
EndChar

StartChar: caron
Encoding: 711 711 135
Width: 500
Flags: HMW
HStem: 546 190<108 282 108 218>
VStem: 108 284<736 736>
LayerCount: 2
Back
SplineSet
108 736 m 1
 163 736 l 1
 250 595 l 1
 338 736 l 1
 392 736 l 1
 282 546 l 1
 218 546 l 1
 108 736 l 1
EndSplineSet
Fore
SplineSet
108 736 m 1
 163 736 l 1
 250 595 l 1
 338 736 l 1
 392 736 l 1
 282 546 l 1
 218 546 l 1
 108 736 l 1
EndSplineSet
EndChar

StartChar: emdash
Encoding: 8212 8212 136
Width: 1000
Flags: HMW
HStem: 210 61<0 1000 0 1000>
VStem: 0 1000<210 271 210 271>
LayerCount: 2
Back
SplineSet
0 210 m 1
 0 271 l 1
 1000 271 l 1
 1000 210 l 1
 0 210 l 1
EndSplineSet
Fore
SplineSet
0 210 m 1
 0 271 l 1
 1000 271 l 1
 1000 210 l 1
 0 210 l 1
EndSplineSet
EndChar

StartChar: AE
Encoding: 198 198 137
Width: 866
Flags: HW
HStem: 0 46<78 78 78 142 512 754> 251 47<219 426 219 426 193 426> 326 46<512 650 512 650> 625 46<341 341 512 718 512 512>
VStem: 426 86<60 251 251 251 298 326 372 625> 675 46<239 459 239 459> 746 55<525 671> 785 52<0 163>
LayerCount: 2
Back
SplineSet
283 671 m 1xfd
 801 671 l 1
 801 525 l 1
 746 525 l 1x5a
 732 610 l 1
 718 625 l 1
 512 625 l 1
 512 372 l 1
 650 372 l 1
 665 386 l 1
 675 459 l 1
 721 459 l 1
 721 239 l 1
 675 239 l 1
 665 311 l 1
 650 326 l 1
 512 326 l 1
 512 46 l 1
 754 46 l 1
 769 62 l 1
 785 163 l 1
 837 163 l 1
 837 0 l 1
 352 0 l 1
 352 41 l 1
 409 46 l 1
 426 60 l 1
 426 251 l 1
 193 251 l 1
 73 60 l 1
 78 46 l 1
 142 41 l 1
 142 0 l 1
 -56 0 l 1
 -56 41 l 1
 1 50 l 1
 350 611 l 1
 341 625 l 1
 283 631 l 1
 283 671 l 1xfd
426 627 m 1xff
 219 298 l 1
 426 298 l 1
 426 627 l 1xff
EndSplineSet
Fore
SplineSet
-56 0 m 1
 -56 41 l 1
 1 50 l 1
 350 611 l 1
 341 625 l 1
 283 631 l 1
 283 671 l 1xfd
 801 671 l 1
 801 525 l 1
 746 525 l 1x5a
 732 610 l 1
 718 625 l 1
 512 625 l 1
 512 372 l 1
 650 372 l 1
 665 386 l 1
 675 459 l 1
 721 459 l 1
 721 239 l 1
 675 239 l 1
 665 311 l 1
 650 326 l 1
 512 326 l 1
 512 46 l 1
 754 46 l 1
 769 62 l 1
 785 163 l 1
 837 163 l 1
 837 0 l 1
 352 0 l 1
 352 41 l 1
 409 46 l 1
 426 60 l 1
 426 251 l 1
 193 251 l 1
 73 60 l 1
 78 46 l 1
 142 41 l 1
 142 0 l 1
 -56 0 l 1
219 298 m 1
 426 298 l 1
 426 627 l 1xff
 219 298 l 1
EndSplineSet
EndChar

StartChar: ordfeminine
Encoding: 170 170 138
Width: 380
Flags: HW
HStem: 329 38<139 146> 334 25<260 366> 522 24<251 251> 647 31<172.5 209>
VStem: 32 66<407 449.5 407 455> 251 62<375 375 398 522 522 522 546 568 568 577 374 596>
LayerCount: 2
Back
SplineSet
251 375 m 1x7c
 203 344 164 329 128 329 c 0xac
 68 329 32 366 32 419 c 0
 32 491 101 512 251 546 c 1
 251 568 l 2
 251 624 236 647 182 647 c 0
 163 647 145 643 125 636 c 1
 125 577 l 1
 73 577 l 2
 56 577 50 582 50 599 c 0
 50 641 107 678 201 678 c 0
 280 678 313 648 313 577 c 2
 313 374 l 1
 326 363 l 1
 366 359 l 1
 366 334 l 1
 260 334 l 1
 251 375 l 1x7c
251 398 m 1xac
 251 522 l 1
 145 494 98 475 98 424 c 0
 98 390 120 367 158 367 c 0
 182 367 213 378 251 398 c 1xac
EndSplineSet
Fore
SplineSet
32 419 m 0
 32 491 101 512 251 546 c 1
 251 568 l 2
 251 624 236 647 182 647 c 0
 163 647 145 643 125 636 c 1
 125 577 l 1
 73 577 l 2
 56 577 50 582 50 599 c 0
 50 641 107 678 201 678 c 0
 280 678 313 648 313 577 c 2
 313 374 l 1
 326 363 l 1
 366 359 l 1
 366 334 l 1
 260 334 l 1
 251 375 l 1x7c
 203 344 164 329 128 329 c 0xac
 68 329 32 366 32 419 c 0
98 424 m 0
 98 390 120 367 158 367 c 0
 182 367 213 378 251 398 c 1xac
 251 522 l 1
 145 494 98 475 98 424 c 0
EndSplineSet
EndChar

StartChar: Lslash
Encoding: 321 321 139
Width: 520
Flags: HMW
HStem: 0 46<90 90 197 423> 631 40<27 271 27 271>
VStem: 107 90<60 291 291 291 346 350 407 611> 454 52<0 182>
LayerCount: 2
Back
SplineSet
27 671 m 1
 271 671 l 1
 271 631 l 1
 214 625 l 1
 197 611 l 1
 197 407 l 1
 291 469 l 1
 317 431 l 1
 197 350 l 1
 197 46 l 1
 423 46 l 1
 437 62 l 1
 454 182 l 1
 506 182 l 1
 506 0 l 1
 27 0 l 1
 27 41 l 1
 90 46 l 1
 107 60 l 1
 107 291 l 1
 34 241 l 1
 10 281 l 1
 107 346 l 1
 107 611 l 1
 90 625 l 1
 27 631 l 1
 27 671 l 1
EndSplineSet
Fore
SplineSet
10 281 m 1
 107 346 l 1
 107 611 l 1
 90 625 l 1
 27 631 l 1
 27 671 l 1
 271 671 l 1
 271 631 l 1
 214 625 l 1
 197 611 l 1
 197 407 l 1
 291 469 l 1
 317 431 l 1
 197 350 l 1
 197 46 l 1
 423 46 l 1
 437 62 l 1
 454 182 l 1
 506 182 l 1
 506 0 l 1
 27 0 l 1
 27 41 l 1
 90 46 l 1
 107 60 l 1
 107 291 l 1
 34 241 l 1
 10 281 l 1
EndSplineSet
EndChar

StartChar: Oslash
Encoding: 216 216 140
Width: 731
Flags: HMW
HStem: -16 54<341.5 408.5> 634 54<323.5 389>
VStem: 43 100<293 390.5> 589 100<281.5 381>
LayerCount: 2
Back
SplineSet
578 748 m 1
 619 724 l 1
 558 624 l 1
 643 556 689 463 689 336 c 0
 689 227 652 135 585 70 c 0
 527 14 451 -16 366 -16 c 0
 308 -16 253 -1 200 28 c 1
 138 -77 l 1
 99 -50 l 1
 162 56 l 1
 83 124 43 218 43 336 c 0
 43 445 79 536 146 601 c 0
 204 658 281 688 366 688 c 0
 418 688 468 676 520 652 c 1
 578 748 l 1
486 595 m 1
 450 622 412 634 366 634 c 0
 234 634 143 523 143 336 c 0
 143 250 161 180 201 122 c 1
 486 595 l 1
522 562 m 1
 235 84 l 1
 274 53 317 38 366 38 c 0
 499 38 589 150 589 336 c 0
 589 426 568 500 522 562 c 1
EndSplineSet
Fore
SplineSet
43 336 m 0
 43 445 79 536 146 601 c 0
 204 658 281 688 366 688 c 0
 418 688 468 676 520 652 c 1
 578 748 l 1
 619 724 l 1
 558 624 l 1
 643 556 689 463 689 336 c 0
 689 227 652 135 585 70 c 0
 527 14 451 -16 366 -16 c 0
 308 -16 253 -1 200 28 c 1
 138 -77 l 1
 99 -50 l 1
 162 56 l 1
 83 124 43 218 43 336 c 0
143 336 m 0
 143 250 161 180 201 122 c 1
 486 595 l 1
 450 622 412 634 366 634 c 0
 234 634 143 523 143 336 c 0
235 84 m 1
 274 53 317 38 366 38 c 0
 499 38 589 150 589 336 c 0
 589 426 568 500 522 562 c 1
 235 84 l 1
EndSplineSet
EndChar

StartChar: OE
Encoding: 338 338 141
Width: 993
Flags: HW
HStem: -8 52<301 386.5> 0 46<637 881 637 965> 326 46<637 777 637 777> 625 46<637 845 637 637> 627 52<301.5 392 301.5 410>
VStem: 43 104<282.5 389.5> 554 83<244 326 372 426> 802 47<239 459 239 459> 873 56<525 671> 912 53<0 163>
LayerCount: 2
Back
SplineSet
350 627 m 0x8e
 230 627 147 520 147 338 c 0
 147 153 230 44 350 44 c 0
 470 44 554 153 554 335 c 0
 554 517 470 627 350 627 c 0x8e
553 549 m 1
 553 671 l 1
 929 671 l 1
 929 525 l 1
 873 525 l 1x1080
 859 610 l 1
 845 625 l 1
 637 625 l 1
 637 372 l 1
 777 372 l 1
 792 386 l 1
 802 459 l 1
 849 459 l 1
 849 239 l 1
 802 239 l 1
 792 311 l 1
 777 326 l 1
 637 326 l 1
 637 46 l 1
 881 46 l 1
 896 62 l 1
 912 163 l 1
 965 163 l 1
 965 0 l 1
 553 0 l 1x7340
 553 123 l 1
 506 37 433 -8 340 -8 c 0
 262 -8 192 21 138 76 c 0
 75 140 43 229 43 336 c 0
 43 443 76 530 139 595 c 0
 191 649 263 679 340 679 c 0
 444 679 512 638 553 549 c 1
EndSplineSet
Fore
SplineSet
43 336 m 0
 43 443 76 530 139 595 c 0
 191 649 263 679 340 679 c 0
 444 679 512 638 553 549 c 1
 553 671 l 1
 929 671 l 1
 929 525 l 1
 873 525 l 1x1080
 859 610 l 1
 845 625 l 1
 637 625 l 1
 637 372 l 1
 777 372 l 1
 792 386 l 1
 802 459 l 1
 849 459 l 1
 849 239 l 1
 802 239 l 1
 792 311 l 1
 777 326 l 1
 637 326 l 1
 637 46 l 1
 881 46 l 1
 896 62 l 1
 912 163 l 1
 965 163 l 1
 965 0 l 1
 553 0 l 1x7340
 553 123 l 1
 506 37 433 -8 340 -8 c 0
 262 -8 192 21 138 76 c 0
 75 140 43 229 43 336 c 0
147 338 m 0
 147 153 230 44 350 44 c 0
 470 44 554 153 554 335 c 0
 554 517 470 627 350 627 c 0x8e
 230 627 147 520 147 338 c 0
EndSplineSet
EndChar

StartChar: ordmasculine
Encoding: 186 186 142
Width: 404
Flags: HMW
HStem: 328 30<172 232.5 172 252> 648 30<171.5 232.5>
VStem: 28 70<457.5 548.5 457.5 555> 306 71<457.5 548>
LayerCount: 2
Back
SplineSet
202 678 m 0
 303 678 377 606 377 503 c 0
 377 399 302 328 202 328 c 0
 101 328 28 399 28 503 c 0
 28 607 101 678 202 678 c 0
202 648 m 0
 141 648 98 594 98 503 c 0
 98 412 142 358 202 358 c 0
 263 358 306 412 306 503 c 0
 306 593 263 648 202 648 c 0
EndSplineSet
Fore
SplineSet
28 503 m 0
 28 607 101 678 202 678 c 0
 303 678 377 606 377 503 c 0
 377 399 302 328 202 328 c 0
 101 328 28 399 28 503 c 0
98 503 m 0
 98 412 142 358 202 358 c 0
 263 358 306 412 306 503 c 0
 306 593 263 648 202 648 c 0
 141 648 98 594 98 503 c 0
EndSplineSet
EndChar

StartChar: ae
Encoding: 230 230 143
Width: 725
Flags: HMW
HStem: -7 54<181 195> 258 39<402 592 402 681 402 592> 447 44<223 269.5 491.5 532.5>
VStem: 43 84<104.5 165.5 104.5 171.5> 324 78<119 258 119 268 119 268 119 335 119 374.5> 593 89<316.5 356.5>
LayerCount: 2
Back
SplineSet
166 347 m 1
 96 347 l 2
 74 347 66 354 66 378 c 0
 66 440 139 491 260 491 c 0
 324 491 363 474 386 431 c 1
 422 471 465 491 518 491 c 0
 622 491 682 420 682 293 c 0
 682 282 682 270 681 258 c 1
 402 258 l 1
 402 119 l 1
 445 75 494 54 552 54 c 0
 602 54 640 69 682 106 c 1
 682 51 l 1
 631 11 577 -9 520 -9 c 0
 454 -9 391 16 343 64 c 1
 280 17 224 -7 166 -7 c 0
 91 -7 43 44 43 117 c 0
 43 226 129 254 324 303 c 1
 324 335 l 2
 324 414 304 447 235 447 c 0
 211 447 189 442 166 431 c 1
 166 347 l 1
324 92 m 1
 324 268 l 1
 188 229 127 202 127 129 c 0
 127 80 157 47 205 47 c 0
 237 47 276 63 324 92 c 1
402 297 m 1
 592 297 l 1
 592 305 593 313 593 320 c 0
 593 403 562 447 503 447 c 0
 440 447 404 395 402 297 c 1
EndSplineSet
Fore
SplineSet
43 117 m 0
 43 226 129 254 324 303 c 1
 324 335 l 2
 324 414 304 447 235 447 c 0
 211 447 189 442 166 431 c 1
 166 347 l 1
 96 347 l 2
 74 347 66 354 66 378 c 0
 66 440 139 491 260 491 c 0
 324 491 363 474 386 431 c 1
 422 471 465 491 518 491 c 0
 622 491 682 420 682 293 c 0
 682 282 682 270 681 258 c 1
 402 258 l 1
 402 119 l 1
 445 75 494 54 552 54 c 0
 602 54 640 69 682 106 c 1
 682 51 l 1
 631 11 577 -9 520 -9 c 0
 454 -9 391 16 343 64 c 1
 280 17 224 -7 166 -7 c 0
 91 -7 43 44 43 117 c 0
127 129 m 0
 127 80 157 47 205 47 c 0
 237 47 276 63 324 92 c 1
 324 268 l 1
 188 229 127 202 127 129 c 0
402 297 m 1
 592 297 l 1
 592 305 593 313 593 320 c 0
 593 403 562 447 503 447 c 0
 440 447 404 395 402 297 c 1
EndSplineSet
EndChar

StartChar: dotlessi
Encoding: 305 305 144
Width: 280
Flags: HW
HStem: 0 36<35 88 206 260> 419 31<35 57.3611> 466 20G<86.1111 188>
VStem: 105 83<57 419>
LayerCount: 2
Back
SplineSet
150 486 m 1
 188 486 l 1
 188 57 l 1
 206 41 l 1
 260 36 l 1
 260 0 l 1
 35 0 l 1
 35 36 l 1
 88 41 l 1
 105 57 l 1
 105 419 l 1
 35 419 l 1
 35 450 l 1
 150 486 l 1
EndSplineSet
Fore
SplineSet
35 0 m 1
 35 36 l 1
 88 41 l 1
 105 57 l 1
 105 419 l 1
 35 419 l 1
 35 450 l 1
 150 486 l 1
 188 486 l 1
 188 57 l 1
 206 41 l 1
 260 36 l 1
 260 0 l 1
 35 0 l 1
EndSplineSet
EndChar

StartChar: lslash
Encoding: 322 322 145
Width: 282
Flags: HMW
HStem: 0 36<28 262 28 28> 669 31<27 104 27 27> 716 20<149 187 187 187>
VStem: 104 83<57 307 307 307 362 363 420 669 669 669>
LayerCount: 2
Back
SplineSet
149 736 m 1
 187 736 l 1
 187 420 l 1
 273 477 l 1
 299 438 l 1
 187 363 l 1
 187 57 l 1
 205 41 l 1
 262 36 l 1
 262 0 l 1
 28 0 l 1
 28 36 l 1
 87 41 l 1
 104 57 l 1
 104 307 l 1
 29 256 l 1
 5 296 l 1
 104 362 l 1
 104 669 l 1
 27 669 l 1
 27 700 l 1
 149 736 l 1
EndSplineSet
Fore
SplineSet
5 296 m 1
 104 362 l 1
 104 669 l 1
 27 669 l 1
 27 700 l 1
 149 736 l 1
 187 736 l 1
 187 420 l 1
 273 477 l 1
 299 438 l 1
 187 363 l 1
 187 57 l 1
 205 41 l 1
 262 36 l 1
 262 0 l 1
 28 0 l 1
 28 36 l 1
 87 41 l 1
 104 57 l 1
 104 307 l 1
 29 256 l 1
 5 296 l 1
EndSplineSet
EndChar

StartChar: oslash
Encoding: 248 248 146
Width: 539
Flags: HMW
HStem: -9 43<252.5 310.5 252.5 336> 447 44<228 283>
VStem: 37 92<215.5 306 215.5 315.5> 411 91<176 271>
LayerCount: 2
Back
SplineSet
423 560 m 1
 457 541 l 1
 405 448 l 1
 469 400 502 335 502 241 c 0
 502 93 403 -9 269 -9 c 0
 228 -9 191 0 156 19 c 1
 98 -80 l 1
 66 -60 l 1
 124 42 l 1
 65 91 37 156 37 241 c 0
 37 390 135 491 269 491 c 0
 306 491 340 484 371 469 c 1
 423 560 l 1
344 422 m 1
 322 439 297 447 269 447 c 0
 187 447 129 371 129 241 c 0
 129 190 139 145 159 104 c 1
 344 422 l 1
371 392 m 1
 186 69 l 1
 209 45 236 34 269 34 c 0
 352 34 411 111 411 241 c 0
 411 301 398 350 371 392 c 1
EndSplineSet
Fore
SplineSet
37 241 m 0
 37 390 135 491 269 491 c 0
 306 491 340 484 371 469 c 1
 423 560 l 1
 457 541 l 1
 405 448 l 1
 469 400 502 335 502 241 c 0
 502 93 403 -9 269 -9 c 0
 228 -9 191 0 156 19 c 1
 98 -80 l 1
 66 -60 l 1
 124 42 l 1
 65 91 37 156 37 241 c 0
129 241 m 0
 129 190 139 145 159 104 c 1
 344 422 l 1
 322 439 297 447 269 447 c 0
 187 447 129 371 129 241 c 0
186 69 m 1
 209 45 236 34 269 34 c 0
 352 34 411 111 411 241 c 0
 411 301 398 350 371 392 c 1
 186 69 l 1
EndSplineSet
EndChar

StartChar: oe
Encoding: 339 339 147
Width: 817
Flags: HMW
HStem: -10 44<223.5 293.5> 263 42<482 686 482 775 477 686> 447 44<223.5 298.5 196 299>
VStem: 37 94<176 306.5 176 315.5> 391 86<194 260.5 260.5 263 194 306> 686 89
LayerCount: 2
Back
SplineSet
261 447 m 0
 186 447 131 372 131 241 c 0
 131 111 186 34 261 34 c 0
 337 34 391 111 391 241 c 0
 391 371 337 447 261 447 c 0
686 305 m 1
 686 310 686 315 686 319 c 0
 686 401 653 446 595 446 c 0
 539 446 493 396 482 305 c 1
 686 305 l 1
775 263 m 1
 477 263 l 1
 477 262 477 261 477 260 c 0
 477 128 541 53 642 53 c 0
 690 53 728 72 775 106 c 1
 775 51 l 1
 720 11 666 -10 611 -10 c 0
 537 -10 478 24 434 90 c 1
 385 24 327 -10 260 -10 c 0
 132 -10 37 92 37 241 c 0
 37 390 132 491 260 491 c 0
 337 491 400 457 440 393 c 1
 477 456 536 491 602 491 c 0
 711 491 776 420 776 293 c 0
 776 284 776 273 775 263 c 1
EndSplineSet
Fore
SplineSet
37 241 m 0
 37 390 132 491 260 491 c 0
 337 491 400 457 440 393 c 1
 477 456 536 491 602 491 c 0
 711 491 776 420 776 293 c 0
 776 284 776 273 775 263 c 1
 477 263 l 1
 477 262 477 261 477 260 c 0
 477 128 541 53 642 53 c 0
 690 53 728 72 775 106 c 1
 775 51 l 1
 720 11 666 -10 611 -10 c 0
 537 -10 478 24 434 90 c 1
 385 24 327 -10 260 -10 c 0
 132 -10 37 92 37 241 c 0
131 241 m 0
 131 111 186 34 261 34 c 0
 337 34 391 111 391 241 c 0
 391 371 337 447 261 447 c 0
 186 447 131 372 131 241 c 0
482 305 m 1
 686 305 l 1
 686 310 686 315 686 319 c 0
 686 401 653 446 595 446 c 0
 539 446 493 396 482 305 c 1
EndSplineSet
EndChar

StartChar: germandbls
Encoding: 223 223 148
Width: 609
Flags: HW
HStem: -7 44<408 446.5 408 464> 0 35<19 248 19 19> 695 46<293 348.5>
VStem: 88 86<58 431 58 449 58 538.5> 290 79<362.5 397> 506 75<104.5 148.5>
LayerCount: 2
Back
SplineSet
483 466 m 1x7c
 474 467 466 468 459 468 c 0
 402 468 369 437 369 390 c 0
 369 335 414 320 485 281 c 0
 550 245 581 203 581 147 c 0
 581 62 514 -7 414 -7 c 0
 388 -7 350 0 299 13 c 1
 299 145 l 1
 349 145 l 1
 359 58 l 1
 377 44 396 37 420 37 c 0x8c
 473 37 506 75 506 121 c 0
 506 176 472 194 413 227 c 0
 336 270 290 297 290 366 c 0
 290 428 336 484 412 501 c 1
 418 528 422 551 422 571 c 0
 422 645 379 695 318 695 c 0
 268 695 228 668 199 614 c 0
 177 572 174 512 174 431 c 2
 174 58 l 1
 182 40 l 1
 248 35 l 1
 248 0 l 1
 19 0 l 1
 19 35 l 1
 77 42 l 1
 88 57 l 1
 88 449 l 2
 88 628 190 741 333 741 c 0
 440 741 501 681 501 576 c 0
 501 541 495 505 483 466 c 1x7c
EndSplineSet
Fore
SplineSet
19 0 m 1
 19 35 l 1
 77 42 l 1
 88 57 l 1
 88 449 l 2
 88 628 190 741 333 741 c 0
 440 741 501 681 501 576 c 0
 501 541 495 505 483 466 c 1x7c
 474 467 466 468 459 468 c 0
 402 468 369 437 369 390 c 0
 369 335 414 320 485 281 c 0
 550 245 581 203 581 147 c 0
 581 62 514 -7 414 -7 c 0
 388 -7 350 0 299 13 c 1
 299 145 l 1
 349 145 l 1
 359 58 l 1
 377 44 396 37 420 37 c 0x8c
 473 37 506 75 506 121 c 0
 506 176 472 194 413 227 c 0
 336 270 290 297 290 366 c 0
 290 428 336 484 412 501 c 1
 418 528 422 551 422 571 c 0
 422 645 379 695 318 695 c 0
 268 695 228 668 199 614 c 0
 177 572 174 512 174 431 c 2
 174 58 l 1
 182 40 l 1
 248 35 l 1
 248 0 l 1
 19 0 l 1
EndSplineSet
EndChar

StartChar: Aring
Encoding: 197 197 153
Width: 639
Flags: HMW
HStem: 0 41<-8 188 -8 -8> 251 46<201 403 201 420 184 403> 659 20<284 350 350 350> 728 45<287 327.5 287 339> 918 45<287 327.5>
VStem: -8 197 234 145<825 865.5> 424 226
LayerCount: 2
Back
SplineSet
306 963 m 0
 372 963 424 912 424 846 c 0
 424 780 372 728 306 728 c 0
 240 728 189 780 189 846 c 0
 189 912 240 963 306 963 c 0
307 918 m 0
 267 918 234 886 234 845 c 0
 234 805 267 773 307 773 c 0
 348 773 379 805 379 845 c 0
 379 886 348 918 307 918 c 0
284 679 m 1
 350 679 l 1
 590 53 l 1
 650 41 l 1
 650 0 l 1
 423 0 l 1
 423 41 l 1
 485 46 l 1
 492 60 l 1
 420 251 l 1
 184 251 l 1
 113 60 l 1
 123 46 l 1
 188 41 l 1
 188 0 l 1
 -8 0 l 1
 -8 41 l 1
 50 53 l 1
 284 679 l 1
300 574 m 1
 201 297 l 1
 403 297 l 1
 300 574 l 1
EndSplineSet
Fore
SplineSet
189 846 m 0
 189 912 240 963 306 963 c 0
 372 963 424 912 424 846 c 0
 424 780 372 728 306 728 c 0
 240 728 189 780 189 846 c 0
234 845 m 0
 234 805 267 773 307 773 c 0
 348 773 379 805 379 845 c 0
 379 886 348 918 307 918 c 0
 267 918 234 886 234 845 c 0
EndSplineSet
Refer: 33 65 S 1 0 0 1 0 0 3
EndChar

StartChar: aring
Encoding: 229 229 181
Width: 507
Flags: HW
HStem: -7 54<185 194> 0 36<347 488> 268 35<334 334> 447 44<229.5 278> 546 45<230 270.5 230 283> 736 45<230 270.5>
VStem: 42 88<104.5 165.5 104.5 173> 133 45<643 683.5 643 697> 324 44<643 683.5> 334 84<58 58 92 268 268 268 303 335 335 347 57 374.5>
LayerCount: 2
Back
SplineSet
250 781 m 0x0d80
 316 781 368 730 368 664 c 0
 368 598 316 546 250 546 c 0
 184 546 133 598 133 664 c 0
 133 730 184 781 250 781 c 0x0d80
250 736 m 0
 210 736 178 704 178 663 c 0
 178 623 210 591 250 591 c 0
 291 591 324 623 324 663 c 0
 324 704 291 736 250 736 c 0
418 347 m 2xb240
 418 57 l 1
 435 41 l 1
 488 36 l 1
 488 0 l 1
 347 0 l 1x4040
 334 58 l 1
 271 15 218 -7 170 -7 c 0
 91 -7 42 46 42 121 c 0
 42 225 134 255 334 303 c 1
 334 335 l 2
 334 414 314 447 242 447 c 0
 217 447 193 442 166 431 c 1
 166 347 l 1
 97 347 l 2
 74 347 66 354 66 378 c 0
 66 439 142 491 268 491 c 0
 373 491 418 448 418 347 c 2xb240
334 268 m 1xb240
 193 229 130 202 130 129 c 0
 130 80 160 47 210 47 c 0
 243 47 284 63 334 92 c 1
 334 268 l 1xb240
EndSplineSet
Fore
SplineSet
42 121 m 0
 42 225 134 255 334 303 c 1
 334 335 l 2
 334 414 314 447 242 447 c 0
 217 447 193 442 166 431 c 1
 166 347 l 1
 97 347 l 2
 74 347 66 354 66 378 c 0
 66 439 142 491 268 491 c 0
 373 491 418 448 418 347 c 2xb240
 418 57 l 1
 435 41 l 1
 488 36 l 1
 488 0 l 1
 347 0 l 1x4040
 334 58 l 1
 271 15 218 -7 170 -7 c 0
 91 -7 42 46 42 121 c 0
130 129 m 0
 130 80 160 47 210 47 c 0
 243 47 284 63 334 92 c 1
 334 268 l 1xb240
 193 229 130 202 130 129 c 0
133 664 m 0
 133 730 184 781 250 781 c 0x0d80
 316 781 368 730 368 664 c 0
 368 598 316 546 250 546 c 0
 184 546 133 598 133 664 c 0
178 663 m 0
 178 623 210 591 250 591 c 0
 291 591 324 623 324 663 c 0
 324 704 291 736 250 736 c 0
 210 736 178 704 178 663 c 0
EndSplineSet
EndChar

StartChar: trademark
Encoding: 8482 8482 205
Width: 822
Flags: HMW
HStem: 399 22<172 294> 639 23<159 211 159 159 256 308 256 256>
VStem: 211 45<425 639 425 639 425 639> 409 28<425 634 634 634> 639 45<425 634 425 637 425 637>
LayerCount: 2
Back
SplineSet
256 639 m 1
 256 425 l 1
 294 421 l 1
 294 399 l 1
 172 399 l 1
 172 420 l 1
 211 424 l 1
 211 639 l 1
 159 639 l 1
 151 633 l 1
 145 593 l 1
 118 593 l 1
 118 662 l 1
 347 662 l 1
 347 593 l 1
 321 593 l 1
 315 633 l 1
 308 639 l 1
 256 639 l 1
378 399 m 1
 378 421 l 1
 409 425 l 1
 409 634 l 1
 377 639 l 1
 377 662 l 1
 479 662 l 1
 479 650 l 1
 547 470 l 1
 616 649 l 1
 616 662 l 1
 716 662 l 1
 716 639 l 1
 684 634 l 1
 684 425 l 1
 716 420 l 1
 716 399 l 1
 609 399 l 1
 609 420 l 1
 639 425 l 1
 639 637 l 1
 547 399 l 1
 525 399 l 1
 437 637 l 1
 437 425 l 1
 468 421 l 1
 468 399 l 1
 378 399 l 1
EndSplineSet
Fore
SplineSet
118 593 m 1
 118 662 l 1
 347 662 l 1
 347 593 l 1
 321 593 l 1
 315 633 l 1
 308 639 l 1
 256 639 l 1
 256 425 l 1
 294 421 l 1
 294 399 l 1
 172 399 l 1
 172 420 l 1
 211 424 l 1
 211 639 l 1
 159 639 l 1
 151 633 l 1
 145 593 l 1
 118 593 l 1
377 639 m 1
 377 662 l 1
 479 662 l 1
 479 650 l 1
 547 470 l 1
 616 649 l 1
 616 662 l 1
 716 662 l 1
 716 639 l 1
 684 634 l 1
 684 425 l 1
 716 420 l 1
 716 399 l 1
 609 399 l 1
 609 420 l 1
 639 425 l 1
 639 637 l 1
 547 399 l 1
 525 399 l 1
 437 637 l 1
 437 425 l 1
 468 421 l 1
 468 399 l 1
 378 399 l 1
 378 421 l 1
 409 425 l 1
 409 634 l 1
 377 639 l 1
EndSplineSet
EndChar

StartChar: copyright
Encoding: 169 169 206
Width: 900
Flags: HMW
HStem: -46 42<406 498 406 500> 102 46<423 480 423 487.5> 528 46<425.5 487> 684 42<407.5 497>
VStem: 67 43<293 386 293 391> 221 87<284 394 284 408> 566 43<252 252 431 431> 794 43<295 386>
LayerCount: 2
Back
SplineSet
453 684 m 0
 362 684 275 648 211 583 c 0
 146 516 110 432 110 340 c 0
 110 246 145 163 211 97 c 0
 278 31 360 -4 452 -4 c 0
 544 -4 628 31 692 97 c 0
 757 164 794 250 794 340 c 0
 794 432 756 521 693 584 c 0
 629 648 541 684 453 684 c 0
453 726 m 0
 554 726 655 683 727 610 c 0
 797 539 837 440 837 336 c 0
 837 237 795 138 719 63 c 0
 647 -8 553 -46 447 -46 c 0
 349 -46 253 -6 180 67 c 0
 106 141 67 236 67 340 c 0
 67 442 106 537 179 611 c 0
 251 684 350 726 453 726 c 0
609 127 m 1
 563 111 513 102 462 102 c 0
 320 102 221 199 221 338 c 0
 221 478 319 574 468 574 c 0
 510 574 558 567 609 551 c 1
 609 431 l 1
 566 431 l 1
 551 506 l 1
 526 521 501 528 473 528 c 0
 378 528 308 449 308 339 c 0
 308 229 378 148 468 148 c 0
 492 148 520 156 553 168 c 1
 566 252 l 1
 609 252 l 1
 609 127 l 1
EndSplineSet
Fore
SplineSet
67 340 m 0
 67 442 106 537 179 611 c 0
 251 684 350 726 453 726 c 0
 554 726 655 683 727 610 c 0
 797 539 837 440 837 336 c 0
 837 237 795 138 719 63 c 0
 647 -8 553 -46 447 -46 c 0
 349 -46 253 -6 180 67 c 0
 106 141 67 236 67 340 c 0
110 340 m 0
 110 246 145 163 211 97 c 0
 278 31 360 -4 452 -4 c 0
 544 -4 628 31 692 97 c 0
 757 164 794 250 794 340 c 0
 794 432 756 521 693 584 c 0
 629 648 541 684 453 684 c 0
 362 684 275 648 211 583 c 0
 146 516 110 432 110 340 c 0
221 338 m 0
 221 478 319 574 468 574 c 0
 510 574 558 567 609 551 c 1
 609 431 l 1
 566 431 l 1
 551 506 l 1
 526 521 501 528 473 528 c 0
 378 528 308 449 308 339 c 0
 308 229 378 148 468 148 c 0
 492 148 520 156 553 168 c 1
 566 252 l 1
 609 252 l 1
 609 127 l 1
 563 111 513 102 462 102 c 0
 320 102 221 199 221 338 c 0
EndSplineSet
EndChar

StartChar: logicalnot
Encoding: 172 172 207
Width: 833
Flags: HMW
HStem: 362 57<124 653 124 709>
VStem: 653 56<174 362 362 362>
LayerCount: 2
Back
SplineSet
124 419 m 1
 709 419 l 1
 709 174 l 1
 653 174 l 1
 653 362 l 1
 124 362 l 1
 124 419 l 1
EndSplineSet
Fore
SplineSet
124 362 m 1
 124 419 l 1
 709 419 l 1
 709 174 l 1
 653 174 l 1
 653 362 l 1
 124 362 l 1
EndSplineSet
EndChar

StartChar: registered
Encoding: 174 174 208
Width: 900
Flags: HMW
HStem: -46 42<406 498 406 500> 121 37<259 450> 316 38<411.5 443> 523 37<409 454.5> 685 41<407.5 497>
VStem: 67 44<293 386 293 391> 312 75<165 315 355 516 516 516> 540 87<423.5 464.5> 793 44<295 386>
LayerCount: 2
Back
SplineSet
453 685 m 0
 362 685 275 648 211 583 c 0
 146 516 111 432 111 340 c 0
 111 246 145 163 211 97 c 0
 278 31 360 -4 452 -4 c 0
 544 -4 628 31 692 97 c 0
 757 164 793 250 793 340 c 0
 793 432 756 521 693 584 c 0
 629 648 541 685 453 685 c 0
453 726 m 0
 554 726 655 683 727 610 c 0
 797 539 837 440 837 336 c 0
 837 237 795 138 719 63 c 0
 647 -8 553 -46 447 -46 c 0
 349 -46 253 -6 180 67 c 0
 106 141 67 236 67 340 c 0
 67 442 106 537 179 611 c 0
 251 684 350 726 453 726 c 0
254 560 m 1
 465 560 l 2
 573 560 627 526 627 451 c 0
 627 396 585 355 506 338 c 1
 537 333 560 321 578 299 c 0
 601 271 604 239 614 215 c 0
 631 172 653 160 711 160 c 1
 711 124 l 1
 685 119 664 116 649 116 c 0
 618 116 593 125 570 145 c 0
 538 172 533 218 515 259 c 0
 495 304 470 316 416 316 c 0
 407 316 398 316 387 315 c 1
 387 165 l 1
 450 158 l 1
 450 121 l 1
 259 121 l 1
 259 157 l 1
 312 164 l 1
 312 516 l 1
 254 526 l 1
 254 560 l 1
387 355 m 1
 396 354 404 354 412 354 c 0
 496 354 540 383 540 437 c 0
 540 492 496 523 413 523 c 0
 405 523 396 523 387 522 c 1
 387 355 l 1
EndSplineSet
Fore
SplineSet
67 340 m 0
 67 442 106 537 179 611 c 0
 251 684 350 726 453 726 c 0
 554 726 655 683 727 610 c 0
 797 539 837 440 837 336 c 0
 837 237 795 138 719 63 c 0
 647 -8 553 -46 447 -46 c 0
 349 -46 253 -6 180 67 c 0
 106 141 67 236 67 340 c 0
111 340 m 0
 111 246 145 163 211 97 c 0
 278 31 360 -4 452 -4 c 0
 544 -4 628 31 692 97 c 0
 757 164 793 250 793 340 c 0
 793 432 756 521 693 584 c 0
 629 648 541 685 453 685 c 0
 362 685 275 648 211 583 c 0
 146 516 111 432 111 340 c 0
254 526 m 1
 254 560 l 1
 465 560 l 2
 573 560 627 526 627 451 c 0
 627 396 585 355 506 338 c 1
 537 333 560 321 578 299 c 0
 601 271 604 239 614 215 c 0
 631 172 653 160 711 160 c 1
 711 124 l 1
 685 119 664 116 649 116 c 0
 618 116 593 125 570 145 c 0
 538 172 533 218 515 259 c 0
 495 304 470 316 416 316 c 0
 407 316 398 316 387 315 c 1
 387 165 l 1
 450 158 l 1
 450 121 l 1
 259 121 l 1
 259 157 l 1
 312 164 l 1
 312 516 l 1
 254 526 l 1
387 355 m 1
 396 354 404 354 412 354 c 0
 496 354 540 383 540 437 c 0
 540 492 496 523 413 523 c 0
 405 523 396 523 387 522 c 1
 387 355 l 1
EndSplineSet
EndChar

StartChar: minus
Encoding: 8722 8722 209
Width: 833
Flags: HMW
HStem: 269 58<124 709 124 709>
VStem: 124 585<269 327 269 327>
LayerCount: 2
Back
SplineSet
124 327 m 1
 709 327 l 1
 709 269 l 1
 124 269 l 1
 124 327 l 1
EndSplineSet
Fore
SplineSet
124 269 m 1
 124 327 l 1
 709 327 l 1
 709 269 l 1
 124 269 l 1
EndSplineSet
EndChar

StartChar: Eth
Encoding: 208 208 210
Width: 693
Flags: HMW
HStem: 0 46<90 90 197 276 276 280> 327 48<15 107 15 107 197 363> 625 46<90 90 197 197 197 276>
VStem: 107 90<60 327 46 327 375 611 611 611> 548 101<276.5 433.5>
LayerCount: 2
Back
SplineSet
280 671 m 2
 517 671 649 546 649 336 c 0
 649 217 606 124 524 62 c 0
 456 11 380 0 280 0 c 2
 33 0 l 1
 33 41 l 1
 90 46 l 1
 107 60 l 1
 107 327 l 1
 15 327 l 1
 15 375 l 1
 107 375 l 1
 107 611 l 1
 90 625 l 1
 33 631 l 1
 33 671 l 1
 280 671 l 2
197 327 m 1
 197 46 l 1
 276 46 l 2
 459 46 548 142 548 336 c 0
 548 531 459 625 276 625 c 2
 197 625 l 1
 197 375 l 1
 363 375 l 1
 363 327 l 1
 197 327 l 1
EndSplineSet
Fore
SplineSet
15 327 m 1
 15 375 l 1
 107 375 l 1
 107 611 l 1
 90 625 l 1
 33 631 l 1
 33 671 l 1
 280 671 l 2
 517 671 649 546 649 336 c 0
 649 217 606 124 524 62 c 0
 456 11 380 0 280 0 c 2
 33 0 l 1
 33 41 l 1
 90 46 l 1
 107 60 l 1
 107 327 l 1
 15 327 l 1
197 46 m 1
 276 46 l 2
 459 46 548 142 548 336 c 0
 548 531 459 625 276 625 c 2
 197 625 l 1
 197 375 l 1
 363 375 l 1
 363 327 l 1
 197 327 l 1
 197 46 l 1
EndSplineSet
EndChar

StartChar: Thorn
Encoding: 222 222 211
Width: 558
Flags: HMW
HStem: 0 41<35 278 35 35> 134 48<264.5 323 259 355> 500 45<244.5 255 255 316.5> 631 40<35 278 35 278>
VStem: 109 91<60 139 186 498 545 611> 441 92<293 399.5>
LayerCount: 2
Back
SplineSet
35 671 m 1
 278 671 l 1
 278 631 l 1
 216 625 l 1
 200 611 l 1
 200 545 l 1
 255 545 l 2
 447 545 533 494 533 345 c 0
 533 220 436 134 274 134 c 0
 255 134 231 136 200 139 c 1
 200 60 l 1
 216 46 l 1
 278 41 l 1
 278 0 l 1
 35 0 l 1
 35 41 l 1
 93 46 l 1
 109 60 l 1
 109 611 l 1
 93 625 l 1
 35 631 l 1
 35 671 l 1
200 186 m 1
 230 183 252 182 266 182 c 0
 380 182 441 239 441 347 c 0
 441 452 380 500 253 500 c 0
 236 500 219 500 200 498 c 1
 200 186 l 1
EndSplineSet
Fore
SplineSet
35 0 m 1
 35 41 l 1
 93 46 l 1
 109 60 l 1
 109 611 l 1
 93 625 l 1
 35 631 l 1
 35 671 l 1
 278 671 l 1
 278 631 l 1
 216 625 l 1
 200 611 l 1
 200 545 l 1
 255 545 l 2
 447 545 533 494 533 345 c 0
 533 220 436 134 274 134 c 0
 255 134 231 136 200 139 c 1
 200 60 l 1
 216 46 l 1
 278 41 l 1
 278 0 l 1
 35 0 l 1
200 186 m 1
 230 183 252 182 266 182 c 0
 380 182 441 239 441 347 c 0
 441 452 380 500 253 500 c 0
 236 500 219 500 200 498 c 1
 200 186 l 1
EndSplineSet
EndChar

StartChar: brokenbar
Encoding: 166 166 213
Width: 500
Flags: HMW
HStem: -171 20 199 130<219 281 219 281> 679 20<219 281 281 281>
VStem: 219 62<-171 199 -171 199 329 699>
LayerCount: 2
Back
SplineSet
219 699 m 1
 281 699 l 1
 281 329 l 1
 219 329 l 1
 219 699 l 1
219 199 m 1
 281 199 l 1
 281 -171 l 1
 219 -171 l 1
 219 199 l 1
EndSplineSet
Fore
SplineSet
219 -171 m 1
 219 199 l 1
 281 199 l 1
 281 -171 l 1
 219 -171 l 1
219 329 m 1
 219 699 l 1
 281 699 l 1
 281 329 l 1
 219 329 l 1
EndSplineSet
EndChar

StartChar: degree
Encoding: 176 176 214
Width: 329
Flags: HMW
HStem: 434 39<138 193 138 203> 670 40<138 192.5>
VStem: 27 39<544 599.5 544 611> 263 40<545 599>
LayerCount: 2
Back
SplineSet
165 710 m 0
 241 710 303 648 303 572 c 0
 303 497 242 434 164 434 c 0
 87 434 27 495 27 572 c 0
 27 650 89 710 165 710 c 0
165 670 m 0
 111 670 66 627 66 572 c 0
 66 516 111 473 165 473 c 0
 221 473 263 518 263 572 c 0
 263 626 220 670 165 670 c 0
EndSplineSet
Fore
SplineSet
27 572 m 0
 27 650 89 710 165 710 c 0
 241 710 303 648 303 572 c 0
 303 497 242 434 164 434 c 0
 87 434 27 495 27 572 c 0
66 572 m 0
 66 516 111 473 165 473 c 0
 221 473 263 518 263 572 c 0
 263 626 220 670 165 670 c 0
 111 670 66 627 66 572 c 0
EndSplineSet
EndChar

StartChar: divide
Encoding: 247 247 215
Width: 833
Flags: HMW
HStem: 66 112<402 432 402 433> 270 57<124 709 124 709> 418 112<402 432.5 402 433>
VStem: 361 112<107 137.5 107 138 459 489.5>
LayerCount: 2
Back
SplineSet
417 530 m 0
 448 530 473 505 473 474 c 0
 473 444 449 418 417 418 c 0
 385 418 361 443 361 474 c 0
 361 505 387 530 417 530 c 0
124 327 m 1
 709 327 l 1
 709 270 l 1
 124 270 l 1
 124 327 l 1
417 178 m 0
 447 178 473 153 473 122 c 0
 473 92 449 66 417 66 c 0
 386 66 361 91 361 122 c 0
 361 154 387 178 417 178 c 0
EndSplineSet
Fore
SplineSet
124 270 m 1
 124 327 l 1
 709 327 l 1
 709 270 l 1
 124 270 l 1
361 122 m 0
 361 154 387 178 417 178 c 0
 447 178 473 153 473 122 c 0
 473 92 449 66 417 66 c 0
 386 66 361 91 361 122 c 0
361 474 m 0
 361 505 387 530 417 530 c 0
 448 530 473 505 473 474 c 0
 473 444 449 418 417 418 c 0
 385 418 361 443 361 474 c 0
EndSplineSet
EndChar

StartChar: eth
Encoding: 240 240 216
Width: 528
Flags: HMW
HStem: -10 42<227 308 227 327> 444 42<238 289 206.5 299> 670 29<112 112> 713 20<225 225>
VStem: 33 93<175.5 307 175.5 315.5> 408 85<183.5 288>
LayerCount: 2
Back
SplineSet
342 479 m 1
 317 519 290 556 262 590 c 1
 134 513 l 1
 112 551 l 1
 229 622 l 1
 193 663 l 1
 112 670 l 1
 112 699 l 1
 225 733 l 1
 296 660 l 1
 406 726 l 1
 428 687 l 1
 325 625 l 1
 436 497 493 384 493 267 c 0
 493 100 392 -10 262 -10 c 0
 127 -10 33 96 33 244 c 0
 33 387 134 486 279 486 c 0
 299 486 319 483 342 479 c 1
367 431 m 1
 337 439 310 444 288 444 c 0
 188 444 126 372 126 242 c 0
 126 109 187 32 267 32 c 0
 349 32 408 111 408 251 c 0
 408 325 396 384 367 431 c 1
EndSplineSet
Fore
SplineSet
33 244 m 0
 33 387 134 486 279 486 c 0
 299 486 319 483 342 479 c 1
 317 519 290 556 262 590 c 1
 134 513 l 1
 112 551 l 1
 229 622 l 1
 193 663 l 1
 112 670 l 1
 112 699 l 1
 225 733 l 1
 296 660 l 1
 406 726 l 1
 428 687 l 1
 325 625 l 1
 436 497 493 384 493 267 c 0
 493 100 392 -10 262 -10 c 0
 127 -10 33 96 33 244 c 0
126 242 m 0
 126 109 187 32 267 32 c 0
 349 32 408 111 408 251 c 0
 408 325 396 384 367 431 c 1
 337 439 310 444 288 444 c 0
 188 444 126 372 126 242 c 0
EndSplineSet
EndChar

StartChar: micro
Encoding: 181 181 217
Width: 547
Flags: HMW
HStem: -204 20 -11 63<165.5 220> 412 20<97 169 169 169 370 443 443 443>
VStem: -39 570<-174.5 149.5>
LayerCount: 2
Back
SplineSet
80 94 m 1
 41 -105 57 -204 0 -204 c 0
 -24 -204 -39 -188 -39 -161 c 0
 -39 -120 4 -9 44 181 c 2
 97 432 l 1
 169 432 l 1
 118 192 l 2
 114 172 112 153 112 137 c 0
 112 83 141 52 190 52 c 0
 253 52 297 96 316 183 c 2
 370 432 l 1
 443 432 l 1
 387 173 l 2
 381 144 377 123 377 106 c 0
 377 74 396 53 422 53 c 0
 444 53 465 65 479 87 c 0
 502 122 501 162 518 162 c 0
 526 162 531 155 531 144 c 0
 531 132 526 104 511 71 c 0
 487 18 450 -9 399 -9 c 0
 356 -9 326 25 326 84 c 0
 326 87 326 91 326 95 c 1
 296 24 251 -11 189 -11 c 0
 126 -11 89 25 80 94 c 1
EndSplineSet
Fore
SplineSet
-39 -161 m 0
 -39 -120 4 -9 44 181 c 2
 97 432 l 1
 169 432 l 1
 118 192 l 2
 114 172 112 153 112 137 c 0
 112 83 141 52 190 52 c 0
 253 52 297 96 316 183 c 2
 370 432 l 1
 443 432 l 1
 387 173 l 2
 381 144 377 123 377 106 c 0
 377 74 396 53 422 53 c 0
 444 53 465 65 479 87 c 0
 502 122 501 162 518 162 c 0
 526 162 531 155 531 144 c 0
 531 132 526 104 511 71 c 0
 487 18 450 -9 399 -9 c 0
 356 -9 326 25 326 84 c 0
 326 87 326 91 326 95 c 1
 296 24 251 -11 189 -11 c 0
 126 -11 89 25 80 94 c 1
 41 -105 57 -204 0 -204 c 0
 -24 -204 -39 -188 -39 -161 c 0
EndSplineSet
EndChar

StartChar: multiply
Encoding: 215 215 218
Width: 833
Flags: HMW
HStem: 26 545<186 186 186 651>
VStem: 147 544<66 66 66 531>
LayerCount: 2
Back
SplineSet
186 571 m 1
 419 338 l 1
 651 571 l 1
 691 531 l 1
 459 298 l 1
 691 66 l 1
 651 26 l 1
 419 258 l 1
 186 26 l 1
 147 66 l 1
 379 298 l 1
 147 531 l 1
 186 571 l 1
EndSplineSet
Fore
SplineSet
147 66 m 1
 379 298 l 1
 147 531 l 1
 186 571 l 1
 419 338 l 1
 651 571 l 1
 691 531 l 1
 459 298 l 1
 691 66 l 1
 651 26 l 1
 419 258 l 1
 186 26 l 1
 147 66 l 1
EndSplineSet
EndChar

StartChar: onehalf
Encoding: 189 189 219
Width: 867
Flags: HW
HStem: 0 44<606 795 606 835> 0 671<189 677 189 677 543 677 616 677 616 835> 295 24<78 289 78 78> 354 28<666.5 702.5> 666 11
VStem: 158 55<332 633 633 633> 189 488 760 61<241.5 296> 807 28<0 92>
LayerCount: 2
Back
SplineSet
195 677 m 1xac80
 213 677 l 1
 213 330 l 1
 221 321 l 1
 289 319 l 1
 289 295 l 1
 78 295 l 1
 78 319 l 1
 150 322 l 1
 158 332 l 1
 158 633 l 1
 59 618 l 1
 59 641 l 1
 195 677 l 1xac80
616 671 m 1x42
 677 671 l 1
 250 0 l 1
 189 0 l 1
 616 671 l 1x42
606 44 m 1x91
 795 44 l 1
 807 92 l 1
 835 92 l 1
 835 0 l 1xac80
 543 0 l 1
 543 35 l 1
 681 135 760 196 760 269 c 0
 760 323 729 354 676 354 c 0
 657 354 639 350 620 340 c 1
 620 281 l 1
 611 275 602 272 592 272 c 0
 570 272 557 284 557 304 c 0
 557 343 612 382 690 382 c 0
 772 382 821 340 821 277 c 0
 821 206 745 143 606 44 c 1x91
EndSplineSet
Fore
SplineSet
59 618 m 1
 59 641 l 1
 195 677 l 1xac80
 213 677 l 1
 213 330 l 1
 221 321 l 1
 289 319 l 1
 289 295 l 1
 78 295 l 1
 78 319 l 1
 150 322 l 1
 158 332 l 1
 158 633 l 1
 59 618 l 1
543 0 m 1
 543 35 l 1
 681 135 760 196 760 269 c 0
 760 323 729 354 676 354 c 0
 657 354 639 350 620 340 c 1
 620 281 l 1
 611 275 602 272 592 272 c 0
 570 272 557 284 557 304 c 0
 557 343 612 382 690 382 c 0
 772 382 821 340 821 277 c 0
 821 206 745 143 606 44 c 1x91
 795 44 l 1
 807 92 l 1
 835 92 l 1
 835 0 l 1xac80
 543 0 l 1
EndSplineSet
Refer: 98 8260 S 1 0 0 1 350 0 2
EndChar

StartChar: onequarter
Encoding: 188 188 220
Width: 867
Flags: HW
HStem: -21 11 0 671<189 677 189 677> 109 36<581 737 534 534 785 857> 295 24<78 289 78 78> 368 11 666 11
VStem: 158 55<332 633 633 633> 189 488 737 48<-21 109 -21 109 145 318 318 318>
LayerCount: 2
Back
SplineSet
195 677 m 1xbe80
 213 677 l 1
 213 330 l 1
 221 321 l 1
 289 319 l 1
 289 295 l 1
 78 295 l 1
 78 319 l 1
 150 322 l 1
 158 332 l 1
 158 633 l 1
 59 618 l 1
 59 641 l 1
 195 677 l 1xbe80
616 671 m 1x41
 677 671 l 1
 250 0 l 1
 189 0 l 1
 616 671 l 1x41
749 379 m 1xbe80
 785 379 l 1
 785 145 l 1
 857 145 l 1
 857 109 l 1
 785 109 l 1
 785 -21 l 1
 737 -21 l 1
 737 109 l 1
 534 109 l 1
 534 145 l 1
 749 379 l 1xbe80
737 318 m 1
 581 145 l 1
 737 145 l 1
 737 318 l 1
EndSplineSet
Fore
SplineSet
59 618 m 1
 59 641 l 1
 195 677 l 1xbe80
 213 677 l 1
 213 330 l 1
 221 321 l 1
 289 319 l 1
 289 295 l 1
 78 295 l 1
 78 319 l 1
 150 322 l 1
 158 332 l 1
 158 633 l 1
 59 618 l 1
534 109 m 1
 534 145 l 1
 749 379 l 1xbe80
 785 379 l 1
 785 145 l 1
 857 145 l 1
 857 109 l 1
 785 109 l 1
 785 -21 l 1
 737 -21 l 1
 737 109 l 1
 534 109 l 1
581 145 m 1
 737 145 l 1
 737 318 l 1
 581 145 l 1
EndSplineSet
Refer: 98 8260 S 1 0 0 1 350 0 2
EndChar

StartChar: onesuperior
Encoding: 185 185 221
Width: 367
Flags: HMW
HStem: 268 25<82 303> 666 12
VStem: 166 58<308 630 630 630>
LayerCount: 2
Back
SplineSet
206 678 m 1
 224 678 l 1
 224 305 l 1
 232 296 l 1
 303 293 l 1
 303 268 l 1
 82 268 l 1
 82 294 l 1
 158 297 l 1
 166 308 l 1
 166 630 l 1
 63 614 l 1
 63 639 l 1
 206 678 l 1
EndSplineSet
Fore
SplineSet
63 614 m 1
 63 639 l 1
 206 678 l 1
 224 678 l 1
 224 305 l 1
 232 296 l 1
 303 293 l 1
 303 268 l 1
 82 268 l 1
 82 294 l 1
 158 297 l 1
 166 308 l 1
 166 630 l 1
 63 614 l 1
EndSplineSet
EndChar

StartChar: plusminus
Encoding: 177 177 222
Width: 833
Flags: HMW
HStem: 20 57<124 709 124 709> 351 57<124 388 124 388 446 709>
VStem: 388 58<183 351 183 351 408 576>
LayerCount: 2
Back
SplineSet
388 576 m 1
 446 576 l 1
 446 408 l 1
 709 408 l 1
 709 351 l 1
 446 351 l 1
 446 183 l 1
 388 183 l 1
 388 351 l 1
 124 351 l 1
 124 408 l 1
 388 408 l 1
 388 576 l 1
124 77 m 1
 709 77 l 1
 709 20 l 1
 124 20 l 1
 124 77 l 1
EndSplineSet
Fore
SplineSet
124 20 m 1
 124 77 l 1
 709 77 l 1
 709 20 l 1
 124 20 l 1
124 351 m 1
 124 408 l 1
 388 408 l 1
 388 576 l 1
 446 576 l 1
 446 408 l 1
 709 408 l 1
 709 351 l 1
 446 351 l 1
 446 183 l 1
 388 183 l 1
 388 351 l 1
 124 351 l 1
EndSplineSet
EndChar

StartChar: thorn
Encoding: 254 254 223
Width: 551
Flags: HMW
HStem: -218 36<28 28 28 262> -3 45<262.5 316 255 349> 428 63<304.5 330.5> 669 31<20 98 20 20> 716 20<143 181 181 181>
VStem: 98 83<-161 6 58 394 431 669 669 669> 433 88<182.5 301.5>
LayerCount: 2
Back
SplineSet
28 -218 m 1
 28 -182 l 1
 81 -177 l 1
 98 -161 l 1
 98 669 l 1
 20 669 l 1
 20 700 l 1
 143 736 l 1
 181 736 l 1
 181 431 l 1
 234 471 281 491 328 491 c 0
 438 491 521 397 521 257 c 0
 521 99 423 -3 275 -3 c 0
 250 -3 218 0 181 6 c 1
 181 -161 l 1
 199 -177 l 1
 262 -182 l 1
 262 -218 l 1
 28 -218 l 1
181 58 m 1
 214 47 243 42 267 42 c 0
 365 42 433 121 433 244 c 0
 433 359 374 428 287 428 c 0
 253 428 219 416 181 394 c 1
 181 58 l 1
EndSplineSet
Fore
SplineSet
20 669 m 5
 20 700 l 5
 143 736 l 5
 181 736 l 5
 181 431 l 5
 234 471 281 491 328 491 c 0
 438 491 521 397 521 257 c 0
 521 99 423 -3 275 -3 c 0
 250 -3 218 0 181 6 c 1
 181 -161 l 5
 199 -177 l 5
 262 -182 l 5
 262 -218 l 5
 28 -218 l 5
 28 -182 l 5
 81 -177 l 5
 98 -161 l 5
 98 669 l 5
 20 669 l 5
181 58 m 1
 214 47 243 42 267 42 c 0
 365 42 433 121 433 244 c 0
 433 359 374 428 287 428 c 0
 253 428 219 416 181 394 c 1
 181 58 l 1
EndSplineSet
EndChar

StartChar: threequarters
Encoding: 190 190 224
Width: 868
Flags: HW
HStem: -21 11 0 671<189 677 189 677> 109 36<581 737 534 534 785 857> 289 26<143.5 181.5 143.5 199.5> 368 11 649 28<145 180.5>
VStem: 189 488 236 58<561.5 598> 252 58<379 426> 737 48<-21 109 -21 109 145 318 318 318>
LayerCount: 2
Back
SplineSet
200 493 m 1x05
 270 488 310 453 310 403 c 0
 310 340 248 289 151 289 c 0
 76 289 26 322 26 350 c 0
 26 367 41 379 61 379 c 0
 67 379 73 378 80 376 c 1
 100 329 l 1
 117 320 134 315 153 315 c 0
 210 315 252 354 252 404 c 0xb8c0
 252 448 219 474 159 474 c 0
 149 474 137 473 125 471 c 1
 125 504 l 1
 130 504 134 504 139 504 c 0
 202 504 236 531 236 576 c 0
 236 620 205 649 156 649 c 0
 134 649 115 644 96 633 c 1
 96 580 l 1
 89 575 81 573 71 573 c 0
 50 573 37 585 37 603 c 0
 37 640 91 677 169 677 c 0
 245 677 294 640 294 583 c 0
 294 540 261 508 200 493 c 1x05
616 671 m 1x42
 677 671 l 1
 250 0 l 1
 189 0 l 1
 616 671 l 1x42
749 379 m 1xb8c0
 785 379 l 1
 785 145 l 1
 857 145 l 1
 857 109 l 1
 785 109 l 1
 785 -21 l 1
 737 -21 l 1
 737 109 l 1
 534 109 l 1
 534 145 l 1
 749 379 l 1xb8c0
737 318 m 1
 581 145 l 1
 737 145 l 1
 737 318 l 1
EndSplineSet
Fore
SplineSet
26 350 m 0
 26 367 41 379 61 379 c 0
 67 379 73 378 80 376 c 1
 100 329 l 1
 117 320 134 315 153 315 c 0
 210 315 252 354 252 404 c 0xb8c0
 252 448 219 474 159 474 c 0
 149 474 137 473 125 471 c 1
 125 504 l 1
 130 504 134 504 139 504 c 0
 202 504 236 531 236 576 c 0
 236 620 205 649 156 649 c 0
 134 649 115 644 96 633 c 1
 96 580 l 1
 89 575 81 573 71 573 c 0
 50 573 37 585 37 603 c 0
 37 640 91 677 169 677 c 0
 245 677 294 640 294 583 c 0
 294 540 261 508 200 493 c 1x05
 270 488 310 453 310 403 c 0
 310 340 248 289 151 289 c 0
 76 289 26 322 26 350 c 0
534 109 m 1
 534 145 l 1
 749 379 l 1xb8c0
 785 379 l 1
 785 145 l 1
 857 145 l 1
 857 109 l 1
 785 109 l 1
 785 -21 l 1
 737 -21 l 1
 737 109 l 1
 534 109 l 1
581 145 m 1
 737 145 l 1
 737 318 l 1
 581 145 l 1
EndSplineSet
Refer: 98 8260 S 1 0 0 1 350 0 2
EndChar

StartChar: threesuperior
Encoding: 179 179 225
Width: 367
Flags: HW
HStem: 261 29<150.5 190 150.5 208.5> 647 31<152.5 189.5>
VStem: 248 60<554 593> 264 61<357.5 408>
LayerCount: 2
Back
SplineSet
209 480 m 1x60
 282 475 325 438 325 383 c 0
 325 316 259 261 158 261 c 0
 79 261 27 297 27 327 c 0
 27 345 43 358 64 358 c 0
 70 358 77 357 84 355 c 1
 104 304 l 1
 122 294 141 290 160 290 c 0
 220 290 264 331 264 384 c 0x90
 264 432 230 459 166 459 c 0
 156 459 144 459 131 457 c 1
 131 492 l 1
 136 492 141 492 145 492 c 0
 212 492 248 521 248 569 c 0
 248 617 215 647 164 647 c 0
 141 647 120 642 101 630 c 1
 101 573 l 1
 93 568 84 566 74 566 c 0
 53 566 38 579 38 598 c 0
 38 638 95 678 178 678 c 0
 257 678 308 638 308 577 c 0
 308 531 274 497 209 480 c 1x60
EndSplineSet
Fore
SplineSet
27 327 m 0
 27 345 43 358 64 358 c 0
 70 358 77 357 84 355 c 1
 104 304 l 1
 122 294 141 290 160 290 c 0
 220 290 264 331 264 384 c 0x90
 264 432 230 459 166 459 c 0
 156 459 144 459 131 457 c 1
 131 492 l 1
 136 492 141 492 145 492 c 0
 212 492 248 521 248 569 c 0
 248 617 215 647 164 647 c 0
 141 647 120 642 101 630 c 1
 101 573 l 1
 93 568 84 566 74 566 c 0
 53 566 38 579 38 598 c 0
 38 638 95 678 178 678 c 0
 257 678 308 638 308 577 c 0
 308 531 274 497 209 480 c 1x60
 282 475 325 438 325 383 c 0
 325 316 259 261 158 261 c 0
 79 261 27 297 27 327 c 0
EndSplineSet
EndChar

StartChar: twosuperior
Encoding: 178 178 226
Width: 367
Flags: HW
HStem: 268 47<93 292 93 333> 647 31<157 194.5>
VStem: 255 64<526.5 585.5> 304 29<268 366>
LayerCount: 2
Back
SplineSet
93 315 m 1xe0
 292 315 l 1
 304 366 l 1
 333 366 l 1
 333 268 l 1x90
 28 268 l 1
 28 306 l 1
 172 413 255 478 255 557 c 0
 255 614 222 647 167 647 c 0
 147 647 128 643 108 633 c 1
 108 569 l 1
 99 563 89 560 79 560 c 0
 55 560 42 573 42 593 c 0
 42 635 100 678 182 678 c 0
 267 678 319 632 319 564 c 0
 319 489 239 421 93 315 c 1xe0
EndSplineSet
Fore
SplineSet
28 268 m 1
 28 306 l 1
 172 413 255 478 255 557 c 0
 255 614 222 647 167 647 c 0
 147 647 128 643 108 633 c 1
 108 569 l 1
 99 563 89 560 79 560 c 0
 55 560 42 573 42 593 c 0
 42 635 100 678 182 678 c 0
 267 678 319 632 319 564 c 0
 319 489 239 421 93 315 c 1xe0
 292 315 l 1
 304 366 l 1
 333 366 l 1
 333 268 l 1x90
 28 268 l 1
EndSplineSet
EndChar

StartChar: uni0237
Encoding: 567 567 228
Width: 266
Flags: HW
HStem: -218 21G<-31 18> 419 31<38 60.5556> 466 20G<89.5556 192>
VStem: 109 83<-95.4684 419>
LayerCount: 2
Back
SplineSet
109 419 m 1
 38 419 l 1
 38 450 l 1
 154 486 l 1
 192 486 l 1
 192 84 l 2
 192 -19 190 -93 135 -153 c 0
 96 -195 45 -218 -9 -218 c 0
 -53 -218 -78 -196 -78 -164 c 0
 -78 -142 -66 -123 -41 -112 c 1
 56 -171 l 1
 93 -159 109 -108 109 -16 c 2
 109 419 l 1
EndSplineSet
Fore
SplineSet
-78 -164 m 0
 -78 -142 -66 -123 -41 -112 c 1
 56 -171 l 1
 93 -159 109 -108 109 -16 c 2
 109 419 l 1
 38 419 l 1
 38 450 l 1
 154 486 l 1
 192 486 l 1
 192 84 l 2
 192 -19 190 -93 135 -153 c 0
 96 -195 45 -218 -9 -218 c 0
 -53 -218 -78 -196 -78 -164 c 0
EndSplineSet
EndChar

StartChar: afii10020
Encoding: 1043 1043 256
Width: 516
Flags: W
HStem: 0 41<33 90 214 285> 625 46<25 90 197 409>
VStem: 107 90<60 611> 439 53<500 545.294>
LayerCount: 2
Back
SplineSet
25 631 m 1
 25 671 l 1
 505 671 l 1
 505 515 l 1
 450 515 l 1
 435 610 l 1
 422 625 l 1
 197 625 l 1
 197 362 l 1
 361 362 l 1
 375 376 l 1
 385 449 l 1
 432 449 l 1
 432 228 l 1
 385 228 l 1
 375 301 l 1
 361 316 l 1
 197 316 l 1
 197 60 l 1
 214 46 l 1
 285 41 l 1
 285 0 l 1
 33 0 l 1
 33 41 l 1
 90 46 l 1
 107 60 l 1
 107 611 l 1
 90 625 l 1
 25 631 l 1
EndSplineSet
Fore
SplineSet
33 0 m 1
 33 41 l 1
 90 46 l 1
 107 60 l 1
 107 611 l 1
 90 625 l 1
 25 631 l 1
 25 671 l 1
 492 671 l 1
 492 500 l 1
 439 500 l 1
 422 610 l 1
 409 625 l 1
 197 625 l 1
 197 60 l 1
 214 46 l 1
 285 41 l 1
 285 0 l 1
 33 0 l 1
EndSplineSet
EndChar

StartChar: afii10033
Encoding: 1055 1055 257
Width: 732
Flags: W
HStem: 0 41<33 90 214 276 456 518 642 699> 625 46<33 90 197 535 642 699>
VStem: 107 90<60 611> 535 90<60 611>
LayerCount: 2
Fore
SplineSet
33 0 m 1
 33 41 l 1
 90 46 l 1
 107 60 l 1
 107 611 l 1
 90 625 l 1
 33 631 l 1
 33 671 l 1
 699 671 l 1
 699 631 l 1
 642 625 l 1
 625 611 l 1
 625 60 l 1
 642 46 l 1
 699 41 l 1
 699 0 l 1
 456 0 l 1
 456 41 l 1
 518 46 l 1
 535 60 l 1
 535 625 l 1
 197 625 l 1
 197 60 l 1
 214 46 l 1
 276 41 l 1
 276 0 l 1
 33 0 l 1
EndSplineSet
EndChar

StartChar: afii10046
Encoding: 1068 1068 258
Width: 577
Flags: W
HStem: 0 46<33 90 197.845 376.624> 332 48<197 382.707> 631 40<33 90 214 276>
VStem: 107 90<60 329.986 376 611> 443 99<105.396 276.63>
LayerCount: 2
Back
SplineSet
276 671 m 1
 276 631 l 1
 214 625 l 1
 197 611 l 1
33 0 m 1
 33 41 l 1
 90 46 l 1
 107 60 l 1
 107 611 l 1
 90 625 l 1
 33 631 l 1
 33 671 l 1xf4
 288 671 l 2
 441 671 517 619 517 509 c 0x78
 517 433 468 382 372 356 c 1
 491 355 558 294 558 196 c 0
 558 70 467 0 297 0 c 2
 33 0 l 1
197 50 m 1xf4
 221 48 243 47 264 47 c 0
 398 47 460 88 460 189 c 0
 460 280 406 323 295 323 c 0
 269 323 236 321 197 317 c 1
 197 50 l 1xf4
197 367 m 1xfc
 210 366 223 366 235 366 c 0
 360 366 418 408 418 505 c 0
 418 586 364 627 254 627 c 0
 241 627 222 625 197 624 c 1
 197 367 l 1xfc
EndSplineSet
Fore
SplineSet
33 0 m 1
 33 41 l 1
 90 46 l 1
 107 60 l 1
 107 611 l 1
 90 625 l 1
 33 631 l 1
 33 671 l 1
 276 671 l 1
 276 631 l 1
 214 625 l 1
 197 611 l 1
 197 376 l 1
 228 379 249 380 274 380 c 0
 443 380 542 315 542 190 c 0
 542 51 450 0 258 0 c 2
 33 0 l 1
197 49 m 1
 215 47 235 46 251 46 c 0
 379 46 443 78 443 192 c 0
 443 296 386 332 265 332 c 0
 250 332 226 331 197 328 c 1
 197 49 l 1
EndSplineSet
EndChar

StartChar: afii10018
Encoding: 1041 1041 259
Width: 598
Flags: W
HStem: 0 47<33 90 197.855 384.937> 342 48<197 381.087> 625 46<33 90 197 442>
VStem: 107 90<60 339.986 386 611> 457 99<107.366 276.323> 471 54<512 554.875>
LayerCount: 2
Back
SplineSet
33 0 m 5
 33 41 l 5
 90 46 l 5
 107 60 l 5
 107 611 l 5
 90 625 l 5
 33 631 l 5
 33 671 l 5xf4
 288 671 l 6
 441 671 517 619 517 509 c 4x78
 517 433 468 382 372 356 c 5
 491 355 558 294 558 196 c 4
 558 70 467 0 297 0 c 6
 33 0 l 5
197 50 m 5xf4
 221 48 243 47 264 47 c 4
 398 47 460 88 460 189 c 4
 460 280 406 323 295 323 c 4
 269 323 236 321 197 317 c 5
 197 50 l 5xf4
197 367 m 5xfc
 210 366 223 366 235 366 c 4
 360 366 418 408 418 505 c 4
 418 586 364 627 254 627 c 4
 241 627 222 625 197 624 c 5
 197 367 l 5xfc
EndSplineSet
Fore
SplineSet
33 0 m 1xf8
 33 41 l 1
 90 46 l 1
 107 60 l 1
 107 611 l 1
 90 625 l 1
 33 631 l 1
 33 671 l 1
 525 671 l 1
 525 512 l 1
 471 512 l 1xf4
 455 610 l 1
 442 625 l 1
 197 625 l 1
 197 386 l 1
 228 389 248 390 277 390 c 0
 448 390 556 325 556 195 c 0
 556 78 481 0 289 0 c 2
 33 0 l 1xf8
197 50 m 1
 215 48 249 47 265 47 c 0
 393 47 457 84 457 195 c 0xf8
 457 303 380 342 259 342 c 0
 244 342 226 341 197 338 c 1
 197 50 l 1
EndSplineSet
EndChar

StartChar: afii10026
Encoding: 1048 1048 260
Width: 744
Flags: HW
HStem: 0 41<33 90 214 276 468 530 654 711> 631 40<33 90 214 276 468 530 654 711>
VStem: 107 90<60 611> 547 90<60 611>
LayerCount: 2
Back
SplineSet
33 0 m 1
 33 41 l 1
 90 46 l 1
 107 60 l 1
 107 611 l 1
 90 625 l 1
 33 631 l 1
 33 671 l 1
 276 671 l 1
 276 631 l 1
 214 625 l 1
 197 611 l 1
 197 375 l 1
 541 375 l 1
 541 611 l 1
 524 625 l 1
 462 631 l 1
 462 671 l 1
 705 671 l 1
 705 631 l 1
 648 625 l 1
 631 611 l 1
 631 60 l 1
 648 46 l 1
 705 41 l 1
 705 0 l 1
 462 0 l 1
 462 41 l 1
 524 46 l 1
 541 60 l 1
 541 329 l 1
 197 329 l 1
 197 60 l 1
 214 46 l 1
 276 41 l 1
 276 0 l 1
 33 0 l 1
EndSplineSet
Fore
SplineSet
142.646 125.638 m 1
 564.197 593.819 l 1
 601.354 560.362 l 1
 179.803 92.1807 l 1
 142.646 125.638 l 1
547 611 m 1
 530 625 l 1
 468 631 l 1
 468 671 l 1
 711 671 l 1
 711 631 l 1
 654 625 l 1
 637 611 l 1
 637 60 l 1
 654 46 l 1
 711 41 l 1
 711 0 l 1
 468 0 l 1
 468 41 l 1
 530 46 l 1
 547 60 l 1
 547 611 l 1
33 0 m 1
 33 41 l 1
 90 46 l 1
 107 60 l 1
 107 611 l 1
 90 625 l 1
 33 631 l 1
 33 671 l 1
 276 671 l 1
 276 631 l 1
 214 625 l 1
 197 611 l 1
 197 60 l 1
 214 46 l 1
 276 41 l 1
 276 0 l 1
 33 0 l 1
EndSplineSet
EndChar

StartChar: afii10040
Encoding: 1062 1062 261
Width: 734
Flags: W
HStem: -170 21G<645.863 703> 0 46<33 90 197 529> 631 40<33 90 214 276 450 512 636 693>
VStem: 107 90<60 611> 529 90<60 611> 649 54<-170 -125.375>
LayerCount: 2
Fore
SplineSet
33 0 m 1
 33 41 l 1
 90 46 l 1
 107 60 l 1
 107 611 l 1
 90 625 l 1
 33 631 l 1
 33 671 l 1
 276 671 l 1
 276 631 l 1
 214 625 l 1
 197 611 l 1
 197 46 l 1
 529 46 l 1
 529 611 l 1
 512 625 l 1
 450 631 l 1
 450 671 l 1
 693 671 l 1
 693 631 l 1
 636 625 l 1
 619 611 l 1
 619 60 l 1
 636 46 l 1
 703 41 l 1
 703 -170 l 1
 649 -170 l 1
 625 -17 l 1
 603 0 l 1
 33 0 l 1
EndSplineSet
EndChar

StartChar: afii10029
Encoding: 1051 1051 262
Width: 717
Flags: W
HStem: -16 21G<79.5 143.5> 0 41<490 559 688.091 725> 631 40<268 338>
DStem2: 240 254 301 270 0.289561 0.95716<-182.906 336.325> 441 671 390 560 0.342961 -0.93935<86.7768 617.499>
LayerCount: 2
Back
SplineSet
67 0 m 1
 67 41 l 1
 125 53 l 1
 359 679 l 1
 425 679 l 1
 665 53 l 1
 725 41 l 1
 725 0 l 1
 498 0 l 1
 498 41 l 1
 560 46 l 1
 567 60 l 1
 495 251 l 1
 259 251 l 1
 188 60 l 1
 198 46 l 1
 263 41 l 1
 263 0 l 1
 67 0 l 1
276 297 m 1
 478 297 l 1
 375 574 l 1
 276 297 l 1
EndSplineSet
Fore
SplineSet
20 43 m 0xa0
 20 73 30 95 64 110 c 1
 142 45 l 1
 174 72 196 108 240 254 c 2
 348 611 l 1
 338 625 l 1
 268 631 l 1
 268 671 l 1
 441 671 l 1
 667 52 l 1
 725 41 l 1
 725 0 l 1
 490 0 l 1
 490 41 l 1x60
 559 46 l 1
 568 60 l 1
 390 560 l 1
 301 270 l 2
 234 52 190 -16 97 -16 c 0
 62 -16 20 0 20 43 c 0xa0
EndSplineSet
EndChar

StartChar: afii10041
Encoding: 1063 1063 263
Width: 691
Flags: W
HStem: 0 41<415 477 601 658> 257 72<215.5 390.266> 631 40<28 85 209 266 421 477 601 658>
VStem: 102 90<352.293 611> 494 90<60 335 377.302 611>
LayerCount: 2
Back
SplineSet
33 0 m 5
 33 41 l 5
 90 46 l 5
 107 60 l 5
 107 611 l 5
 90 625 l 5
 33 631 l 5
 33 671 l 5
 276 671 l 5
 276 631 l 5
 214 625 l 5
 197 611 l 5
 197 375 l 5
 541 375 l 5
 541 611 l 5
 524 625 l 5
 462 631 l 5
 462 671 l 5
 705 671 l 5
 705 631 l 5
 648 625 l 5
 631 611 l 5
 631 60 l 5
 648 46 l 5
 705 41 l 5
 705 0 l 5
 462 0 l 5
 462 41 l 5
 524 46 l 5
 541 60 l 5
 541 329 l 5
 197 329 l 5
 197 60 l 5
 214 46 l 5
 276 41 l 5
 276 0 l 5
 33 0 l 5
EndSplineSet
Fore
SplineSet
28 631 m 1
 28 671 l 1
 266 671 l 1
 266 631 l 1
 209 625 l 1
 192 611 l 1
 192 437 l 2
 192 348 216 329 303 329 c 0
 368 329 424 348 494 388 c 1
 494 611 l 1
 477 625 l 1
 421 631 l 1
 421 671 l 1
 658 671 l 1
 658 631 l 1
 601 625 l 1
 584 611 l 1
 584 60 l 1
 601 46 l 1
 658 41 l 1
 658 0 l 1
 415 0 l 1
 415 41 l 1
 477 46 l 1
 494 60 l 1
 494 335 l 1
 430 294 370 257 276 257 c 0
 158 257 102 310 102 464 c 2
 102 611 l 1
 85 625 l 1
 28 631 l 1
EndSplineSet
EndChar

StartChar: afii10048
Encoding: 1070 1070 264
Width: 1002
Flags: W
HStem: -16 53<593.5 694> 0 41<33 90 214 276> 329 46<197 391> 631 40<33 90 214 276> 634 54<593 679 593 700.5>
VStem: 107 90<60 329 375 611> 313 104<281.5 390.5> 854 105<299 390.5 299 429>
LayerCount: 2
Fore
SplineSet
391 329 m 5x77
 197 329 l 5
 197 60 l 1
 214 46 l 1
 276 41 l 1
 276 0 l 1
 33 0 l 1
 33 41 l 1
 90 46 l 1
 107 60 l 1
 107 611 l 1
 90 625 l 1
 33 631 l 1
 33 671 l 1
 276 671 l 1
 276 631 l 1
 214 625 l 1
 197 611 l 1
 197 375 l 5
 391 375 l 5
 391 329 l 5x77
EndSplineSet
Refer: 47 79 N 1 0 0 1 270 0 2
EndChar

StartChar: afii10038
Encoding: 1060 1060 265
Width: 804
Flags: W
HStem: -4 41<269 340 464 535> 115 46<234.727 357 447 569.273> 525 46<234.727 357 447 569.273> 640 40<269 340 464 535>
VStem: 38 93<252.048 433.952> 357 90<56 115 161 525 571 620> 673 93<252.048 433.952>
CounterMasks: 1 0e
LayerCount: 2
Fore
SplineSet
131 343 m 0
 131 223 217 161 357 161 c 9
 357 115 l 17
 107 115 38 213 38 343 c 0
 38 473 107 571 357 571 c 9
 357 525 l 17
 217 525 131 463 131 343 c 0
673 343 m 0
 673 463 587 525 447 525 c 9
 447 571 l 17
 697 571 766 473 766 343 c 0
 766 213 697 115 447 115 c 9
 447 161 l 17
 587 161 673 223 673 343 c 0
269 -4 m 1
 269 37 l 1
 340 42 l 1
 357 56 l 1
 357 620 l 1
 340 634 l 1
 269 640 l 1
 269 680 l 1
 535 680 l 1
 535 640 l 1
 464 634 l 1
 447 620 l 1
 447 56 l 1
 464 42 l 1
 535 37 l 1
 535 -4 l 1
 269 -4 l 1
EndSplineSet
EndChar

StartChar: afii10021
Encoding: 1044 1044 266
Width: 682
Flags: W
HStem: -170 21G<12 69.1373 612.863 670> 0 46<146 504> 631 40<192 262>
VStem: 12 54<-170 -125.375> 616 54<-170 -125.375>
DStem2: 92 52 146 46 0.306505 0.951869<10.8401 551.594> 368 671 314 560 0.348301 -0.937383<85.2413 633.233>
LayerCount: 2
Back
SplineSet
20 43 m 0xa0
 20 73 30 95 64 110 c 1
 142 45 l 1
 174 72 196 108 240 254 c 2
 348 611 l 1
 338 625 l 1
 268 631 l 1
 268 671 l 1
 441 671 l 1
 667 52 l 1
 725 41 l 1
 725 0 l 1
 490 0 l 1
 490 41 l 1x60
 559 46 l 1
 568 60 l 1
 390 560 l 1
 301 270 l 2
 234 52 190 -16 97 -16 c 0
 62 -16 20 0 20 43 c 0xa0
EndSplineSet
Fore
SplineSet
12 -170 m 1
 12 41 l 1
 92 52 l 9
 272 611 l 1
 262 625 l 1
 192 631 l 1
 192 671 l 1
 368 671 l 1
 598 52 l 1
 670 41 l 1
 670 -170 l 1
 616 -170 l 1
 592 -17 l 1
 570 0 l 1
 112 0 l 1
 90 -17 l 1
 66 -170 l 1
 12 -170 l 1
146 46 m 17
 504 46 l 1
 314 560 l 1
 146 46 l 17
EndSplineSet
EndChar

StartChar: afii10037
Encoding: 1059 1059 267
Width: 638
Flags: W
HStem: -16 21G<165 259.5> 631 40<4 41.3333 184 235 439 499 598.417 634>
DStem2: 173 611 68 619 0.447214 -0.894427<0 427.983> 364 228 425 236 0.360447 0.93278<0 409.519>
LayerCount: 2
Back
SplineSet
514 619 m 1
 322 130 l 1
412 130 m 1
 169 619 l 1
574 619 m 1
 382 130 l 1
 312 130 l 1
 69 619 l 1
EndSplineSet
Fore
SplineSet
101 54 m 0
 101 98 121 119 160 128 c 1
 223 39 l 1
 258 49 279 66 315 125 c 1
 68 619 l 1
 4 631 l 1
 4 671 l 1
 235 671 l 1
 235 631 l 1
 184 625 l 1
 173 611 l 1
 364 228 l 1
 509 611 l 1
 499 625 l 1
 439 631 l 1
 439 671 l 1
 634 671 l 1
 634 631 l 1
 573 619 l 1
 425 236 l 1
 372 102 319 -16 200 -16 c 0
 130 -16 101 25 101 54 c 0
EndSplineSet
EndChar

StartChar: afii10042
Encoding: 1064 1064 268
Width: 996
Flags: W
HStem: 0 46<33 90 197 453 543 799 906 963> 631 40<33 90 214 271 379 436 560 617 725 782 906 963>
VStem: 107 90<60 611> 453 90<46 611> 799 90<60 611>
CounterMasks: 1 38
LayerCount: 2
Fore
SplineSet
33 0 m 1
 33 41 l 1
 90 46 l 1
 107 60 l 1
 107 611 l 1
 90 625 l 1
 33 631 l 1
 33 671 l 1
 271 671 l 1
 271 631 l 1
 214 625 l 1
 197 611 l 1
 197 46 l 1
 453 46 l 1
 453 611 l 1
 436 625 l 1
 379 631 l 1
 379 671 l 1
 617 671 l 1
 617 631 l 1
 560 625 l 1
 543 611 l 1
 543 46 l 1
 799 46 l 1
 799 611 l 1
 782 625 l 1
 725 631 l 1
 725 671 l 1
 963 671 l 1
 963 631 l 1
 906 625 l 1
 889 611 l 1
 889 60 l 1
 906 46 l 1
 963 41 l 1
 963 0 l 1
 33 0 l 1
EndSplineSet
EndChar

StartChar: afii10028
Encoding: 1050 1050 269
Width: 667
Flags: W
HStem: -11 50<556.347 660.343> 0 41<33 90 214 276 644.33 661> 332 46<197 282.292> 615 68<464.905 551.5> 631 40<33 90 214 276>
VStem: 107 90<60 332 378 611> 549 53<556 610.617>
LayerCount: 2
Fore
SplineSet
33 0 m 1x66
 33 41 l 1
 90 46 l 1
 107 60 l 1
 107 611 l 1
 90 625 l 1
 33 631 l 1
 33 671 l 1
 276 671 l 1
 276 631 l 1x6e
 214 625 l 1
 197 611 l 1
 197 378 l 1
 212 378 l 2
 300 378 341 452 370 525 c 0
 406 615 435 683 542 683 c 0
 561 683 590 674 602 662 c 1
 602 556 l 1
 549 556 l 1
 545 597 533 615 511 615 c 0
 473 615 460 602 426 511 c 0
 402 447 357 380 317 366 c 1
 361 360 464 336 507 171 c 0
 537 56 554 39 644 39 c 0
 651 39 661 40 661 40 c 1
 661 1 l 1
 633 -7 613 -11 583 -11 c 0xb6
 469 -11 444 46 417 140 c 0
 386 248 338 332 233 332 c 2
 197 332 l 1
 197 60 l 1
 214 46 l 1
 276 41 l 1
 276 0 l 1
 33 0 l 1x66
EndSplineSet
EndChar

StartChar: afii10045
Encoding: 1067 1067 270
Width: 842
Flags: W
HStem: 0 41<566 628 752 809> 0 46<33 90 197.845 376.624> 332 48<197 382.707> 631 40<33 90 214 276 566 628 752 809>
VStem: 107 90<60 329.986 376 611> 443 99<105.396 276.63> 645 90<60 611>
LayerCount: 2
Fore
SplineSet
566 0 m 1xbe
 566 41 l 1xbe
 628 46 l 1
 645 60 l 1
 645 611 l 1
 628 625 l 1
 566 631 l 1
 566 671 l 1
 809 671 l 1
 809 631 l 1
 752 625 l 1
 735 611 l 1
 735 60 l 1
 752 46 l 1x7e
 809 41 l 1
 809 0 l 1
 566 0 l 1xbe
EndSplineSet
Refer: 258 1068 N 1 0 0 1 0 0 2
EndChar

StartChar: afii10047
Encoding: 1069 1069 271
Width: 625
Flags: W
HStem: -12 53<132.053 339.509> 297 67<310.322 432.96> 337 67<172.296 297.886> 630 53<138.351 351.841>
VStem: 44 53<141.409 171 506 541.933> 479 103<202.754 377>
LayerCount: 2
Back
SplineSet
169 381 m 1
 484 381 l 1
 484 335 l 1
 169 335 l 1
 169 381 l 1
589 336 m 0
 589 205 523 89 416 28 c 0
 370 2 312 -12 246 -12 c 0
 179 -12 110 0 44 23 c 1
 44 181 l 1
 100 181 l 1
 122 70 l 1
 138 54 l 1
 168 45 197 41 225 41 c 0
 387 41 486 153 486 343 c 0
 486 522 389 630 240 630 c 0
 201 630 165 621 128 604 c 1
 115 586 l 1
 100 495 l 1
 44 495 l 1
 44 649 l 1
 117 672 183 683 242 683 c 0
 450 683 589 544 589 336 c 0
EndSplineSet
Fore
SplineSet
130 337 m 1xbc
 159 381 196 404 238 404 c 0xbc
 286 404 346 364 387 364 c 0
 414 364 472 368 472 429 c 1
 488 384 l 1
 480 370 l 1
 449 326 418 297 371 297 c 0xdc
 323 297 261 337 220 337 c 0
 202 337 177 337 153 312 c 1
 130 337 l 1xbc
44 31 m 1
 44 171 l 1
 97 171 l 1
 119 78 l 1
 132 60 l 1
 147 49 191 41 235 41 c 0
 306 41 376 65 418 121 c 0
 464 183 479 252 479 366 c 1
 481 377 l 1
 478 380 l 1
 467 537 388 630 250 630 c 0
 208 630 159 622 125 601 c 1
 112 583 l 1
 97 506 l 1
 44 506 l 1
 44 646 l 1
 114 672 192 683 252 683 c 0
 460 683 582 544 582 336 c 0
 582 167 485 -12 256 -12 c 0
 176 -12 109 -5 44 31 c 1
EndSplineSet
EndChar

StartChar: afii10044
Encoding: 1066 1066 272
Width: 737
Flags: W
HStem: 0 46<193 250 357.845 536.624> 332 48<357 542.707> 492 21G<25 84.2203> 625 46<114 273.429 374 439>
VStem: 25 56<492 535.474> 267 90<60 329.986 376 611> 603 99<105.396 276.63>
LayerCount: 2
Fore
SplineSet
25 492 m 1
 25 671 l 1
 439 671 l 1
 439 631 l 1
 374 625 l 1
 357 611 l 1
 267 625 l 1
 114 625 l 1
 100 610 l 1
 81 492 l 1
 25 492 l 1
357 611 m 1
 357 376 l 1
 388 379 409 380 434 380 c 0
 603 380 702 315 702 190 c 0
 702 51 610 0 418 0 c 2
 193 0 l 1
 193 41 l 1
 250 46 l 1
 267 60 l 1
 267 631 l 1
 357 611 l 1
357 49 m 1
 375 47 395 46 411 46 c 0
 539 46 603 78 603 192 c 0
 603 296 546 332 425 332 c 0
 410 332 386 331 357 328 c 1
 357 49 l 1
EndSplineSet
EndChar

StartChar: afii10025
Encoding: 1047 1047 273
Width: 566
Flags: HW
HStem: -12 53<134.133 350.42> 332 46<182 343.672> 630 53<137.9 342.384>
VStem: 44 53<143.737 178 503 547.333> 399 99<433.034 580.057> 421 99<105.546 263.316>
LayerCount: 2
Fore
SplineSet
44 38 m 1xf4
 44 178 l 1
 97 178 l 1
 116 85 l 1
 127 67 l 1
 148 52 193 41 234 41 c 0
 355 41 421 83 421 189 c 0xf4
 421 277 352 332 243 332 c 1
 182 329 l 1
 182 381 l 1
 243 378 l 1
 364 378 399 418 399 510 c 0
 399 592 338 630 239 630 c 0
 184 630 149 617 121 599 c 1
 109 579 l 1
 97 503 l 1
 44 503 l 1
 44 637 l 1
 107 668 173 683 247 683 c 0
 394 683 498 617 498 507 c 0xf8
 498 431 450 383 352 357 c 1
 471 344 520 270 520 182 c 0
 520 53 418 -12 251 -12 c 0
 163 -12 98 5 44 38 c 1xf4
EndSplineSet
EndChar

StartChar: afii10043
Encoding: 1065 1065 274
Width: 1006
Flags: W
HStem: -170 21G<917.863 975> 0 46<33 90 197 453 543 799 906 963> 631 40<33 90 214 271 379 436 560 617 725 782 906 963>
VStem: 107 90<60 611> 453 90<46 611> 799 90<60 611> 921 54<-170 -125.375>
LayerCount: 2
Fore
SplineSet
906 46 m 1
 975 41 l 1
 975 -170 l 1
 921 -170 l 1
 897 -17 l 1
 875 0 l 1
 906 46 l 1
EndSplineSet
Refer: 268 1064 N 1 0 0 1 0 0 2
EndChar

StartChar: afii10049
Encoding: 1071 1071 275
Width: 660
Flags: W
HStem: -11 50<16.7467 111.178> 0 41<16 24.8594 389 446 570 627> 292 46<306.352 463> 625 46<260.903 463 570 627>
VStem: 101 98<413.101 570.418> 463 90<60 290 339 611>
LayerCount: 2
Fore
SplineSet
16 1 m 1xbc
 16 40 l 1
 19 40 22 39 25 39 c 0xbc
 119 39 127 63 153 168 c 0
 177 264 229 290 279 312 c 1
 171 336 101 392 101 487 c 0
 101 612 186 671 352 671 c 2
 627 671 l 1
 627 631 l 1
 570 625 l 1
 553 611 l 1
 553 60 l 1
 570 46 l 1
 627 41 l 1
 627 0 l 1
 389 0 l 1
 389 41 l 1x7c
 446 46 l 1
 463 60 l 1
 463 290 l 1
 445 291 427 292 390 292 c 0
 325 292 275 280 239 142 c 0
 216 54 193 -11 88 -11 c 0
 65 -11 45 -7 16 1 c 1xbc
199 489 m 0
 199 383 288 338 408 338 c 0
 414 338 432 338 463 339 c 1
 463 625 l 1
 385 625 l 2
 261 625 199 593 199 489 c 0
EndSplineSet
EndChar

StartChar: afii10081
Encoding: 1087 1087 276
Width: 570
Flags: W
HStem: 0 36<30 84 201 249 321 369 486 540> 435 46<184 386> 445 36<30 84 486 540>
VStem: 101 83<57 424> 386 83<57 424>
LayerCount: 2
Fore
SplineSet
30 0 m 5xd8
 30 36 l 5
 84 41 l 5
 101 57 l 5
 101 424 l 5
 84 440 l 5
 30 445 l 5
 30 481 l 5
 540 481 l 1
 540 445 l 1xb8
 486 440 l 1
 469 424 l 1
 469 57 l 1
 486 41 l 1
 540 36 l 1
 540 0 l 1
 321 0 l 1
 321 36 l 1
 369 41 l 1
 386 57 l 1
 386 435 l 1
 184 435 l 5
 184 57 l 5
 201 41 l 5
 249 36 l 5
 249 0 l 5
 30 0 l 5xd8
EndSplineSet
EndChar

StartChar: afii10079
Encoding: 1085 1085 277
Width: 574
Flags: W
HStem: 0 36<30 84 201 249 325 373 490 544> 230 46<133 428> 445 36<30 84 201 249 325 373 490 544>
VStem: 101 83<57 230 276 424> 390 83<57 230 276 424>
LayerCount: 2
Fore
SplineSet
133 276 m 5
 428 276 l 5
 455 230 l 5
 129 230 l 5
 133 276 l 5
325 0 m 1
 325 36 l 1
 373 41 l 1
 390 57 l 1
 390 424 l 1
 373 440 l 1
 325 445 l 1
 325 481 l 1
 544 481 l 1
 544 445 l 1
 490 440 l 1
 473 424 l 1
 473 57 l 1
 490 41 l 1
 544 36 l 1
 544 0 l 1
 325 0 l 1
30 0 m 1
 30 36 l 1
 84 41 l 1
 101 57 l 1
 101 424 l 1
 84 440 l 1
 30 445 l 1
 30 481 l 1
 249 481 l 1
 249 445 l 1
 201 440 l 1
 184 424 l 1
 184 57 l 1
 201 41 l 1
 249 36 l 1
 249 0 l 1
 30 0 l 1
EndSplineSet
EndChar

StartChar: afii10090
Encoding: 1096 1096 278
Width: 839
Flags: W
HStem: 0 46<184 378 461 655> 0 36<30 84 755 809> 445 36<30 84 201 249 313 361 478 526 590 638 755 809>
VStem: 101 83<57 424> 378 83<46 424> 655 83<57 424>
CounterMasks: 1 1c
LayerCount: 2
Fore
SplineSet
30 0 m 1x7c
 30 36 l 1x7c
 84 41 l 1
 101 57 l 1
 101 424 l 1
 84 440 l 1
 30 445 l 1
 30 481 l 1
 249 481 l 1
 249 445 l 1
 201 440 l 1
 184 424 l 1
 184 46 l 1
 378 46 l 1
 378 424 l 1
 361 440 l 1
 313 445 l 1
 313 481 l 1
 526 481 l 1
 526 445 l 1
 478 440 l 1
 461 424 l 1
 461 46 l 1
 655 46 l 1xbc
 655 424 l 1
 638 440 l 1
 590 445 l 1
 590 481 l 1
 809 481 l 1
 809 445 l 1
 755 440 l 1
 738 424 l 1
 738 57 l 1
 755 41 l 1
 809 36 l 1
 809 0 l 1
 30 0 l 1x7c
EndSplineSet
EndChar

StartChar: afii10088
Encoding: 1094 1094 279
Width: 570
Flags: W
HStem: -146 21G<492.693 542> 0 46<184 384> 0 36<30 84 484 538> 445 36<30 84 201 249 319 367 484 538>
VStem: 101 83<57 424> 384 83<57 424> 496 46<-146 -103.667>
LayerCount: 2
Fore
SplineSet
542 36 m 1xbe
 542 -146 l 1
 496 -146 l 1
 475 -19 l 1
 459 0 l 9
 484 41 l 25
 542 36 l 1xbe
538 481 m 1
 538 445 l 1
 484 440 l 1
 467 424 l 1
 467 57 l 1
 484 41 l 1
 538 36 l 1
 538 0 l 1
 30 0 l 1
 30 36 l 1xbe
 84 41 l 1
 101 57 l 1
 101 424 l 1
 84 440 l 1
 30 445 l 1
 30 481 l 1
 249 481 l 1
 249 445 l 1
 201 440 l 1
 184 424 l 1
 184 46 l 1
 384 46 l 1xde
 384 424 l 1
 367 440 l 1
 319 445 l 1
 319 481 l 1
 538 481 l 1
EndSplineSet
EndChar

StartChar: afii10077
Encoding: 1083 1083 280
Width: 565
Flags: W
HStem: -9 21G<63 126> 0 37<350 412 519.375 571> 444 37<203 268>
DStem2: 277 428 308 381 0.324324 0.945946<-398.659 -34.4054> 355 481 308 381 0.338796 -0.94086<78.1626 420.081>
LayerCount: 2
Back
SplineSet
242 183 m 2
 344 481 l 1
271 481 m 1
 428 45 l 1
193 183 m 2
 295 481 l 1
 355 481 l 1
 512 45 l 1
EndSplineSet
Fore
SplineSet
16 57 m 0xa0
 16 78 27 101 49 116 c 1
 126 55 l 1
 150 78 163 95 193 183 c 2
 277 428 l 1
 268 440 l 1
 203 444 l 1
 203 481 l 1
 355 481 l 1
 512 45 l 1
 571 37 l 1
 571 0 l 1
 350 0 l 1
 350 37 l 1x60
 412 44 l 1
 423 59 l 1
 308 381 l 1
 251 209 l 2
 198 50 165 -9 87 -9 c 0
 39 -9 16 22 16 57 c 0xa0
EndSplineSet
EndChar

StartChar: afii10068
Encoding: 1075 1075 281
Width: 442
Flags: W
HStem: 0 36<30 84 201 265> 435 46<184 344> 445 36<26 84>
VStem: 101 83<57 424> 376 46<332 370.062>
LayerCount: 2
Fore
SplineSet
26 445 m 1xb8
 26 481 l 1
 422 481 l 1xb8
 422 332 l 1
 376 332 l 1
 360 419 l 1
 344 435 l 1
 184 435 l 1xd8
 184 57 l 1
 201 41 l 1
 265 36 l 1
 265 0 l 1
 30 0 l 1
 30 36 l 1
 84 41 l 1
 101 57 l 1
 101 424 l 1
 84 440 l 1
 26 445 l 1xb8
EndSplineSet
EndChar

StartChar: afii10094
Encoding: 1100 1100 282
Width: 505
Flags: W
HStem: 0 45<185.161 350.125> 0 36<30 84> 237 46<185.189 347.697> 445 36<30 84 201 259>
VStem: 101 83<57 234.607 275 424> 387 88<78.4445 202.634>
LayerCount: 2
Back
SplineSet
133 276 m 5
 428 276 l 5
 455 230 l 5
 129 230 l 5
 133 276 l 5
325 0 m 5
 325 36 l 5
 373 41 l 5
 390 57 l 5
 390 424 l 5
 373 440 l 5
 325 445 l 5
 325 481 l 5
 544 481 l 5
 544 445 l 5
 490 440 l 5
 473 424 l 5
 473 57 l 5
 490 41 l 5
 544 36 l 5
 544 0 l 5
 325 0 l 5
30 0 m 5
 30 36 l 5
 84 41 l 5
 101 57 l 5
 101 424 l 5
 84 440 l 5
 30 445 l 5
 30 481 l 5
 249 481 l 5
 249 445 l 5
 201 440 l 5
 184 424 l 5
 184 57 l 5
 201 41 l 5
 249 36 l 5
 249 0 l 5
 30 0 l 5
EndSplineSet
Fore
SplineSet
30 0 m 1x7c
 30 36 l 1x7c
 84 41 l 1
 101 57 l 1
 101 424 l 1
 84 440 l 1
 30 445 l 1
 30 481 l 1
 259 481 l 1
 259 445 l 1
 201 440 l 1
 184 424 l 1
 184 275 l 1
 211 281 224 283 258 283 c 0
 374 283 475 253 475 140 c 0
 475 30 380 0 274 0 c 2xbc
 30 0 l 1x7c
184 51 m 1
 209 45 219 45 246 45 c 0xbc
 310 45 387 54 387 141 c 0
 387 195 356 237 250 237 c 0
 228 237 208 236 184 231 c 1
 184 51 l 1
EndSplineSet
EndChar

StartChar: afii10084
Encoding: 1090 1090 283
Width: 471
Flags: W
HStem: 0 36<113 177 294 358> 324 157<20 65 406 451> 435 46<104 194 277 367>
VStem: 20 45<324 355.667> 194 83<57 435> 406 45<324 355.667>
CounterMasks: 1 1c
LayerCount: 2
Fore
SplineSet
20 481 m 1xdc
 451 481 l 1
 451 324 l 1
 406 324 l 1xdc
 385 419 l 1
 367 435 l 1
 277 435 l 1
 277 57 l 1
 294 41 l 1
 358 36 l 1
 358 0 l 1
 113 0 l 1
 113 36 l 1
 177 41 l 1
 194 57 l 1
 194 435 l 1
 104 435 l 1xbc
 86 419 l 1
 65 324 l 1
 20 324 l 1
 20 481 l 1xdc
EndSplineSet
EndChar

StartChar: afii10086
Encoding: 1092 1092 284
Width: 663
Flags: W
HStem: -218 36<209 272 391 454> -6 43<247 290 373 416> 444 43<247 290 373 416> 654 31<212 235.917>
VStem: 32 91<133.403 348.393> 290 83<-161 -6 37 444 487 654> 540 91<133.403 348.393>
CounterMasks: 1 0e
LayerCount: 2
Fore
SplineSet
32 241 m 0
 32 405 150 478 290 487 c 1
 290 444 l 1
 177 433 123 366 123 241 c 0
 123 117 177 48 290 37 c 1
 290 -6 l 1
 150 3 32 76 32 241 c 0
373 37 m 1
 486 48 540 117 540 241 c 0
 540 366 486 433 373 444 c 1
 373 487 l 1
 513 478 631 405 631 241 c 0
 631 76 513 3 373 -6 c 1
 373 37 l 1
209 -218 m 1
 209 -182 l 1
 272 -177 l 1
 290 -161 l 1
 290 654 l 1
 212 654 l 1
 212 685 l 1
 335 721 l 1
 373 721 l 1
 373 -161 l 1
 391 -177 l 1
 454 -182 l 1
 454 -218 l 1
 209 -218 l 1
EndSplineSet
EndChar

StartChar: afii10074
Encoding: 1080 1080 285
Width: 582
Flags: W
HStem: 0 36<30 84 201 249 333 381 498 552> 445 36<30 84 201 249 333 381 498 552>
VStem: 101 83<57 424> 398 83<57 424>
LayerCount: 2
Fore
SplineSet
126 110 m 1
 417 412 l 1
 450 380 l 1
 159 78 l 1
 126 110 l 1
333 0 m 1
 333 36 l 1
 381 41 l 1
 398 57 l 1
 398 424 l 1
 381 440 l 1
 333 445 l 1
 333 481 l 1
 552 481 l 1
 552 445 l 1
 498 440 l 1
 481 424 l 1
 481 57 l 1
 498 41 l 1
 552 36 l 1
 552 0 l 1
 333 0 l 1
30 0 m 1
 30 36 l 1
 84 41 l 1
 101 57 l 1
 101 424 l 1
 84 440 l 1
 30 445 l 1
 30 481 l 1
 249 481 l 1
 249 445 l 1
 201 440 l 1
 184 424 l 1
 184 57 l 1
 201 41 l 1
 249 36 l 1
 249 0 l 1
 30 0 l 1
EndSplineSet
EndChar

StartChar: afii10089
Encoding: 1095 1095 286
Width: 554
Flags: W
HStem: 0 36<295 353 470 524> 187 58<189.1 320.024> 445 36<22 76 193 241 305 353 470 524>
VStem: 93 83<258.962 424> 370 83<57 232 264.159 424>
LayerCount: 2
Fore
SplineSet
295 0 m 1
 295 36 l 1
 353 41 l 1
 370 57 l 1
 370 232 l 1
 328 207 265 187 201 187 c 0
 113 187 93 257 93 313 c 2
 93 424 l 1
 76 440 l 1
 22 445 l 1
 22 481 l 1
 241 481 l 1
 241 445 l 1
 193 440 l 1
 176 424 l 1
 176 329 l 2
 176 248 211 245 250 245 c 0
 292 245 330 251 370 275 c 1
 370 424 l 1
 353 440 l 1
 305 445 l 1
 305 481 l 1
 524 481 l 1
 524 445 l 1
 470 440 l 1
 453 424 l 1
 453 57 l 1
 470 41 l 1
 524 36 l 1
 524 0 l 1
 295 0 l 1
EndSplineSet
EndChar

StartChar: afii10066
Encoding: 1073 1073 287
Width: 542
Flags: MW
HStem: -9 43<206.96 337.405> 448 43<214.426 337.366>
VStem: 40 94<140.049 342.482> 40 49<344 421.914> 411 94<132.423 352.135> 447 35<754 754>
LayerCount: 2
Back
SplineSet
40 241 m 0
 40 390 137 491 272 491 c 0
 407 491 505 389 505 241 c 0
 505 93 406 -9 272 -9 c 0
 138 -9 40 93 40 241 c 0
134 241 m 0
 134 112 192 34 272 34 c 0
 353 34 411 111 411 241 c 0
 411 370 353 448 272 448 c 0
 191 448 134 371 134 241 c 0
EndSplineSet
Fore
SplineSet
40 272 m 0xe8
 40 378 69 461 108 524 c 0
 145 584 202 640 291 670 c 0
 382 701 430 705 447 754 c 1
 482 754 l 1
 459 664 436 644 311 597 c 0
 217 562 182 542 140 489 c 0
 111 453 89 374 89 344 c 1xd8
 93 344 l 1
 119 424 187 491 278 491 c 0
 407 491 505 389 505 241 c 0
 505 93 406 -9 272 -9 c 0
 138 -9 40 93 40 272 c 0xe8
134 241 m 0xe8
 134 112 192 34 272 34 c 0
 353 34 411 111 411 241 c 0
 411 370 352 448 278 448 c 0
 196 448 134 361 134 241 c 0xe8
EndSplineSet
EndChar

StartChar: afii10093
Encoding: 1099 1099 288
Width: 750
Flags: HW
HStem: 0 36<30 84 501 549 666 720> 0 45<185.161 345.637> 237 46<185.189 347.074> 445 36<30 84 201 259 501 549 666 720>
VStem: 101 83<57 234.607 275 424> 387 88<82.3929 199.857> 566 83<57 424>
LayerCount: 2
Fore
SplineSet
501 0 m 1xbe
 501 36 l 1
 549 41 l 1
 566 57 l 1
 566 424 l 1
 549 440 l 1
 501 445 l 1
 501 481 l 1
 720 481 l 1
 720 445 l 1
 666 440 l 1
 649 424 l 1
 649 57 l 1
 666 41 l 1
 720 36 l 1
 720 0 l 1
 501 0 l 1xbe
EndSplineSet
Refer: 282 1100 N 1 0 0 1 0 0 2
EndChar

StartChar: afii10067
Encoding: 1074 1074 289
Width: 525
Flags: W
HStem: 0 45<185.168 357.286> 0 36<30 84> 233 41<185.667 330.633> 436 45<184.476 339.625> 445 36<30 84>
VStem: 101 83<57 231.205 274.695 424> 367 84<304.732 411.502> 397 88<78.9088 195.223>
LayerCount: 2
Back
SplineSet
30 0 m 1x7c
 30 36 l 1x7c
 84 41 l 1
 101 57 l 1
 101 424 l 1
 84 440 l 1
 30 445 l 1
 30 481 l 1
 259 481 l 1
 259 445 l 1
 201 440 l 1
 184 424 l 1
 184 275 l 1
 211 281 224 283 258 283 c 0
 374 283 475 253 475 140 c 0
 475 30 380 0 274 0 c 2xbc
 30 0 l 1x7c
184 51 m 1
 209 45 219 45 246 45 c 0xbc
 299 45 387 54 387 141 c 0
 387 195 353 237 250 237 c 0
 228 237 208 236 184 231 c 1
 184 51 l 1
EndSplineSet
Fore
SplineSet
184 276 m 1x36
 215 274 219 274 235 274 c 0
 336 274 367 312 367 357 c 0
 367 432 302 436 231 436 c 0
 214 436 194 433 184 429 c 1
 184 276 l 1x36
30 0 m 1x65
 30 36 l 1
 84 41 l 1
 101 57 l 1
 101 424 l 1
 84 440 l 1
 30 445 l 1
 30 481 l 1x6d
 249 481 l 2
 389 481 451 441 451 362 c 0x36
 451 300 402 281 348 263 c 1
 415 260 485 206 485 133 c 0
 485 40 394 0 284 0 c 2xb5
 30 0 l 1x65
184 51 m 1
 209 45 229 45 256 45 c 0xa5
 322 45 397 58 397 136 c 0
 397 206 342 233 250 233 c 0
 228 233 220 233 184 229 c 1
 184 51 l 1
EndSplineSet
EndChar

StartChar: cyrbreve
Encoding: 63188 63188 291
Width: 582
Flags: W
HStem: 543 39<221.532 360.468>
VStem: 123 86<595.701 681.347> 373 86<595.701 681.347>
LayerCount: 2
Fore
SplineSet
123 637 m 0
 123 659 128 668 139 682 c 9
 209 682 l 1
 209 611 l 1
 237 585 256 582 291 582 c 0
 326 582 345 585 373 611 c 1
 373 682 l 1
 443 682 l 17
 454 668 459 659 459 637 c 0
 459 593 421 543 291 543 c 0
 161 543 123 593 123 637 c 0
EndSplineSet
EndChar

StartChar: afii10095
Encoding: 1101 1101 292
Width: 462
Flags: MW
HStem: -9 58<94.2578 254.045> 211 46<193.68 310.945> 239 46<103.854 219.542> 447 43<108.862 263.478>
VStem: 51 43<353 402> 335 90<137.516 358.108>
LayerCount: 2
Back
SplineSet
423 241 m 0
 423 93 334 -7 198 -7 c 0
 144 -7 90 10 35 42 c 1
 35 94 l 1
 77 66 118 52 162 52 c 0
 266 52 332 125 332 248 c 0
 332 374 271 451 185 451 c 0
 168 451 152 446 137 437 c 1
 137 355 l 1
 122 345 107 340 92 340 c 0
 58 340 36 361 36 393 c 0
 36 451 83 491 179 491 c 0
 319 491 423 390 423 241 c 0
EndSplineSet
Fore
SplineSet
76 231 m 1xbc
 98 265 127 285 159 285 c 0xbc
 195 285 239 257 270 257 c 0
 285 257 331 266 331 306 c 1
 337 262 l 1
 314 229 288 211 255 211 c 0xdc
 219 211 173 239 142 239 c 0
 128 239 112 237 93 217 c 1
 76 231 l 1xbc
32 51 m 1
 32 100 l 1
 71 72 119 49 168 49 c 0
 276 49 335 121 335 248 c 0
 335 374 283 447 188 447 c 0
 161 447 130 439 104 423 c 1
 94 353 l 1
 51 353 l 1
 51 462 l 1
 87 479 141 490 189 490 c 0
 329 490 425 399 425 241 c 0
 425 89 339 -9 197 -9 c 0
 142 -9 70 15 32 51 c 1
EndSplineSet
EndChar

StartChar: afii10096
Encoding: 1102 1102 293
Width: 780
Flags: W
HStem: -9 43<470 550.5 470 577> 0 36<30 84 201 249> 230 46<133 318> 445 36<30 84 201 249> 448 43<469.5 550.5>
VStem: 101 83<57 230 276 424> 278 94<176.5 306 176.5 315.5> 649 94<176 305.5>
LayerCount: 2
Fore
SplineSet
133 276 m 1x27
 318 276 l 1
 345 230 l 1
 129 230 l 1
 133 276 l 1x27
30 0 m 1x77
 30 36 l 1
 84 41 l 1
 101 57 l 1
 101 424 l 1
 84 440 l 1
 30 445 l 1
 30 481 l 1
 249 481 l 1
 249 445 l 1
 201 440 l 1
 184 424 l 1
 184 57 l 1
 201 41 l 1
 249 36 l 1
 249 0 l 1
 30 0 l 1x77
EndSplineSet
Refer: 79 111 N 1 0 0 1 241 0 2
EndChar

StartChar: afii10069
Encoding: 1076 1076 294
Width: 522
Flags: W
HStem: -146 21G<10 59.3071 462.693 512> 0 46<124 369> 444 37<142 207>
VStem: 10 46<-146 -103.667> 466 46<-146 -103.667>
DStem2: 75 48 124 46 0.347877 0.93754<15.1709 371.098> 294 481 247 380 0.344508 -0.938783<78.6253 434.209>
LayerCount: 2
Back
SplineSet
124 48 m 1
 265 428 l 1
210 481 m 1
 370 45 l 1
75 48 m 9
 216 428 l 1
294 481 m 1
 454 45 l 1
EndSplineSet
Fore
SplineSet
10 -146 m 1
 10 36 l 1
 75 48 l 9
 216 428 l 1
 207 440 l 1
 142 444 l 1
 142 481 l 1
 294 481 l 1
 454 45 l 1
 512 36 l 1
 512 -146 l 1
 466 -146 l 1
 445 -19 l 1
 429 0 l 1
 93 0 l 1
 77 -19 l 1
 56 -146 l 1
 10 -146 l 1
124 46 m 1
 369 46 l 1
 247 380 l 1
 124 46 l 1
EndSplineSet
EndChar

StartChar: afii10091
Encoding: 1097 1097 295
Width: 843
Flags: W
HStem: -146 21G<765.693 815> 0 36<30 84 755 809> 0 46<184 378 461 655> 445 36<30 84 201 249 313 361 478 526 590 638 755 809>
VStem: 101 83<57 424> 378 83<46 424> 655 83<57 424> 769 46<-146 -103.667>
LayerCount: 2
Fore
SplineSet
815 36 m 1xdf
 815 -146 l 1
 769 -146 l 1
 748 -19 l 1
 732 0 l 9xbf
 755 41 l 25
 815 36 l 1xdf
EndSplineSet
Refer: 278 1096 N 1 0 0 1 0 0 2
EndChar

StartChar: afii10092
Encoding: 1098 1098 296
Width: 616
Flags: W
HStem: 0 45<296.161 461.125> 0 36<141 195> 237 46<296.189 458.697> 435 46<96 212> 445 36<312 370>
VStem: 20 45<338 375.8> 212 83<57 234.607 275 424> 498 88<78.4445 202.634>
LayerCount: 2
Fore
SplineSet
20 338 m 1x77
 20 481 l 1
 370 481 l 1
 370 445 l 1
 312 440 l 1
 295 424 l 1
 295 275 l 1
 322 281 335 283 369 283 c 0
 485 283 586 253 586 140 c 0
 586 30 491 0 385 0 c 2xaf
 141 0 l 1
 141 36 l 1
 195 41 l 1
 212 57 l 1
 212 435 l 1
 96 435 l 1
 80 419 l 1
 65 338 l 1
 20 338 l 1x77
295 51 m 1
 320 45 330 45 357 45 c 0
 421 45 498 54 498 141 c 0
 498 195 467 237 361 237 c 0
 339 237 319 236 295 231 c 1
 295 51 l 1
EndSplineSet
EndChar

StartChar: afii10078
Encoding: 1084 1084 297
Width: 696
Flags: W
HStem: 0 36<30 84 164 212 447 495 612 666> 445 36<30 84 612 666>
VStem: 101 46<57 417> 512 83<57 421>
DStem2: 220 454 147 417 0.362123 -0.93213<8.05387 352.298> 346 125 346 0 0.366814 0.930294<0 336.258>
LayerCount: 2
Back
SplineSet
468 436 m 1
 296 0 l 1
396 0 m 1
 227 435 l 1
518 436 m 1
 346 0 l 1
 309 0 l 1
 140 435 l 1
EndSplineSet
Fore
SplineSet
30 0 m 1
 30 36 l 1
 84 41 l 1
 101 57 l 1
 101 424 l 1
 84 440 l 1
 30 445 l 1
 30 481 l 1
 220 481 l 1
 220 454 l 1
 346 125 l 1
 475 454 l 9
 475 481 l 17
 666 481 l 1
 666 445 l 1
 612 440 l 1
 595 424 l 1
 595 57 l 1
 612 41 l 1
 666 36 l 1
 666 0 l 1
 447 0 l 1
 447 36 l 1
 495 41 l 1
 512 57 l 1
 512 421 l 1
 346 0 l 1
 309 0 l 1
 147 417 l 1
 147 57 l 1
 164 41 l 1
 212 36 l 1
 212 0 l 1
 30 0 l 1
EndSplineSet
EndChar

StartChar: afii10073
Encoding: 1079 1079 298
Width: 446
Flags: W
HStem: -9 42<105.768 282.523> 238 42<123 266.155> 355 104<36 79> 447 43<99.2785 273.77>
VStem: 36 43<92.6667 137 355 400.5> 300 84<309.511 421.141> 318 88<64.6462 196.762>
LayerCount: 2
Back
SplineSet
36 22 m 1xda
 36 134 l 1
 79 134 l 1
 91 57 l 1
 122 42 154 33 193 33 c 0
 265 33 316 53 316 133 c 0xda
 316 202 265 238 173 238 c 1
 121 236 l 1
 121 282 l 1
 172 280 l 1
 273 280 298 321 298 363 c 0
 298 436 241 447 187 447 c 0xdc
 163 447 120 438 89 423 c 1
 79 356 l 1
 36 356 l 1
 36 462 l 1xec
 74 477 144 490 188 490 c 0
 314 490 382 441 382 368 c 0xdc
 382 301 337 275 276 261 c 1
 352 247 404 202 404 130 c 0
 404 35 317 -9 196 -9 c 0
 125 -9 72 6 36 22 c 1xda
EndSplineSet
Fore
SplineSet
36 28 m 1xda
 36 137 l 1
 79 137 l 1
 91 61 l 1
 117 46 152 33 195 33 c 0
 267 33 318 53 318 133 c 0xda
 318 202 267 238 175 238 c 1
 123 236 l 1
 123 282 l 1
 174 280 l 1
 275 280 300 321 300 363 c 0
 300 436 243 447 189 447 c 0xdc
 163 447 118 439 89 420 c 1
 79 355 l 1
 36 355 l 1
 36 459 l 1xec
 80 478 144 490 190 490 c 0
 316 490 384 441 384 368 c 0xdc
 384 301 339 275 278 261 c 1
 354 247 406 202 406 130 c 0
 406 35 319 -9 198 -9 c 0
 123 -9 76 8 36 28 c 1xda
EndSplineSet
EndChar

StartChar: afii10076
Encoding: 1082 1082 299
Width: 543
Flags: W
HStem: -7 43<459.276 538.758> 0 36<30 84 201 249 513.375 539> 230 44<184 261.444> 444 44<388.085 426> 445 36<30 84 201 249>
VStem: 101 83<57 230 274 424>
LayerCount: 2
Fore
SplineSet
184 230 m 1xa4
 184 274 l 1
 201 274 l 2
 255 274 301 323 318 382 c 0
 338 449 382 488 441 488 c 0
 517 488 519 438 519 419 c 0
 519 398 493 372 460 367 c 9
 426 444 l 17
 405 444 378 422 366 382 c 0
 343 305 311 272 270 260 c 1
 344 256 408 200 430 128 c 0
 451 58 462 36 513 36 c 0xb4
 521 36 529 37 539 37 c 1
 539 0 l 1x64
 539 0 515 -7 499 -7 c 0
 436 -7 384 5 358 86 c 0
 327 184 310 230 211 230 c 2
 184 230 l 1xa4
30 0 m 1x6c
 30 36 l 1
 84 41 l 1
 101 57 l 1
 101 424 l 1
 84 440 l 1
 30 445 l 1
 30 481 l 1
 249 481 l 1
 249 445 l 1
 201 440 l 1
 184 424 l 1
 184 57 l 1
 201 41 l 1
 249 36 l 1
 249 0 l 1
 30 0 l 1x6c
EndSplineSet
EndChar

StartChar: afii10097
Encoding: 1103 1103 300
Width: 546
Flags: W
HStem: -7 43<10.2384 75.6419> 0 36<10 33.6264 297 345 462 516> 207 42<237.291 362> 436 45<197.972 361.114> 445 36<462 516>
VStem: 76 88<288.933 405.666> 362 83<57 205 249.565 424>
LayerCount: 2
Fore
SplineSet
10 0 m 1x66
 10 37 l 1
 20 37 26 36 34 36 c 0
 72 36 77 47 100 121 c 0
 122.717 194.089 171 213 221 225 c 1
 153 239 76 276 76 350 c 0
 76 449 174 481 288 481 c 2xb6
 516 481 l 1
 516 445 l 1
 462 440 l 1
 445 424 l 1
 445 57 l 1
 462 41 l 1
 516 36 l 1
 516 0 l 1
 297 0 l 1
 297 36 l 1x6e
 345 41 l 1
 362 57 l 1
 362 205 l 1
 337 206 346 207 312 207 c 0
 252 207 202.825 184.484 174 86 c 0
 150 4 104 -7 41 -7 c 0xa6
 25 -7 10 0 10 0 c 1x66
164 349 m 0
 164 276 226 249 305 249 c 0
 327 249 337 249 362 251 c 1
 362 430 l 1
 343 434 331 436 304 436 c 0
 240 436 164 427 164 349 c 0
EndSplineSet
EndChar

